{"glyphs":{"0":{"ha":749,"x_min":9,"x_max":714,"o":"m 155 613 q 159 594 155 602 q 163 580 163 587 q 160 499 164 565 q 157 385 157 433 q 181 338 157 342 q 225 313 205 334 q 248 287 237 302 q 268 260 259 272 q 292 237 277 248 q 314 212 300 228 q 346 196 329 196 q 404 200 366 196 q 444 200 435 196 q 481 220 453 203 q 499 233 498 231 q 511 254 500 235 q 520 276 513 258 q 523 285 520 281 q 529 298 526 289 q 536 321 533 311 q 538 352 538 332 q 535 394 538 372 q 535 439 531 416 q 538 503 536 481 q 541 553 541 524 q 525 589 541 580 q 503 616 509 598 q 499 636 498 628 q 492 656 500 644 q 461 699 477 677 q 427 743 444 720 q 355 783 392 783 q 288 760 316 783 q 235 720 260 737 q 207 701 216 709 q 186 674 198 692 q 168 644 181 667 q 155 613 155 621 m 9 400 q 14 479 9 441 q 20 511 16 500 q 29 539 24 522 q 46 596 39 567 q 62 657 54 626 q 83 711 68 682 q 113 760 98 741 q 189 813 135 787 q 275 861 242 839 q 297 875 287 867 q 321 889 307 884 q 337 892 331 892 q 353 895 342 892 q 379 906 368 898 q 407 913 391 915 q 448 878 435 907 q 475 829 460 848 q 511 791 490 808 q 551 755 531 774 q 568 734 561 745 q 587 715 576 724 q 641 654 614 687 q 680 583 668 621 q 700 525 685 567 q 713 467 714 484 q 705 436 709 448 q 701 404 701 424 q 694 374 701 391 q 681 348 686 357 q 618 259 655 296 q 583 220 594 235 q 536 191 570 205 q 511 177 522 185 q 490 163 501 168 q 440 137 460 148 q 385 100 397 113 q 316 87 372 87 q 260 111 273 87 q 197 177 227 152 q 142 224 166 202 q 120 240 131 233 q 98 258 109 246 q 77 276 90 263 q 26 327 44 304 q 9 400 9 350 z "},"1":{"ha":509,"x_min":1,"x_max":485,"o":"m 12 793 q 34 784 24 789 q 55 780 44 780 q 62 780 59 780 q 70 780 64 780 q 82 785 77 780 q 98 794 87 791 q 122 799 103 794 q 146 806 140 804 q 168 811 153 809 q 194 817 183 813 q 240 829 216 819 q 261 840 244 829 q 277 850 277 850 q 295 847 283 852 q 307 833 307 842 q 298 819 307 826 q 285 806 288 811 q 276 790 279 796 q 268 772 273 783 q 264 750 262 763 q 264 730 266 737 q 252 671 253 707 q 249 657 250 663 q 248 646 248 652 q 248 626 248 635 q 248 606 248 616 q 248 553 248 578 q 252 500 248 528 q 255 463 255 478 q 260 426 255 444 q 264 393 264 408 q 269 358 264 376 q 277 324 273 340 q 283 290 279 307 q 290 256 287 272 q 339 219 307 243 q 399 195 372 195 q 420 201 407 195 q 446 208 433 208 q 468 204 452 208 q 485 187 485 200 q 468 166 485 170 q 437 163 452 163 q 389 167 397 163 q 372 168 379 168 q 359 172 364 168 q 285 185 307 185 q 234 184 259 185 q 184 183 209 183 q 182 182 183 183 q 181 182 181 182 q 142 172 161 182 q 109 163 123 163 q 54 151 96 159 q 7 163 12 142 q 24 187 7 183 q 38 187 29 187 q 52 187 46 187 q 68 195 70 187 q 79 211 66 203 q 99 218 90 216 q 115 231 107 220 q 129 271 125 252 q 136 332 129 302 q 142 395 142 363 q 146 459 142 422 q 146 495 146 476 q 146 532 146 515 q 147 546 146 539 q 148 563 148 552 q 144 595 144 581 q 142 627 144 611 q 140 659 140 643 q 131 720 140 696 q 116 739 127 733 q 97 746 105 743 q 77 752 88 750 q 39 748 52 748 q 7 763 14 748 q 1 781 1 768 q 12 793 1 793 z "},"2":{"ha":746,"x_min":7,"x_max":711,"o":"m 64 811 q 61 831 64 817 q 70 846 57 846 q 89 842 75 846 q 114 837 103 837 q 174 861 140 837 q 216 887 192 876 q 262 909 240 898 q 273 915 266 911 q 285 922 281 918 q 291 933 288 926 q 299 943 294 941 q 318 932 307 945 q 338 915 329 920 q 355 905 347 905 q 374 905 362 905 q 401 902 392 902 q 424 911 409 902 q 446 920 438 920 q 477 887 460 920 q 501 841 494 854 q 525 792 511 819 q 540 743 540 765 q 533 705 540 718 q 524 674 527 692 q 510 642 518 657 q 501 611 501 626 q 500 575 501 591 q 486 543 499 559 q 466 518 477 532 q 448 496 455 505 q 402 453 425 474 q 361 409 379 431 q 340 387 349 398 q 319 365 331 376 q 297 343 309 354 q 277 320 286 332 q 234 272 264 304 q 199 224 203 241 q 298 224 257 230 q 356 214 326 216 q 416 202 387 211 q 443 195 422 200 q 471 189 464 189 q 506 189 486 189 q 540 187 526 189 q 573 187 557 183 q 603 195 590 191 q 635 210 614 196 q 663 237 656 224 q 671 279 671 258 q 667 289 671 281 q 663 302 663 296 q 692 292 673 307 q 711 264 711 276 q 699 227 711 241 q 686 198 686 213 q 699 179 686 182 q 711 163 711 176 q 681 148 711 152 q 669 138 675 144 q 656 130 663 132 q 642 120 650 124 q 629 113 635 117 q 604 94 618 104 q 577 78 590 83 q 558 73 570 72 q 538 72 546 74 q 501 62 519 66 q 466 58 483 58 q 411 61 438 58 q 362 68 385 65 q 268 89 314 74 q 223 103 245 96 q 181 117 201 109 q 135 132 170 120 q 90 144 101 144 q 44 130 66 144 q 19 125 31 120 q 7 146 7 130 q 30 178 7 155 q 62 210 53 200 q 123 264 90 237 q 189 317 157 291 q 305 435 251 370 q 351 505 327 472 q 394 581 375 537 q 408 625 399 595 q 416 676 416 656 q 377 768 416 730 q 360 781 366 778 q 342 798 353 783 q 323 813 340 802 q 301 824 305 824 q 279 816 290 824 q 260 804 268 808 q 216 785 238 793 q 175 766 194 778 q 144 735 159 755 q 120 698 129 715 q 107 677 114 687 q 96 659 101 667 q 77 616 81 643 q 71 590 75 606 q 57 574 66 574 q 38 591 42 574 q 35 624 35 608 q 52 720 35 672 q 64 811 64 753 z "},"3":{"ha":690,"x_min":0,"x_max":659,"o":"m 289 796 q 281 767 289 778 q 274 741 274 755 q 274 722 274 732 q 274 704 274 713 q 291 678 274 689 q 324 667 307 667 q 365 687 352 667 q 371 695 367 691 q 378 705 376 700 q 395 720 385 720 q 400 717 400 720 q 390 665 400 680 q 365 631 380 650 q 326 611 352 613 q 296 609 315 609 q 280 606 287 609 q 271 604 274 604 q 251 609 261 604 q 235 621 241 615 q 210 648 228 624 q 190 683 203 656 q 176 720 176 709 q 176 743 176 732 q 176 766 176 753 q 188 798 176 772 q 205 833 200 824 q 222 865 216 854 q 250 887 228 876 q 332 902 287 902 q 352 906 342 902 q 372 911 361 909 q 422 915 389 915 q 496 896 454 915 q 561 865 539 876 q 618 826 598 846 q 645 797 631 813 q 659 761 659 780 q 651 727 659 752 q 641 692 643 702 q 613 635 633 659 q 574 589 596 615 q 520 555 557 572 q 547 519 526 535 q 591 467 568 504 q 621 403 608 433 q 633 335 633 372 q 622 303 633 313 q 606 281 611 294 q 572 237 595 259 q 553 216 561 226 q 533 196 545 205 q 487 158 517 180 q 435 134 457 137 q 373 112 402 122 q 315 96 345 102 q 297 93 306 94 q 281 91 289 91 q 243 86 259 85 q 205 87 228 87 q 184 86 198 85 q 163 87 170 87 q 120 90 137 89 q 81 96 104 91 q 26 130 52 104 q 0 195 0 155 q 2 252 0 220 q 20 306 3 283 q 126 368 50 345 q 144 373 137 368 q 168 382 152 378 q 212 366 185 383 q 239 340 239 348 q 237 321 239 334 q 224 309 235 309 q 205 331 220 309 q 180 350 191 352 q 160 342 168 345 q 142 334 152 339 q 127 319 132 326 q 115 306 122 313 q 99 294 106 296 q 93 274 93 291 q 87 249 93 261 q 81 226 81 237 q 143 181 81 208 q 216 154 205 154 q 291 178 246 154 q 352 218 335 202 q 379 239 363 230 q 408 263 396 248 q 430 290 416 276 q 456 317 444 304 q 476 346 461 326 q 492 382 491 365 q 490 430 492 398 q 481 472 487 461 q 428 519 469 494 q 406 523 415 524 q 383 522 396 522 q 359 526 367 522 q 340 530 352 530 q 313 513 319 530 q 294 496 307 496 q 287 513 287 496 q 293 525 287 524 q 306 532 298 526 q 326 550 317 537 q 345 571 340 570 q 380 572 350 572 q 489 631 444 572 q 522 683 504 652 q 541 750 541 715 q 541 757 541 753 q 541 766 541 761 q 485 831 541 806 q 398 856 430 856 q 381 853 391 856 q 363 850 372 850 q 334 837 350 850 q 319 829 322 829 q 309 819 317 828 q 289 796 291 800 z "},"4":{"ha":668,"x_min":-1,"x_max":637,"o":"m 153 413 q 196 417 174 413 q 239 420 217 420 q 267 424 256 420 q 291 430 278 428 q 317 428 315 433 q 326 456 319 422 q 335 510 330 472 q 339 568 339 548 q 337 637 339 596 q 330 705 336 677 q 318 690 325 702 q 306 672 311 677 q 294 655 300 665 q 282 641 288 646 q 256 608 267 621 q 234 572 245 595 q 224 554 229 565 q 215 535 219 543 q 210 526 212 528 q 206 519 208 524 q 200 508 201 513 q 197 498 199 504 q 175 454 186 478 q 153 413 163 430 m 456 926 q 456 898 456 911 q 456 872 456 885 q 456 810 456 837 q 450 753 456 783 q 448 724 449 739 q 445 696 447 709 q 441 667 443 685 q 439 637 439 648 q 438 577 439 608 q 437 515 437 547 q 437 484 437 498 q 437 454 437 469 q 437 419 437 446 q 443 393 437 393 q 452 394 450 393 q 463 393 454 395 q 477 389 471 391 q 491 387 484 387 q 534 404 521 389 q 538 414 536 409 q 545 424 541 418 q 555 446 551 435 q 567 467 559 456 q 583 481 573 474 q 599 500 593 489 q 607 524 600 505 q 621 543 614 543 q 637 519 637 543 q 621 469 637 487 q 593 428 604 450 q 574 380 582 408 q 569 352 569 363 q 554 332 567 340 q 519 332 532 332 q 490 326 506 332 q 456 324 484 324 q 438 321 441 324 q 427 317 435 319 q 427 308 427 311 q 427 298 427 304 l 422 241 q 426 220 422 230 q 429 205 429 211 q 426 186 429 195 q 422 168 422 178 q 443 151 422 152 q 475 150 463 150 q 487 151 480 150 q 498 154 493 152 q 525 126 525 155 q 500 111 525 111 q 485 105 488 109 q 473 100 482 102 q 442 90 456 94 q 415 79 429 85 q 356 58 404 74 q 297 43 308 43 q 268 45 286 43 q 250 61 250 48 q 277 80 250 78 q 321 98 304 81 q 332 116 330 107 q 341 132 334 124 q 351 176 351 144 q 351 221 351 198 q 349 267 351 244 q 343 301 345 278 q 323 324 341 324 q 285 318 310 324 q 249 313 260 313 q 226 310 237 309 q 208 309 215 311 q 95 294 145 294 q 52 292 65 294 q 16 289 26 289 q -1 300 -1 289 q 10 321 -1 315 q 32 335 21 328 q 69 368 43 342 q 81 390 77 376 q 93 415 85 404 q 117 459 106 435 q 124 484 123 481 q 140 505 126 487 q 145 517 141 511 q 153 528 149 522 q 160 537 156 533 q 169 547 163 541 q 182 568 180 563 q 193 593 184 572 q 207 613 199 600 q 221 635 215 626 q 249 676 236 654 q 275 720 262 698 q 302 761 288 741 q 332 804 317 781 q 356 848 347 826 q 365 874 361 859 q 376 900 369 889 q 406 939 389 926 q 456 959 432 956 q 465 945 465 959 q 460 936 465 941 q 456 926 456 932 z "},"5":{"ha":840,"x_min":-3,"x_max":802,"o":"m 276 811 q 291 809 280 809 q 310 815 296 809 q 332 822 323 822 q 394 821 363 822 q 458 821 425 821 q 509 829 484 821 q 559 848 534 837 q 640 892 597 865 q 682 911 652 900 q 701 924 699 917 q 715 941 704 932 q 733 952 724 946 q 752 966 741 959 q 768 984 758 970 q 782 998 778 998 q 795 988 787 1000 q 802 970 802 976 q 787 949 802 959 q 767 928 772 939 q 753 901 760 913 q 741 876 747 889 q 720 818 730 846 q 709 750 709 789 q 701 746 709 746 q 641 753 674 753 q 546 754 593 753 q 452 748 498 755 q 402 736 427 743 q 352 730 378 730 q 347 673 352 702 q 343 616 341 644 q 482 606 412 616 q 606 543 552 595 q 633 509 615 532 q 650 474 650 487 q 644 449 650 456 q 626 437 637 443 q 607 425 612 428 q 595 409 602 422 q 579 391 587 398 q 565 378 571 383 q 539 340 549 361 q 519 302 530 320 q 490 255 504 279 q 456 213 476 230 q 447 209 450 210 q 439 203 443 208 q 376 143 406 170 q 309 91 347 117 q 294 76 300 85 q 280 61 288 66 q 260 47 269 54 q 245 35 252 41 q 205 14 228 24 q 156 3 182 3 q 96 11 138 3 q 56 8 75 13 q 28 9 37 3 q 11 23 22 15 q 2 37 0 31 q -1 57 2 48 q -3 76 -3 65 q 12 97 -3 83 q 34 113 26 111 q 34 96 39 115 q 28 65 28 78 q 46 51 28 54 q 73 48 65 48 q 117 53 95 48 q 165 63 139 58 q 195 75 180 65 q 224 93 210 85 q 251 110 241 100 q 276 132 261 120 q 300 150 288 141 q 324 172 313 159 q 343 196 334 182 q 361 224 352 211 q 391 286 378 248 q 412 354 404 320 q 421 388 413 370 q 430 426 430 406 q 404 528 430 505 q 300 561 365 561 q 248 549 276 561 q 197 537 219 537 q 182 537 191 537 q 172 545 172 537 q 193 600 172 557 q 222 654 213 643 q 236 677 228 659 q 250 704 245 694 q 267 783 269 739 q 276 811 267 811 z "},"6":{"ha":555,"x_min":1,"x_max":529,"o":"m 268 26 q 239 47 250 26 q 220 81 229 68 q 192 105 207 94 q 164 130 177 117 q 150 142 157 135 q 138 157 144 150 q 133 161 135 159 q 129 167 131 163 q 75 218 118 172 q 31 278 33 264 q 13 329 25 294 q 9 374 1 363 q 18 400 20 385 q 24 431 16 415 q 32 449 25 441 q 44 469 39 457 q 59 506 55 485 q 70 550 62 528 q 86 599 77 572 q 111 648 94 626 q 116 654 113 652 q 125 661 120 656 q 170 731 148 700 q 224 796 192 763 q 233 812 229 802 q 245 831 237 822 q 272 863 257 848 q 304 892 285 876 q 349 913 323 907 q 377 918 362 917 q 407 920 392 918 q 444 929 427 920 q 472 935 460 937 q 491 925 479 930 q 503 915 503 920 q 511 897 505 904 q 520 880 516 889 q 519 857 520 872 q 513 839 518 841 q 496 853 507 836 q 485 884 486 870 q 463 890 481 890 q 438 890 444 890 q 396 874 416 885 q 355 856 376 863 q 327 836 338 850 q 305 813 316 822 q 283 790 290 802 q 264 765 275 778 q 227 717 239 735 q 203 659 214 696 q 193 626 197 646 q 189 595 189 606 q 183 539 183 563 q 191 543 186 539 q 206 551 197 547 q 224 561 214 555 q 433 511 311 604 q 447 499 438 504 q 465 489 455 494 q 471 482 468 485 q 479 478 473 479 q 514 441 501 457 q 529 393 528 426 q 529 364 529 378 q 528 337 529 350 q 518 294 526 317 q 508 254 513 274 q 500 213 503 233 q 468 141 492 172 q 417 100 453 119 q 359 65 381 81 q 342 54 349 59 q 328 45 335 48 q 316 41 320 41 q 305 39 313 41 q 287 30 294 35 q 268 26 279 24 m 189 198 q 218 169 197 182 q 250 142 239 155 q 300 117 273 113 q 346 134 328 117 q 383 165 364 152 q 414 196 405 182 q 426 219 416 202 q 435 241 435 235 q 430 252 433 246 q 427 263 427 258 q 425 318 425 272 q 425 398 425 365 q 408 429 425 426 q 376 446 390 431 q 367 454 372 448 q 361 463 362 459 q 329 496 338 485 q 311 513 321 502 q 290 524 300 524 q 270 522 279 524 q 252 520 260 520 q 210 510 229 520 q 172 489 191 500 q 158 469 161 481 q 151 444 155 457 q 149 427 149 433 q 148 408 148 420 q 151 376 148 391 q 153 347 153 361 q 151 307 151 320 q 151 279 151 294 q 154 262 151 271 q 159 246 157 254 q 170 236 164 241 q 179 224 176 231 q 182 209 181 215 q 189 198 183 203 z "},"7":{"ha":633,"x_min":5,"x_max":604,"o":"m 546 811 q 528 787 535 796 q 516 760 520 776 q 507 737 513 745 q 489 702 496 718 q 474 669 481 685 q 467 654 470 661 q 463 641 465 646 q 455 618 459 629 q 450 596 452 608 q 430 535 439 565 q 414 476 420 505 q 406 433 411 456 q 397 392 400 413 q 391 354 394 370 q 382 314 385 335 q 378 276 380 292 q 365 198 370 224 q 382 148 359 167 q 428 120 406 130 q 421 103 456 109 q 374 104 387 96 q 331 110 348 111 q 298 109 315 109 q 239 104 277 109 q 170 96 200 98 q 132 93 132 91 q 165 135 127 102 q 193 155 185 142 q 208 178 200 167 q 231 211 224 196 q 243 251 239 228 q 254 294 248 274 q 268 339 259 317 q 285 385 276 361 q 316 455 296 420 q 346 530 335 489 q 357 554 348 535 q 368 581 366 572 q 384 617 374 598 q 400 657 394 637 q 414 693 406 680 q 422 724 422 707 l 463 828 q 417 829 444 828 q 374 831 391 829 q 254 817 309 831 q 216 801 231 809 q 180 785 200 793 q 139 760 155 774 q 100 726 122 746 q 61 693 81 715 q 29 665 41 671 q 14 673 22 663 q 5 689 5 684 q 16 709 5 700 q 31 730 26 718 q 46 752 39 741 q 61 776 54 763 q 92 865 94 842 q 172 882 89 887 q 272 873 222 878 q 372 874 322 869 q 424 881 398 876 q 477 884 450 885 q 547 883 517 878 q 587 887 578 889 q 601 877 598 882 q 593 850 604 872 q 578 829 591 836 q 546 811 565 822 z "},"8":{"ha":591,"x_min":3,"x_max":563,"o":"m 318 892 q 392 876 348 892 q 459 848 437 859 q 518 809 492 829 q 547 782 533 798 q 563 746 561 765 q 556 712 563 737 q 550 677 550 687 q 524 621 541 643 q 487 572 502 589 q 463 552 475 559 q 435 537 450 545 q 464 503 440 519 q 511 450 487 487 q 559 320 555 382 q 551 290 559 300 q 536 267 543 279 q 505 220 526 244 q 486 199 494 210 q 468 178 477 189 q 424 140 452 161 q 374 115 396 119 q 313 91 340 104 q 255 72 285 78 q 216 65 246 71 q 179 59 186 59 q 127 89 151 54 q 75 126 103 124 q 19 200 33 126 q 5 302 5 274 q 10 372 3 328 q 33 439 16 416 q 75 477 48 461 q 135 504 102 492 q 178 519 151 511 q 198 530 205 528 q 178 535 189 530 q 161 547 168 541 q 135 572 146 550 q 102 623 127 581 q 77 677 77 665 l 75 722 q 89 763 75 730 q 105 806 102 796 q 119 837 115 826 q 146 859 123 848 q 227 878 185 878 q 247 881 239 878 q 267 889 255 885 q 318 892 283 892 m 444 748 q 384 811 440 789 q 298 833 328 833 q 279 831 289 833 q 261 828 270 828 q 233 813 244 824 q 217 797 222 806 q 205 780 213 789 q 195 767 199 774 q 186 755 191 761 q 180 727 186 739 q 176 702 174 715 q 179 676 176 691 q 183 652 183 661 q 207 616 183 637 q 248 595 231 595 q 287 615 274 595 q 293 625 289 621 q 300 635 298 629 q 315 652 307 650 q 320 646 320 652 q 313 594 322 609 q 290 559 303 580 q 284 554 287 555 q 279 550 281 552 q 285 550 281 550 q 294 550 289 550 q 399 613 359 552 q 429 666 412 633 q 446 732 446 698 l 444 748 m 409 435 q 385 459 399 450 q 355 478 370 469 q 333 481 342 484 q 313 479 323 479 q 289 481 296 478 q 272 485 283 485 q 252 476 257 485 q 262 461 262 467 q 262 442 262 454 q 250 430 261 430 q 231 452 250 430 q 205 467 216 471 q 186 459 194 461 q 172 450 179 457 q 157 436 161 443 q 148 424 153 430 q 133 412 138 415 q 127 393 127 409 q 123 370 127 382 q 120 347 118 357 q 124 293 120 335 q 146 211 127 252 q 175 168 153 189 q 199 146 196 146 q 259 150 227 146 q 307 170 290 154 q 356 205 330 195 q 411 252 383 215 q 430 288 426 274 q 433 330 433 302 q 423 385 431 347 q 409 435 414 424 z "},"9":{"ha":561,"x_min":-3,"x_max":536,"o":"m 282 926 q 310 902 300 922 q 330 870 319 882 q 354 842 339 854 q 382 819 369 829 q 394 803 387 811 q 406 789 400 794 q 415 780 412 785 q 466 724 427 772 q 509 665 506 676 q 524 612 511 648 q 526 568 536 576 q 516 542 515 557 q 511 511 517 526 q 500 492 506 500 q 489 476 495 484 q 471 436 476 457 q 458 395 465 415 q 439 346 448 372 q 415 298 430 319 q 406 292 410 292 q 399 286 402 291 q 349 217 372 246 q 295 155 326 187 q 283 137 288 148 q 273 120 278 126 q 243 89 263 109 q 208 61 228 76 q 165 43 187 46 q 106 39 144 39 q 67 29 83 37 q 41 26 50 20 q 21 37 32 31 q 9 48 9 43 q 4 65 7 58 q -1 83 0 72 q 8 106 -3 91 q 26 126 20 122 q 30 109 32 127 q 32 79 28 91 q 50 68 32 68 q 76 71 68 68 q 119 83 98 74 q 161 102 139 93 q 189 119 176 106 q 213 141 202 132 q 236 163 227 152 q 256 187 245 174 q 276 209 267 198 q 295 235 286 220 q 309 262 302 246 q 323 292 315 278 q 339 355 330 315 q 345 411 345 385 q 341 408 343 409 q 339 408 339 408 q 306 389 311 393 q 267 363 276 372 q 219 354 258 354 q 182 370 189 354 q 137 416 159 398 q 98 448 115 433 q 83 459 91 454 q 67 472 75 465 q 54 485 54 485 q 18 520 30 504 q 6 570 6 537 q 9 626 6 593 q 20 669 14 646 q 32 707 26 687 q 43 750 37 728 q 78 821 52 787 q 130 858 93 841 q 191 890 167 874 q 222 911 210 905 q 232 913 228 913 q 245 915 235 913 q 262 921 254 915 q 282 926 271 928 m 356 752 q 325 781 345 768 q 295 809 306 793 q 247 837 273 837 q 199 820 219 837 q 163 793 180 804 q 130 761 138 778 q 116 740 124 755 q 108 718 108 724 q 111 707 108 711 q 113 696 113 702 q 112 640 113 685 q 110 561 110 595 q 125 528 110 532 q 156 511 141 524 q 171 492 167 504 q 185 474 178 481 q 202 457 191 467 q 218 441 208 452 q 239 430 228 430 q 258 431 248 430 q 280 431 269 431 q 349 450 315 428 q 360 457 359 456 q 367 472 361 459 q 370 479 369 476 q 374 487 371 481 q 376 494 374 491 q 380 504 378 496 q 385 519 382 513 q 387 541 387 526 q 385 570 387 555 q 384 602 382 585 q 386 638 385 624 q 389 669 387 652 q 382 702 385 680 q 371 712 376 707 q 363 724 365 717 q 359 737 359 732 q 356 752 359 743 z "}," ":{"ha":345,"x_min":0,"x_max":0,"o":""},"!":{"ha":262,"x_min":0,"x_max":252,"o":"m 0 61 q 8 94 0 76 q 28 111 17 111 q 43 105 39 111 q 58 100 48 100 q 86 112 72 100 q 117 124 100 124 q 137 96 137 124 q 128 70 137 96 q 119 43 119 43 q 106 16 111 26 q 85 0 102 5 q 57 5 76 0 q 30 17 39 11 q 11 34 22 17 q 0 61 0 52 m 58 890 q 83 897 65 887 q 95 897 89 897 q 111 898 102 897 q 161 909 144 900 q 201 935 170 915 q 241 956 231 956 q 247 944 243 956 q 252 930 252 933 q 228 910 252 924 q 202 885 203 897 q 197 864 200 876 q 195 844 195 852 q 194 819 195 833 q 191 798 193 804 q 168 722 172 752 q 157 681 165 711 q 146 644 150 650 q 136 604 135 624 q 132 561 137 583 q 126 517 126 543 q 120 474 126 491 q 103 414 115 457 q 85 339 91 370 q 81 296 81 324 q 88 266 81 278 q 94 244 94 254 q 94 221 94 233 q 83 203 93 210 q 52 196 65 196 q 34 223 41 196 q 28 267 28 250 q 31 430 35 374 l 28 496 l 28 524 q 34 584 28 541 q 46 643 41 628 q 52 668 52 659 q 52 702 52 676 q 54 735 52 720 q 56 766 56 750 q 41 833 56 804 q 27 857 37 837 q 17 878 17 878 q 17 880 17 878 q 17 882 17 882 q 31 900 17 900 q 41 895 35 900 q 58 890 46 889 z "},"\"":{"ha":267,"x_min":7,"x_max":248,"o":"m 14 854 l 14 856 q 25 867 14 867 q 34 868 31 867 q 44 872 38 870 q 60 882 55 876 q 66 886 62 882 q 75 890 70 890 q 86 880 81 890 q 96 865 94 869 q 105 828 105 837 q 101 814 105 822 q 101 805 101 809 q 101 798 101 802 q 98 785 100 791 q 96 772 96 780 q 88 745 94 766 q 79 722 86 733 q 68 701 73 711 q 57 680 62 691 q 50 669 53 674 q 45 657 47 663 q 31 639 38 639 l 29 639 q 7 659 7 639 l 7 661 q 14 669 7 661 q 24 677 22 676 q 31 688 27 684 q 40 698 35 692 q 45 710 42 704 q 52 722 47 717 q 58 748 58 733 l 58 753 q 36 813 58 783 q 14 854 14 842 m 146 863 l 146 865 q 159 880 146 872 q 169 882 164 880 q 179 885 174 884 q 197 895 190 887 q 214 905 209 905 q 227 892 220 905 q 238 876 235 885 q 248 833 248 848 q 247 825 248 828 q 245 819 245 822 q 244 802 244 813 q 239 786 242 793 q 237 770 237 780 q 231 741 237 763 q 220 713 227 730 q 194 667 201 684 q 181 641 184 654 q 164 621 175 621 l 164 621 q 138 643 138 621 l 138 644 q 146 654 138 646 q 157 665 153 661 q 165 675 161 671 q 175 687 170 680 q 180 700 177 692 q 186 713 182 707 q 196 745 196 728 l 196 750 q 171 818 196 783 q 146 863 146 852 z "},"#":{"ha":759,"x_min":0,"x_max":724,"o":"m 213 176 q 211 148 205 159 q 217 138 211 142 q 226 127 222 134 q 220 113 233 113 q 208 120 213 113 q 198 130 202 126 q 178 148 178 141 q 185 195 168 165 q 189 226 187 222 q 193 256 193 233 q 204 311 196 283 q 222 365 213 339 q 171 364 195 365 q 119 363 146 363 q 45 357 83 363 q 21 360 35 357 q 5 368 7 363 q 0 395 0 380 q 2 402 0 400 q 25 401 9 404 q 46 398 41 398 q 104 393 66 389 q 168 395 142 398 q 200 393 183 391 q 233 396 216 396 q 243 424 243 428 q 237 425 241 424 q 233 433 233 426 q 243 469 233 435 q 256 507 254 502 q 260 526 258 517 q 267 547 263 535 q 234 547 250 547 q 203 547 218 547 q 180 546 193 545 q 154 548 168 548 q 89 541 115 548 q 50 563 54 532 q 56 578 50 572 q 96 589 71 593 q 122 585 107 585 q 152 587 134 585 q 183 589 170 589 q 230 586 205 587 q 276 587 254 585 q 281 605 278 596 q 286 624 283 613 q 291 653 287 637 q 294 685 294 669 q 298 705 294 694 q 300 750 302 732 q 286 783 296 765 q 287 788 283 783 q 294 793 291 793 q 332 796 319 793 q 342 802 337 796 q 348 808 347 808 q 365 798 365 808 q 357 780 365 791 q 347 765 350 768 q 333 740 334 748 q 326 711 332 732 q 323 700 324 705 q 322 689 322 694 q 323 677 322 685 q 324 665 324 669 q 323 652 322 657 q 324 641 324 646 q 321 612 324 624 q 319 589 319 600 q 327 589 322 589 q 337 589 332 589 q 407 584 370 583 q 474 589 443 585 q 485 628 479 606 q 498 667 491 650 q 505 682 498 669 q 511 698 511 694 q 507 701 509 698 q 504 704 504 704 q 508 735 500 717 q 519 766 517 753 q 535 791 520 785 q 570 798 550 798 q 578 796 578 798 q 569 770 578 787 q 557 748 561 753 q 550 739 553 743 q 545 728 547 735 q 541 712 539 717 q 547 694 543 707 q 541 657 550 676 q 528 626 532 639 q 513 589 517 606 q 553 587 539 583 q 616 586 578 591 q 676 591 654 581 q 696 593 682 591 q 720 595 711 596 q 724 587 724 593 q 717 561 724 576 q 699 553 713 555 q 677 550 685 550 q 604 555 641 555 q 552 556 576 555 q 504 557 528 557 q 487 485 494 524 q 479 411 479 446 q 479 402 479 406 q 478 393 478 398 q 539 396 498 393 q 569 394 550 396 q 600 393 587 393 q 626 396 615 393 q 667 385 650 400 q 672 368 672 380 q 633 348 669 339 q 570 355 608 355 q 541 354 553 355 q 519 354 528 352 q 492 354 505 354 q 469 354 479 354 q 456 258 457 307 q 452 216 454 235 q 454 174 450 196 q 440 138 456 152 q 404 124 424 124 q 374 163 359 126 q 382 185 378 172 q 393 210 387 198 q 411 278 402 235 q 417 316 415 296 q 422 354 418 335 q 372 357 389 357 q 318 358 345 357 q 263 361 291 359 q 262 357 263 359 q 261 354 261 355 q 249 313 256 319 q 237 302 243 307 q 233 291 235 296 q 231 281 231 286 q 221 227 222 261 q 213 176 220 193 m 278 395 q 385 396 335 391 q 408 396 395 396 q 433 396 420 396 q 439 422 435 404 q 467 555 450 489 q 350 550 408 550 q 313 548 324 550 q 307 506 311 526 q 298 469 302 485 q 288 430 292 454 q 278 395 283 406 z "},"$":{"ha":479,"x_min":14,"x_max":457,"o":"m 309 898 q 349 911 331 907 q 395 912 370 907 q 425 945 420 917 q 432 990 427 963 q 457 1022 437 1017 q 451 949 457 994 q 442 876 446 904 q 442 791 437 848 q 435 722 448 733 q 425 762 433 737 q 410 802 416 787 q 400 815 405 817 q 379 819 396 813 q 252 796 318 831 q 216 775 240 791 q 192 750 192 760 q 211 694 192 739 q 235 641 229 648 q 303 564 253 609 q 385 485 353 519 q 424 428 412 448 q 440 363 435 408 q 416 250 442 330 q 372 142 390 170 q 350 108 359 120 q 307 93 340 96 q 306 77 307 83 q 307 63 305 71 q 309 31 309 41 q 310 -2 309 9 q 329 -18 311 -13 q 359 -20 338 -18 q 379 -28 379 -22 q 336 -35 362 -35 q 286 -37 301 -35 q 237 -41 260 -41 q 227 -40 235 -41 q 209 -39 220 -39 q 179 -37 176 -33 q 198 -26 176 -31 q 225 -20 220 -20 q 250 18 244 0 q 253 53 250 30 q 257 87 257 76 q 214 85 242 85 q 166 79 176 81 q 123 89 157 76 q 87 106 98 98 q 60 130 77 113 q 34 156 52 137 q 16 189 16 174 l 14 198 q 27 234 14 210 q 47 269 40 259 q 76 293 60 281 q 121 306 92 304 q 161 291 149 307 q 172 271 162 283 q 182 258 182 258 q 175 227 182 243 q 162 203 168 211 q 144 246 157 220 q 109 272 131 272 q 52 205 47 269 q 71 172 53 183 q 111 155 88 161 q 154 140 129 150 q 196 132 179 130 q 233 143 209 132 q 275 170 257 155 q 329 208 309 185 q 344 235 344 222 q 349 259 344 248 q 341 313 366 292 q 298 354 316 334 q 278 375 286 365 q 258 396 270 385 q 237 417 250 406 q 220 439 225 428 q 199 460 209 450 q 179 481 189 471 q 159 503 166 492 q 140 526 151 513 q 114 584 121 548 q 109 657 107 621 q 110 728 109 698 q 134 785 111 758 q 154 805 146 794 q 176 826 162 817 q 197 843 190 833 q 220 863 203 852 q 258 880 227 869 q 258 887 258 884 q 258 895 258 890 q 255 927 258 904 q 252 961 252 950 q 227 1000 244 983 q 199 1007 222 1002 q 181 1019 177 1013 q 210 1019 181 1019 q 229 1020 222 1019 q 238 1021 237 1021 q 266 1019 255 1021 q 286 1017 277 1017 q 338 1017 313 1013 q 381 1007 364 1017 q 361 1001 381 1002 q 331 998 340 1000 q 312 982 313 993 q 311 948 311 970 q 309 923 311 932 q 309 898 307 915 z "},"%":{"ha":820,"x_min":22,"x_max":781,"o":"m 531 374 q 537 337 531 352 q 544 296 544 322 q 543 252 544 274 q 542 208 542 230 l 542 193 q 551 172 542 182 q 568 159 561 163 q 582 141 574 154 q 596 127 590 127 l 602 127 q 634 141 618 127 q 663 165 651 155 q 685 191 675 172 q 701 208 690 202 q 711 230 711 213 q 706 266 711 250 q 701 298 701 281 q 689 381 707 368 q 648 424 671 395 q 625 441 638 435 q 605 436 620 441 q 589 431 590 431 q 566 423 572 431 q 553 409 561 415 q 541 395 541 402 q 535 381 538 389 q 531 374 531 374 m 597 826 q 578 772 597 798 q 548 728 559 746 q 519 680 533 704 q 494 631 505 656 q 448 526 472 585 q 410 415 424 467 q 390 358 405 389 q 366 306 376 328 q 345 249 355 278 q 328 193 334 220 q 310 133 318 161 q 300 72 301 104 q 269 19 298 39 q 212 0 240 0 q 181 56 148 5 q 200 89 190 71 q 222 124 211 107 q 248 170 238 148 q 270 222 257 193 q 290 275 281 248 q 311 330 300 302 q 333 379 320 355 q 355 431 346 404 q 492 737 410 580 q 503 761 498 750 q 518 785 509 772 q 534 807 522 789 q 546 831 546 826 q 542 834 546 831 q 538 841 538 837 q 555 885 538 859 q 579 930 572 911 q 610 965 590 958 q 665 978 637 978 q 673 972 673 978 q 655 937 673 961 q 629 904 637 913 q 617 890 623 895 q 603 874 610 885 q 595 852 592 857 q 597 826 597 846 m 101 737 q 103 721 101 730 q 107 707 105 713 q 109 691 107 700 q 113 676 111 682 q 135 626 116 656 q 148 603 142 615 q 161 580 153 591 q 186 552 170 555 q 201 548 194 552 q 212 559 207 553 q 225 568 216 565 q 243 572 238 572 q 259 581 248 572 q 279 606 272 593 q 285 644 285 621 q 288 674 285 657 q 294 704 290 691 q 298 746 298 718 q 284 791 298 770 q 259 828 270 811 q 248 846 253 837 q 237 865 242 856 q 196 885 220 885 q 152 870 177 885 q 120 839 127 856 q 113 815 115 828 q 109 791 111 802 q 101 737 101 765 m 22 711 q 30 758 22 735 q 50 796 39 780 q 66 832 59 813 q 88 867 73 852 q 125 885 103 878 q 164 902 148 892 q 199 920 184 909 q 215 933 207 924 q 235 943 224 943 q 260 922 244 943 q 281 896 270 907 q 303 870 292 884 q 333 808 318 846 q 341 781 336 794 q 349 755 346 768 q 359 730 353 743 q 370 705 364 718 q 371 683 370 702 q 372 661 372 665 q 357 608 366 624 q 340 588 349 596 q 323 570 331 580 q 300 547 309 557 q 275 526 292 537 q 260 516 268 520 q 245 507 252 513 q 216 492 231 492 q 205 495 209 492 q 197 500 201 498 q 186 504 189 505 q 176 504 184 502 q 140 520 153 507 q 112 543 127 530 q 90 572 96 555 q 53 641 79 596 q 43 655 47 646 q 35 672 39 663 q 22 711 22 691 m 460 241 q 470 331 460 279 q 492 408 479 383 q 516 435 500 420 q 531 446 520 439 q 542 457 531 446 q 568 481 551 465 q 607 492 583 492 q 665 478 625 492 q 742 430 705 463 q 751 391 751 422 q 752 367 751 378 q 753 345 753 355 q 762 302 757 311 q 774 284 766 292 q 781 267 781 276 q 777 245 781 258 q 770 228 772 233 q 766 218 768 222 q 764 210 764 213 q 762 198 762 203 q 761 187 762 193 q 742 155 753 165 q 720 127 727 141 q 661 89 705 104 q 625 74 633 79 q 610 63 618 68 q 592 58 603 58 q 582 67 587 58 q 574 79 577 76 q 553 98 562 94 q 525 111 542 104 q 503 126 509 119 q 490 154 500 127 q 475 178 477 174 q 465 207 470 189 q 460 241 460 224 z "},"&":{"ha":822,"x_min":14,"x_max":783,"o":"m 199 918 q 278 944 227 928 q 366 958 329 961 q 432 943 416 952 q 468 932 448 933 q 557 904 516 926 q 583 877 579 890 q 595 839 587 863 q 609 789 597 828 q 620 743 620 750 l 610 691 q 574 631 607 676 q 533 576 542 585 q 499 548 516 553 q 424 530 440 526 q 359 570 407 533 q 356 572 357 570 q 355 576 355 574 q 332 618 340 600 q 331 677 323 635 q 338 682 331 682 q 353 661 348 680 q 358 650 353 656 q 366 639 362 644 q 409 611 375 615 q 455 631 425 609 q 486 671 485 654 q 495 698 488 682 q 503 726 501 715 q 499 755 505 743 q 498 791 494 768 q 479 819 494 800 q 465 840 470 829 q 453 859 460 850 q 422 878 431 876 q 400 882 410 878 q 381 889 390 887 q 278 870 346 890 q 203 804 210 850 l 201 785 q 209 707 194 746 q 237 646 224 669 q 313 574 262 593 q 361 553 348 557 q 414 520 375 548 q 460 484 414 520 q 514 443 505 448 q 600 372 555 424 q 666 281 646 320 q 740 373 705 332 q 774 382 775 415 q 755 325 783 350 q 724 274 727 300 q 694 220 718 254 q 716 172 711 183 q 736 126 722 161 q 777 85 744 104 q 777 63 783 81 q 768 57 774 54 q 742 61 762 61 q 699 88 718 72 q 659 122 679 104 q 648 135 653 127 q 637 150 642 142 q 615 115 623 134 q 579 68 607 96 q 496 30 534 35 q 401 0 457 24 q 350 5 390 2 q 300 11 311 7 q 247 31 266 20 q 190 58 227 41 q 138 89 162 63 q 98 137 114 115 q 79 162 86 148 q 62 189 72 176 q 33 246 42 213 q 21 287 27 263 q 18 335 14 311 q 45 412 25 378 q 92 481 64 446 q 149 527 121 513 q 186 563 176 541 q 122 635 136 595 q 101 735 107 676 q 97 775 100 746 q 96 813 94 804 q 116 853 98 836 q 153 884 134 870 q 173 901 164 890 q 199 918 182 911 m 492 326 q 481 341 485 334 q 468 359 477 348 q 449 371 457 367 q 431 382 440 374 q 356 447 403 389 q 277 498 309 505 q 209 454 225 479 q 185 397 201 443 q 168 334 170 352 q 165 286 162 302 q 184 243 168 271 q 238 182 209 198 q 292 137 268 167 q 344 109 307 117 q 414 98 381 102 q 458 113 418 98 q 519 150 499 127 q 552 181 533 167 q 590 210 572 196 q 584 229 585 218 q 568 248 583 239 q 526 281 546 254 q 492 326 505 309 z "},"'":{"ha":109,"x_min":4,"x_max":100,"o":"m 12 839 l 12 841 q 22 852 12 852 q 32 854 28 852 q 41 857 35 856 q 58 867 47 859 q 63 871 60 867 q 73 876 67 876 q 83 865 73 876 q 93 850 91 854 q 100 813 100 828 q 98 798 100 804 q 98 791 98 794 q 98 783 98 787 q 94 770 97 776 q 91 758 91 765 q 85 730 91 752 q 76 707 83 718 q 64 686 71 696 q 52 665 58 676 q 47 654 49 659 q 43 643 45 648 q 28 624 30 624 l 26 624 q 4 644 4 624 l 4 646 q 12 654 4 646 q 21 663 19 661 q 28 673 24 669 q 37 684 32 677 q 41 693 39 687 q 49 707 43 700 q 56 733 56 718 l 56 737 q 34 798 56 768 q 12 839 12 828 z "},"(":{"ha":322,"x_min":0,"x_max":307,"o":"m 83 806 q 131 853 104 837 q 183 897 157 869 q 205 921 189 904 q 230 945 220 937 q 242 952 235 950 q 259 963 248 954 q 270 974 261 965 q 283 983 279 983 q 291 978 291 983 q 287 959 291 968 q 283 943 283 950 q 276 928 279 933 q 269 917 272 922 q 249 893 259 905 q 231 872 239 882 q 195 826 210 850 q 176 799 183 809 q 159 778 168 789 q 133 721 146 760 q 119 652 119 682 q 116 609 117 629 q 113 570 115 589 q 107 532 109 557 q 106 494 106 507 l 106 416 q 109 380 106 400 q 111 342 111 359 q 112 304 111 315 q 124 278 113 294 q 138 251 132 261 q 152 226 144 241 q 158 193 157 211 q 165 161 159 176 q 177 134 165 155 q 193 109 189 113 q 226 66 210 85 q 271 33 243 50 q 293 17 278 28 q 307 -3 307 5 q 294 -13 307 -22 q 279 -6 294 -13 q 258 0 263 0 q 213 5 243 5 q 180 25 196 5 q 155 56 165 45 q 131 84 142 71 q 109 117 120 98 q 93 154 98 130 q 81 196 87 178 q 66 233 76 213 q 48 271 56 254 q 33 311 35 296 q 28 359 31 326 q 20 406 22 385 q 17 457 17 426 q 11 507 17 487 q 5 528 9 509 q 0 548 0 547 q 13 616 0 581 q 23 645 18 631 q 33 676 28 659 q 38 710 39 694 q 46 746 37 726 q 83 806 58 774 z "},")":{"ha":313,"x_min":0,"x_max":298,"o":"m 222 161 q 174 111 202 127 q 124 71 146 94 q 99 44 115 61 q 78 22 83 28 q 63 14 71 17 q 48 3 56 11 q 34 -7 43 0 q 24 -15 26 -15 q 15 -11 15 -15 q 24 24 15 -7 q 39 50 24 33 q 56 71 45 59 q 76 94 66 83 q 113 141 94 113 q 127 164 120 154 q 146 189 135 174 q 172 244 157 205 q 189 315 187 283 q 193 395 189 370 q 200 472 200 431 l 200 548 q 197 585 200 565 q 195 624 195 606 q 194 661 195 652 q 182 689 193 671 q 155 741 167 715 q 147 771 150 753 q 141 804 144 789 q 127 830 139 808 q 115 857 115 852 q 79 898 94 882 q 35 932 61 917 q 13 948 26 937 q 0 972 0 959 q 11 981 0 989 q 27 974 11 981 q 48 966 43 966 q 94 959 59 961 q 124 939 107 959 q 150 909 141 918 q 175 880 163 892 q 198 850 187 867 q 212 810 205 833 q 224 768 218 787 q 240 732 230 752 q 258 694 250 711 q 271 654 269 669 q 279 608 274 639 q 285 558 281 580 q 289 509 289 537 q 294 431 289 443 q 281 339 298 418 q 263 243 271 283 q 222 161 256 203 z "},"*":{"ha":133,"x_min":26,"x_max":127,"o":"m 61 811 q 44 822 50 817 q 31 839 37 826 q 33 842 31 841 q 59 856 50 846 q 47 859 54 856 q 41 863 41 863 q 34 863 37 863 q 31 863 31 863 q 28 863 28 863 q 26 863 28 863 q 35 885 29 882 q 43 892 37 885 q 50 900 50 900 q 59 882 56 900 q 72 865 63 865 q 73 870 72 869 q 74 876 74 872 q 74 881 74 878 q 74 889 74 884 q 74 891 74 890 q 74 898 74 892 q 74 900 74 898 q 74 904 74 902 q 84 900 79 902 q 96 898 89 898 q 115 892 107 898 q 108 882 113 887 q 104 874 104 878 q 94 868 100 870 q 87 857 89 867 q 109 865 94 854 q 122 876 111 865 q 127 863 120 876 q 127 846 127 863 q 119 841 127 837 q 111 844 115 841 q 105 846 107 846 q 85 846 85 846 q 93 842 89 842 q 102 839 96 841 q 107 832 102 837 q 113 828 113 828 q 104 813 113 817 q 91 809 96 813 q 83 806 85 806 q 79 826 81 811 q 72 841 77 841 q 63 819 64 826 q 62 815 63 817 q 61 811 61 813 z "},"+":{"ha":688,"x_min":58,"x_max":587,"o":"m 481 446 q 519 456 490 448 q 568 465 547 463 q 587 459 572 465 q 559 422 587 459 q 548 404 552 413 q 543 393 543 395 q 490 380 522 376 q 429 384 463 380 q 357 389 395 389 q 292 386 308 383 q 233 383 277 389 q 196 376 218 380 q 161 370 174 372 q 144 365 154 368 q 120 361 134 361 q 62 355 72 352 q 62 368 58 357 q 87 399 70 380 q 113 426 104 418 q 134 437 121 437 q 149 437 140 437 q 165 439 158 437 q 184 438 174 439 q 204 437 195 437 q 239 436 222 437 q 274 435 256 435 q 376 434 326 433 q 481 446 427 435 m 296 570 q 287 608 294 580 q 278 657 279 636 q 283 675 278 661 q 320 648 283 675 q 339 637 330 642 q 350 632 348 632 q 363 580 367 612 q 358 518 363 552 q 354 446 354 484 q 357 381 359 397 q 359 322 354 366 q 367 285 363 307 q 372 250 370 263 q 378 233 374 243 q 382 209 382 222 q 387 152 391 161 q 374 152 385 148 q 343 176 363 159 q 317 203 324 193 q 306 222 306 211 q 306 238 306 229 q 304 254 306 248 q 305 274 304 263 q 306 293 306 284 q 307 329 306 311 q 307 363 307 346 q 308 466 309 416 q 296 570 307 515 z "},",":{"ha":165,"x_min":0,"x_max":157,"o":"m 50 100 q 55 115 61 115 q 43 132 48 115 q 39 167 39 141 q 50 195 39 180 q 74 210 59 203 q 107 211 89 213 q 134 198 126 203 q 157 154 154 182 q 152 125 157 134 q 135 106 146 117 q 88 56 109 81 q 45 0 66 30 q 38 -3 39 -2 q 33 -7 37 -3 q 0 0 2 -22 q 7 35 0 17 q 24 63 13 48 q 33 75 28 68 q 43 87 37 81 q 45 94 43 91 q 50 100 48 96 z "},"-":{"ha":450,"x_min":0,"x_max":430,"o":"m 345 446 q 375 456 352 448 q 415 465 398 463 q 430 459 418 465 q 408 422 430 459 q 398 404 402 413 q 395 393 395 395 q 352 380 378 376 q 302 384 330 380 q 243 389 274 389 q 191 386 203 383 q 142 383 178 389 q 112 376 130 380 q 83 370 94 372 q 70 365 78 368 q 50 361 61 361 q 3 355 11 352 q 3 368 0 357 q 23 399 9 380 q 45 426 37 418 q 61 437 52 437 q 74 437 66 437 q 87 439 81 437 q 103 438 94 439 q 119 437 111 437 q 148 436 134 437 q 176 435 161 435 q 259 434 218 433 q 345 446 300 435 z "},".":{"ha":206,"x_min":5,"x_max":146,"o":"m 63 85 q 18 113 37 85 q 11 152 5 130 q 33 202 13 167 q 100 218 56 230 q 146 182 146 210 q 146 151 146 167 q 137 124 146 135 q 115 108 125 107 q 94 94 105 109 q 63 85 85 85 z "},"/":{"ha":513,"x_min":13,"x_max":489,"o":"m 76 63 q 63 22 63 45 q 71 10 63 17 q 79 -5 78 3 q 66 -26 81 -26 q 50 -17 56 -26 q 41 -2 44 -7 q 16 22 16 3 q 20 52 13 30 q 39 91 28 74 q 48 117 46 107 q 56 135 50 126 q 64 155 61 142 q 72 178 66 167 q 107 262 85 220 q 152 342 130 304 q 174 382 154 347 q 195 420 195 418 q 190 424 195 422 q 185 431 185 426 l 185 435 q 210 486 185 439 q 241 543 235 533 q 267 599 254 570 q 294 656 279 628 q 319 711 311 689 q 345 768 337 748 q 353 800 347 774 q 363 829 353 811 q 373 861 367 839 q 380 895 380 884 q 370 941 380 918 q 374 950 367 943 q 385 958 381 958 q 439 961 401 954 q 457 968 448 961 q 469 976 467 976 q 480 973 472 976 q 489 965 489 970 q 474 938 489 954 q 454 917 459 922 q 418 867 429 895 q 406 837 411 848 q 399 821 400 828 q 395 806 398 813 q 391 788 393 800 q 387 770 389 776 q 382 752 383 760 q 380 735 381 745 q 358 669 370 698 q 337 608 347 641 q 315 545 328 574 q 289 487 302 515 q 262 427 277 465 q 231 374 246 389 q 200 320 209 350 q 172 264 189 289 q 161 254 167 256 q 150 244 155 252 q 141 231 144 239 q 135 216 137 222 q 120 187 127 205 q 109 157 113 168 q 89 93 98 113 q 76 63 85 81 z "},":":{"ha":155,"x_min":3,"x_max":148,"o":"m 64 485 q 20 511 37 485 q 13 552 7 528 q 35 600 14 572 q 102 618 57 628 q 148 580 148 606 q 148 550 148 565 q 138 524 148 535 q 117 508 127 507 q 96 492 107 509 q 64 485 89 485 m 62 146 q 16 174 35 146 q 9 213 3 193 q 33 261 13 233 q 100 279 52 291 q 144 243 144 271 q 144 212 144 228 q 137 185 144 196 q 114 169 123 168 q 92 154 105 170 q 62 146 85 146 z "},";":{"ha":159,"x_min":-11,"x_max":152,"o":"m 43 163 q 47 179 54 178 q 35 197 41 180 q 34 213 32 206 q 35 230 35 219 q 47 258 35 243 q 73 271 54 265 q 106 271 87 275 q 132 258 119 265 q 152 214 152 241 q 128 165 152 188 q 79 118 100 143 q 32 65 58 93 q 20 58 28 62 q -9 65 -9 41 q -1 100 -11 77 q 15 126 2 110 q 23 139 19 132 q 34 151 28 145 q 43 163 45 168 m 71 495 q 24 521 41 495 q 17 559 12 539 q 41 610 22 584 q 108 628 61 637 q 152 589 152 617 q 152 560 152 574 q 143 534 152 545 q 122 517 132 517 q 100 503 113 517 q 71 495 95 495 z "},"<":{"ha":336,"x_min":22,"x_max":321,"o":"m 22 476 q 50 505 22 487 q 90 535 77 522 q 132 562 118 563 q 172 580 146 561 q 185 595 179 585 q 199 616 192 606 q 214 632 209 628 q 231 646 220 635 q 242 663 237 654 q 259 684 248 672 q 278 694 260 684 q 300 705 296 705 l 301 705 q 309 698 309 705 q 290 671 309 691 q 266 643 272 652 q 248 612 257 626 q 231 583 238 598 q 203 551 214 555 q 181 535 192 547 q 165 504 170 522 q 146 476 161 485 q 177 434 161 446 q 222 382 194 422 q 245 348 231 359 q 279 326 259 337 q 303 302 285 320 q 321 278 321 283 l 321 269 l 314 269 q 272 287 303 269 q 229 311 240 306 q 188 332 196 328 q 157 361 179 337 q 129 394 135 383 q 88 416 123 406 q 50 444 77 420 q 22 476 22 467 z "},"=":{"ha":2500,"x_min":3,"x_max":2381,"o":"m 1152 794 q 1160 815 1152 809 q 1179 829 1168 822 q 1201 839 1185 831 q 1224 846 1217 846 l 1233 846 q 1266 819 1266 846 q 1256 794 1266 808 q 1240 776 1246 780 q 1215 767 1225 768 q 1190 758 1205 766 q 1152 794 1152 758 m 468 496 l 483 496 q 528 487 502 496 q 568 471 553 478 q 602 448 579 463 q 616 434 605 443 q 633 426 627 426 q 624 470 631 437 q 612 515 616 504 q 595 550 602 541 q 589 600 589 559 q 583 646 589 616 q 576 694 578 676 q 567 743 570 720 q 559 789 564 765 q 545 777 546 787 q 544 755 544 766 q 539 734 544 745 q 535 717 535 724 q 527 679 533 700 q 515 641 520 657 q 509 622 511 631 q 505 604 507 613 q 497 587 502 595 q 490 570 492 580 q 478 534 485 552 q 468 496 472 517 m 414 1034 q 427 1042 414 1041 q 444 1042 439 1042 q 465 1038 444 1042 q 490 1034 485 1034 q 528 1015 515 1029 q 573 996 551 991 q 612 991 594 1000 q 625 927 612 952 q 644 872 637 902 q 672 746 657 819 q 687 686 677 715 q 701 624 696 657 q 703 607 701 613 q 705 589 705 600 q 709 573 705 581 q 715 559 713 565 q 718 546 715 552 q 724 530 720 539 q 726 513 724 520 q 729 498 728 505 q 735 467 733 484 q 743 435 736 450 q 761 378 751 400 q 775 354 766 361 q 785 324 785 347 q 787 250 785 274 q 798 183 787 233 q 814 127 809 134 q 828 102 822 115 q 842 76 835 89 q 857 54 846 59 q 871 48 861 52 q 885 45 881 45 q 913 53 901 45 q 942 61 926 61 q 948 52 948 61 q 920 31 948 35 q 903 27 918 31 q 880 26 888 24 q 817 38 848 31 q 755 43 787 45 q 696 21 722 43 q 648 0 670 0 l 633 0 q 629 5 629 0 q 646 16 629 11 q 668 26 663 20 q 679 45 670 28 q 687 71 687 63 l 687 93 q 677 149 687 124 q 668 200 668 174 q 663 256 668 228 q 653 307 657 283 q 641 359 648 332 q 618 398 635 387 q 573 414 607 404 q 520 424 538 424 l 507 424 q 484 420 494 424 q 463 415 474 416 q 449 404 452 413 q 440 387 446 395 q 426 352 435 370 q 411 317 416 334 q 399 278 407 307 q 393 258 398 267 q 385 243 389 250 q 372 203 378 222 q 361 165 366 183 q 320 104 344 127 q 305 91 311 94 q 292 81 300 87 q 277 71 281 76 q 264 59 272 65 q 197 25 241 43 q 115 7 153 7 l 96 7 q 43 22 68 7 q 13 58 18 37 q 8 116 3 79 q 41 152 13 152 q 41 152 41 152 q 44 152 42 152 q 70 127 66 152 q 60 132 68 122 q 42 142 52 142 q 29 124 29 142 q 42 66 29 98 q 70 37 50 37 l 89 37 q 122 41 98 37 q 151 50 146 45 q 171 65 157 52 q 193 83 185 78 q 227 126 207 96 q 239 151 237 142 q 246 182 241 159 q 259 204 248 193 q 275 228 270 215 q 298 281 285 256 q 324 330 309 302 q 344 385 338 357 l 331 385 q 247 418 289 385 q 203 487 205 450 q 211 487 203 487 q 230 460 216 481 q 272 439 244 439 l 277 439 q 315 445 300 439 q 346 461 330 452 q 362 468 350 461 q 376 478 374 474 q 381 494 376 478 q 387 511 387 509 q 398 545 391 526 q 411 580 406 563 q 425 610 416 596 q 440 641 433 624 q 452 676 446 654 q 454 694 454 687 q 459 713 454 702 q 475 740 468 730 q 490 772 483 750 q 514 843 498 793 q 530 915 530 892 q 524 943 530 928 q 520 954 520 948 q 520 966 520 959 q 508 984 515 978 q 496 1000 502 991 q 460 1022 475 1017 q 433 1025 452 1026 q 414 1034 414 1024 m 1922 705 q 1947 709 1933 705 q 1972 713 1961 713 q 1998 713 1983 713 q 2026 715 2013 713 q 2075 721 2049 715 q 2124 728 2100 728 q 2226 737 2166 730 q 2266 752 2255 745 q 2280 770 2277 760 q 2294 780 2283 780 l 2298 780 q 2303 768 2303 780 q 2287 745 2303 758 q 2264 724 2272 733 q 2248 698 2259 715 q 2231 676 2237 682 q 2168 654 2209 654 q 2127 655 2146 654 q 2089 656 2109 656 q 2072 654 2079 656 q 2053 652 2064 652 q 2033 652 2042 652 q 2015 652 2024 652 q 1996 631 1998 652 q 1992 591 1992 618 l 2000 478 l 2000 443 l 1998 426 l 2003 426 q 2061 452 2033 426 q 2129 478 2089 478 q 2162 460 2159 478 q 2176 426 2165 443 q 2196 352 2193 396 q 2190 348 2196 345 q 2176 379 2174 354 q 2155 404 2178 404 l 2144 404 q 2106 394 2129 404 q 2070 382 2083 385 q 2051 375 2061 378 q 2033 370 2041 372 q 2014 362 2024 367 q 2000 355 2005 357 l 2000 296 q 2001 263 2000 271 q 2007 247 2003 254 q 2011 233 2011 241 l 2011 216 l 2007 183 l 2007 178 q 2013 172 2007 172 q 2047 186 2029 172 q 2092 200 2064 200 q 2146 189 2120 200 q 2170 179 2165 178 q 2200 176 2176 180 q 2250 158 2224 170 q 2300 146 2276 146 l 2309 146 q 2341 164 2325 146 q 2357 198 2357 182 q 2355 216 2357 211 q 2353 230 2353 220 q 2359 243 2353 243 q 2374 221 2366 243 q 2381 195 2381 200 q 2365 163 2381 180 q 2344 135 2353 152 q 2326 105 2338 124 q 2303 85 2315 85 q 2228 94 2266 85 q 2209 96 2218 94 q 2193 100 2200 98 q 2161 109 2170 107 q 2100 129 2125 119 q 2026 139 2074 139 l 2011 139 q 1965 134 1992 139 q 1925 126 1937 130 q 1906 118 1917 122 q 1889 113 1896 113 q 1875 111 1877 111 q 1866 109 1874 111 q 1848 102 1855 102 q 1839 119 1839 102 l 1839 124 q 1860 131 1839 134 q 1896 139 1881 127 q 1917 187 1917 155 q 1919 254 1917 220 q 1922 322 1922 287 l 1922 376 l 1914 433 l 1917 441 q 1918 457 1917 450 q 1920 474 1920 463 l 1920 487 q 1917 518 1920 504 q 1917 548 1914 532 q 1915 583 1917 565 q 1917 616 1914 600 q 1907 674 1917 646 q 1890 692 1902 692 q 1872 705 1879 691 q 1891 713 1877 713 q 1904 709 1898 713 q 1922 705 1911 705 m 805 755 q 843 758 822 755 q 881 761 865 760 q 916 768 896 763 q 949 774 935 774 q 994 771 962 774 q 1025 760 1025 768 q 1011 751 1018 748 q 994 753 1005 753 q 955 715 961 753 q 949 650 949 677 q 954 616 949 637 q 962 585 959 596 q 965 551 966 567 q 964 515 964 535 q 966 471 964 498 q 970 430 968 444 q 976 387 974 409 q 981 347 977 365 q 985 254 981 326 q 1002 182 989 182 q 1021 189 1009 182 q 1052 196 1033 196 l 1070 196 q 1135 185 1100 196 q 1198 168 1170 174 q 1259 150 1220 163 q 1320 137 1298 137 l 1344 137 q 1400 149 1372 137 q 1428 191 1428 161 q 1418 205 1428 200 q 1415 218 1409 210 q 1446 170 1446 215 q 1428 127 1446 155 q 1402 96 1418 106 q 1359 81 1394 91 q 1316 71 1324 71 l 1303 71 q 1272 78 1298 71 q 1240 87 1246 85 q 1177 104 1209 98 q 1109 117 1154 107 q 1042 127 1065 127 l 1020 127 q 950 110 977 127 q 903 93 924 93 q 898 98 898 93 q 903 107 898 104 q 909 124 909 111 l 909 144 q 903 169 909 144 q 898 200 898 193 q 892 259 892 224 q 890 385 892 317 q 880 507 888 454 q 874 570 873 535 q 872 633 876 606 q 862 690 866 657 q 840 733 857 722 q 795 736 822 733 q 768 755 768 739 q 777 760 768 760 l 783 760 q 793 758 789 760 q 805 755 798 755 m 1390 437 q 1414 572 1390 509 q 1468 680 1437 635 q 1526 743 1491 709 q 1537 752 1531 748 q 1548 761 1542 755 q 1598 789 1560 774 q 1664 804 1636 804 l 1670 804 q 1727 787 1699 804 q 1755 739 1755 770 l 1755 732 q 1738 707 1755 715 q 1711 700 1722 700 q 1704 702 1702 700 q 1719 721 1711 713 q 1727 753 1727 730 q 1714 767 1727 758 q 1694 776 1702 776 q 1596 743 1640 776 q 1567 706 1579 728 q 1548 663 1555 685 q 1538 640 1542 648 q 1529 615 1535 631 q 1521 589 1524 593 q 1511 568 1518 585 q 1493 519 1503 553 q 1483 465 1483 485 q 1489 410 1483 444 q 1498 359 1494 376 q 1512 313 1503 335 q 1529 271 1520 291 q 1550 234 1535 250 q 1581 203 1565 218 q 1609 170 1590 193 q 1644 148 1628 148 l 1655 148 q 1717 165 1683 148 q 1768 196 1752 182 q 1811 233 1785 210 q 1836 286 1836 256 l 1836 302 q 1834 309 1836 307 q 1831 319 1831 311 q 1836 328 1831 328 q 1859 295 1848 328 q 1870 248 1870 263 l 1870 243 q 1861 211 1870 228 q 1846 189 1851 195 q 1820 174 1843 185 q 1809 165 1813 168 q 1798 157 1805 161 q 1742 131 1781 148 q 1685 113 1704 113 l 1676 113 q 1615 126 1643 113 q 1588 135 1603 130 q 1560 146 1572 141 q 1481 213 1514 170 q 1447 254 1461 235 q 1420 300 1433 272 q 1408 327 1416 307 q 1400 354 1400 347 q 1391 393 1392 378 q 1390 437 1390 409 m 1105 709 q 1123 712 1105 717 q 1146 707 1141 707 q 1167 703 1157 704 q 1190 700 1177 702 q 1242 698 1202 698 q 1283 687 1283 698 q 1274 682 1283 682 l 1248 685 q 1240 670 1242 685 q 1237 650 1237 656 l 1237 591 q 1239 509 1237 548 q 1242 431 1240 471 q 1244 393 1242 420 q 1248 355 1246 365 q 1252 317 1250 342 q 1253 281 1253 292 q 1273 273 1265 272 q 1299 274 1281 274 q 1303 263 1320 274 q 1285 257 1296 258 q 1263 256 1274 256 q 1237 252 1251 254 q 1213 250 1222 250 q 1188 245 1207 248 q 1164 243 1170 243 q 1139 236 1149 241 q 1122 231 1128 231 q 1111 235 1111 231 q 1134 249 1111 246 q 1157 269 1157 252 q 1156 396 1157 334 q 1155 526 1155 459 q 1156 555 1155 539 q 1154 581 1157 570 q 1142 629 1142 611 q 1143 659 1142 641 q 1139 685 1144 676 q 1119 699 1133 698 q 1105 709 1105 700 z "},">":{"ha":336,"x_min":22,"x_max":321,"o":"m 321 476 q 294 444 321 467 q 257 416 266 420 q 215 394 220 406 q 189 361 211 383 q 154 332 163 337 q 115 311 146 328 q 71 287 103 306 q 31 269 39 269 l 22 269 l 22 278 q 40 302 22 283 q 66 326 59 320 q 98 348 83 337 q 123 382 113 359 q 165 434 149 422 q 197 476 181 446 q 178 504 183 485 q 163 535 174 522 q 139 551 151 547 q 115 583 127 555 q 95 612 103 598 q 77 643 87 626 q 53 671 72 652 q 35 698 35 691 q 42 705 35 705 l 45 705 q 63 694 45 705 q 85 684 81 684 q 100 663 96 672 q 115 646 105 654 q 128 632 123 635 q 144 616 133 628 q 156 595 149 606 q 174 580 163 585 q 211 562 197 561 q 253 535 225 563 q 293 505 264 522 q 321 476 321 487 z "},"?":{"ha":570,"x_min":5,"x_max":545,"o":"m 5 770 q 19 806 5 774 q 37 850 33 839 q 47 891 48 885 q 76 920 46 898 q 106 943 91 932 q 135 970 122 954 q 159 1001 140 980 q 191 1022 178 1022 q 220 1013 201 1022 q 254 996 239 1004 q 311 970 270 985 q 343 959 330 963 q 383 956 357 956 q 439 928 428 956 q 463 863 444 911 q 489 804 481 814 q 523 742 505 778 q 543 685 541 705 q 535 648 545 667 q 520 616 526 629 q 505 584 511 600 q 494 552 500 568 q 463 494 479 519 q 404 463 444 471 q 336 440 359 454 q 283 404 313 426 q 237 359 254 382 q 219 330 229 350 q 209 296 209 309 q 216 237 209 258 q 223 219 216 231 q 229 196 229 208 q 211 189 229 193 q 187 183 193 185 q 170 171 180 180 q 153 163 159 163 q 136 184 146 163 q 127 216 125 205 q 140 247 127 226 q 159 283 152 269 q 171 318 165 298 q 181 354 178 337 q 198 430 187 393 q 203 469 201 446 q 216 502 205 491 q 338 570 244 528 q 431 656 431 613 l 431 676 q 420 723 431 694 q 406 774 409 752 q 394 824 398 811 q 363 857 391 837 q 324 880 342 869 q 277 897 305 890 q 236 901 257 898 q 198 911 215 904 q 172 920 181 920 q 156 910 167 920 q 139 897 144 900 q 121 885 130 890 q 105 874 113 880 q 74 791 74 852 q 117 729 74 766 q 181 692 161 692 l 195 692 q 237 741 248 692 q 252 789 226 789 q 262 773 261 789 q 263 748 263 758 q 264 724 263 732 q 257 704 264 717 q 230 677 252 694 q 200 659 208 659 q 186 662 191 659 q 172 665 181 665 q 142 661 161 665 q 119 659 124 657 q 91 682 107 659 q 64 713 74 704 q 34 728 54 718 q 9 750 15 737 q 5 770 5 758 m 241 18 q 180 -3 211 -3 q 136 18 155 -3 q 117 61 117 39 q 131 84 117 72 q 153 102 144 96 q 176 118 172 102 q 200 134 180 134 q 220 125 209 134 q 241 111 231 117 q 267 72 267 96 q 241 18 267 39 z "},"@":{"ha":839,"x_min":18,"x_max":814,"o":"m 742 750 q 798 621 777 692 q 806 550 798 609 q 805 417 814 491 q 791 380 800 403 q 758 332 781 357 q 718 306 742 315 q 694 292 694 296 q 674 284 691 290 q 654 278 656 278 l 622 276 q 583 285 592 276 q 553 312 562 301 q 525 317 545 322 q 505 302 513 309 q 490 290 497 296 q 455 262 481 281 q 416 243 430 243 l 383 243 q 302 286 337 243 q 268 373 268 329 q 278 416 268 403 q 302 447 288 429 q 367 489 316 466 q 434 523 393 498 q 483 579 476 549 q 478 602 485 593 q 453 626 467 612 q 434 644 439 640 q 344 667 395 667 q 316 644 330 667 q 302 609 302 621 q 312 593 302 595 q 328 581 321 591 q 324 570 328 579 q 307 563 321 561 q 260 602 260 563 q 302 671 260 628 q 372 713 344 713 q 429 697 393 713 q 488 669 465 681 q 529 644 504 660 q 585 628 555 628 q 604 591 604 625 q 590 514 604 547 q 576 442 576 482 q 601 348 576 394 q 622 335 608 332 q 645 338 635 338 q 716 379 686 352 q 747 454 747 406 q 749 490 747 461 q 749 526 751 519 l 726 635 q 585 799 699 755 q 439 831 471 843 q 375 828 416 825 q 314 820 335 831 q 189 709 242 783 q 158 643 178 695 q 131 576 138 591 l 113 498 q 108 399 83 438 q 152 315 134 359 q 198 257 154 309 q 237 202 226 222 q 270 170 249 181 q 329 152 284 162 q 395 144 374 142 q 446 141 418 144 q 499 142 473 139 q 549 135 529 142 q 594 144 568 127 q 650 181 629 162 q 685 204 686 206 q 738 245 684 201 q 741 254 740 248 q 747 262 742 260 q 749 222 763 257 q 742 201 738 199 l 686 135 q 656 129 673 127 q 624 121 640 130 q 538 83 585 98 q 345 79 434 56 q 201 153 256 102 q 131 224 173 176 q 80 299 90 271 q 62 337 66 327 q 55 382 57 348 q 46 405 47 403 q 43 431 45 408 q 29 477 41 450 q 22 519 18 505 q 32 545 24 526 q 43 572 39 565 q 51 600 47 586 q 62 628 55 614 l 106 718 q 170 805 142 776 q 260 876 198 833 q 310 896 281 889 q 367 910 339 903 q 488 899 409 920 q 622 854 566 878 q 650 854 622 854 q 670 836 661 848 q 691 817 680 825 q 715 784 701 799 q 742 750 730 769 m 499 368 q 509 429 506 385 q 513 496 513 473 q 494 517 513 517 q 465 510 476 517 q 439 496 453 503 q 404 461 427 489 q 376 352 376 415 q 409 315 376 315 q 462 334 434 315 q 485 348 481 340 q 499 368 490 355 z "},"A":{"ha":848,"x_min":-77,"x_max":945,"o":"m 572 418 q 549 511 567 465 q 528 608 532 557 q 505 705 524 631 q 486 811 486 778 q 462 753 475 808 q 443 682 449 698 q 427 624 434 659 q 415 580 419 589 q 407 563 412 570 q 401 550 402 555 q 389 516 395 537 q 382 484 384 494 q 401 468 376 465 q 449 469 427 472 q 518 450 506 456 q 572 418 530 444 m 121 471 q 117 448 117 452 q 134 422 117 422 q 204 438 151 422 q 275 459 258 454 q 303 516 290 463 q 323 587 317 568 q 360 731 334 626 q 387 878 387 837 q 377 913 387 889 q 363 945 367 937 q 330 959 351 963 q 298 972 310 956 q 310 980 295 980 q 389 964 349 980 q 478 948 430 948 q 519 945 497 948 q 569 943 541 943 q 615 940 584 943 q 658 933 647 937 q 660 926 663 930 q 650 922 656 922 q 635 922 643 922 q 621 922 627 922 q 596 910 606 922 q 586 890 586 898 q 608 783 597 837 q 635 680 619 730 q 651 608 640 661 q 671 513 663 555 q 684 453 676 479 q 703 395 691 426 q 725 297 713 350 q 741 218 736 244 q 756 158 747 191 q 782 109 765 126 q 825 76 793 98 q 878 54 858 54 q 906 60 888 54 q 941 63 924 66 q 941 42 945 59 q 926 30 937 26 q 839 39 882 30 q 749 54 797 48 q 676 55 691 58 q 615 45 662 52 q 602 42 608 43 q 591 41 597 41 q 571 31 587 39 q 554 31 554 22 q 584 56 558 48 q 628 68 610 63 q 643 81 643 71 q 635 137 643 109 q 623 187 628 165 q 612 239 617 211 q 602 292 608 267 q 590 340 591 332 q 562 376 589 348 q 518 397 549 387 q 465 408 488 408 q 422 408 430 408 q 380 402 414 408 q 353 382 361 396 q 311 282 325 326 q 269 182 297 237 q 234 119 258 159 q 195 65 210 79 q 143 20 178 48 q 80 -7 108 -7 l 50 -7 q -33 13 12 -7 q -77 72 -77 33 q -55 116 -77 98 q -7 134 -33 134 q 14 120 4 134 q 28 100 24 106 q 9 103 17 100 q -9 107 2 107 q -54 68 -54 107 q -30 44 -54 46 q 6 43 -5 43 q 89 81 52 43 q 154 176 126 120 q 204 289 182 231 q 243 383 227 347 q 198 378 214 382 q 153 382 182 374 q 118 399 136 385 q 100 435 100 413 q 117 474 100 450 q 121 471 121 474 z "},"B":{"ha":685,"x_min":-109,"x_max":669,"o":"m 302 278 q 275 183 289 233 q 256 87 261 134 q 277 93 263 87 q 300 104 291 100 q 345 120 330 113 q 389 148 385 148 q 437 195 393 148 q 468 234 458 213 q 491 279 478 256 q 501 301 492 286 q 509 324 509 317 q 508 351 509 335 q 502 374 507 367 q 478 408 481 398 q 425 456 461 441 q 367 472 389 472 q 316 466 319 472 q 313 431 313 459 q 311 391 313 409 q 309 352 309 372 q 308 311 309 324 q 302 278 307 298 m 307 897 q 296 865 296 890 q 302 824 296 839 q 306 785 306 806 q 309 745 306 763 q 311 705 311 728 q 304 628 311 672 q 301 581 302 618 q 309 543 300 543 q 340 546 326 543 q 370 550 354 550 q 397 562 383 550 q 422 583 411 574 q 475 634 461 611 q 522 691 489 657 q 546 744 539 707 q 545 806 552 781 q 525 860 535 831 q 481 895 515 889 q 394 913 431 911 q 307 897 357 915 m 9 922 q 18 943 9 943 q 34 936 30 943 q 48 924 37 930 q 96 918 63 915 q 146 922 130 920 q 194 932 169 924 q 243 946 218 941 q 280 957 261 950 q 322 966 300 963 q 385 969 352 970 q 448 968 417 968 q 502 958 479 968 q 554 937 524 948 q 578 922 568 932 q 598 902 587 913 q 635 856 616 884 q 663 787 663 813 q 657 766 663 772 q 646 748 650 760 q 635 718 643 733 q 611 679 623 696 q 585 644 600 661 q 547 598 567 623 q 509 555 528 574 q 494 540 506 552 q 481 528 481 528 q 503 506 481 520 q 530 485 524 491 q 582 446 545 469 q 626 402 602 430 q 649 376 630 395 q 669 352 669 357 q 648 317 669 328 q 618 292 631 306 q 589 267 606 278 q 548 226 565 250 q 507 185 532 202 q 492 171 494 174 q 479 159 489 168 q 464 145 472 152 q 450 134 456 139 q 418 108 433 117 q 385 89 402 100 q 348 72 374 81 q 307 58 321 63 q 271 41 278 43 q 228 28 248 33 q 189 13 208 22 q 151 -1 172 7 q 115 -11 130 -9 q 76 -18 94 -13 q 37 -24 58 -24 q 3 -26 18 -24 q -31 -28 -13 -28 q -52 -19 -35 -28 q -74 -9 -68 -11 q -94 3 -79 -3 q -109 15 -109 9 l -109 18 q -99 25 -109 24 q -83 26 -89 26 q -62 14 -68 26 q -39 3 -56 2 q 22 6 -11 3 q 83 22 56 9 q 100 32 85 22 q 121 41 115 41 q 138 48 126 43 q 154 61 150 54 q 157 83 155 71 q 161 107 159 96 q 161 133 161 120 q 165 159 161 146 q 176 256 176 211 q 178 279 176 267 q 180 307 180 291 q 184 382 180 345 q 189 459 189 420 q 190 483 189 472 q 191 511 191 494 q 187 593 191 552 q 183 676 183 633 q 188 699 183 691 q 193 722 193 707 q 191 747 193 739 q 189 770 189 755 q 184 794 187 781 q 182 819 182 808 q 181 843 180 829 q 183 870 183 857 q 163 871 178 876 q 139 867 149 867 q 82 875 107 869 q 30 898 58 882 q 9 922 9 913 z "},"C":{"ha":744,"x_min":-3,"x_max":719,"o":"m 450 755 q 452 742 467 755 q 427 711 437 728 q 425 674 420 702 q 447 654 427 661 q 469 650 456 648 q 496 654 481 652 q 515 662 509 654 q 530 676 521 671 q 550 700 537 680 q 567 726 564 720 q 559 765 567 733 q 537 799 552 783 q 513 826 523 814 q 454 857 491 848 q 406 850 433 859 q 347 829 378 841 q 294 803 315 819 q 250 765 273 787 q 196 673 228 743 q 156 576 165 604 q 146 477 144 547 q 154 370 149 408 q 176 278 158 332 q 212 196 195 224 q 280 133 228 167 q 363 85 332 98 q 414 75 391 72 q 475 78 437 78 q 544 93 509 78 q 606 124 578 107 q 644 175 633 141 q 663 237 654 210 q 656 304 674 279 q 665 334 637 330 q 681 322 678 335 q 694 287 684 309 q 708 222 708 252 q 712 189 708 208 q 717 155 717 170 q 661 98 719 104 q 595 61 633 94 q 478 5 556 28 q 424 2 448 -2 q 384 5 399 5 q 322 22 369 5 q 243 56 275 39 q 166 116 212 72 q 121 159 121 159 q 73 226 121 159 q 14 309 24 292 q 0 412 -3 337 q 19 578 4 487 q 51 700 34 677 q 85 750 68 722 q 147 803 102 778 q 199 828 191 828 q 248 849 208 828 q 333 894 288 870 q 420 935 378 918 q 476 945 461 952 q 511 909 489 937 q 545 865 534 882 q 611 728 617 753 q 552 648 604 702 q 520 629 545 639 q 489 616 496 618 q 439 618 473 613 q 419 633 428 618 q 406 650 415 637 q 397 672 397 663 q 399 715 391 696 q 420 739 400 722 q 450 755 439 755 z "},"D":{"ha":796,"x_min":-54,"x_max":774,"o":"m 319 846 l 319 643 q 320 624 319 631 q 322 611 322 616 q 321 591 322 600 q 321 576 321 581 q 319 505 321 528 q 315 473 317 494 q 309 443 313 452 q 303 412 307 435 q 298 382 298 389 q 297 347 298 372 q 296 315 296 322 q 294 280 293 298 q 294 244 294 261 q 294 209 293 228 q 293 176 294 189 q 294 142 287 150 q 315 126 300 134 q 386 152 349 134 q 448 189 422 170 q 471 211 458 196 q 494 237 484 226 q 520 261 506 246 q 543 287 535 276 q 554 301 547 292 q 565 315 562 309 q 570 331 567 320 q 576 352 572 342 q 586 392 582 370 q 595 431 589 413 q 598 450 596 439 q 604 472 600 461 q 613 511 606 485 q 623 551 615 528 q 630 593 630 574 l 630 602 q 611 642 630 616 q 593 682 593 667 q 583 730 587 709 q 565 772 578 750 q 552 787 555 783 q 537 802 548 791 q 509 833 519 824 q 495 846 502 839 q 478 859 489 854 q 455 867 471 861 q 431 872 439 872 l 413 872 q 387 868 402 872 q 361 865 372 865 q 339 857 347 861 q 328 850 334 854 q 319 846 322 846 m 15 941 q 20 950 9 950 q 35 948 30 950 q 60 928 41 945 q 106 915 78 915 q 155 906 130 915 q 208 898 180 898 q 263 905 235 898 q 319 918 291 913 q 365 933 337 922 q 413 948 393 945 q 438 952 425 948 q 465 956 452 956 q 487 948 476 956 q 506 935 498 941 q 522 921 513 930 q 539 907 530 913 q 593 868 567 887 q 648 833 618 850 q 685 807 671 819 q 709 772 699 796 q 726 732 717 750 q 745 687 735 715 q 762 639 750 676 q 774 591 774 602 q 771 546 774 568 q 763 502 767 524 q 752 469 761 489 q 737 439 743 448 q 702 383 720 411 q 667 328 684 355 q 648 300 658 313 q 631 274 639 287 q 592 223 617 244 q 545 182 567 202 q 520 158 532 170 q 498 137 509 146 q 446 96 471 115 q 393 63 420 78 q 326 41 355 46 q 283 35 309 35 q 241 33 258 35 q 201 28 222 30 q 161 24 180 26 q 24 -17 81 11 q -9 -31 13 -20 q -43 -41 -31 -41 q -54 -35 -54 -41 q -41 -25 -54 -30 q -22 -18 -28 -20 q -4 -7 -9 -11 q 7 2 0 -3 q 36 22 20 9 q 68 41 52 35 q 139 72 98 54 q 152 83 152 78 q 157 106 152 89 q 171 171 167 139 q 178 239 174 202 q 182 285 178 261 q 187 332 187 309 q 195 425 187 380 q 202 520 202 471 q 201 576 202 548 q 200 631 200 604 q 195 664 200 646 q 193 696 191 682 l 197 726 q 187 763 197 743 q 174 804 178 783 q 170 826 170 813 q 167 846 169 839 q 134 862 161 861 q 93 874 106 863 q 63 895 80 882 q 36 914 52 900 q 15 941 20 928 z "},"E":{"ha":796,"x_min":0,"x_max":765,"o":"m 248 119 q 299 137 276 119 q 350 155 322 155 l 367 155 q 402 149 378 155 q 435 137 426 142 q 468 125 457 124 q 505 120 479 126 q 541 111 530 115 q 574 100 552 107 q 617 83 606 87 q 661 79 629 79 q 708 103 684 79 q 732 150 732 127 q 725 193 732 170 q 737 215 718 215 q 755 185 745 215 q 765 146 765 155 q 745 105 765 122 q 713 65 724 89 q 689 21 705 48 q 654 -5 672 -5 q 549 4 598 -5 q 456 28 500 13 q 367 54 406 39 q 264 68 328 68 q 192 63 216 68 q 132 52 168 58 q 104 43 117 48 q 78 33 91 37 q 46 28 46 28 q 21 18 39 26 q 0 31 3 9 q 9 55 0 54 q 45 56 18 56 q 85 72 68 56 q 106 107 102 89 q 113 157 111 126 q 119 378 119 269 q 114 434 119 398 q 109 492 109 471 q 111 520 107 502 q 117 550 115 539 q 113 599 117 572 q 109 648 109 626 q 108 737 109 682 q 98 822 107 793 q 73 849 87 850 q 48 865 59 848 q 66 878 39 878 q 97 870 96 878 q 183 876 98 863 q 258 880 210 880 q 328 887 291 880 q 396 898 365 895 q 468 904 430 902 q 539 911 505 905 q 598 930 576 917 q 622 954 615 937 q 637 972 628 970 q 656 961 654 972 q 639 930 657 941 q 594 884 613 913 q 559 833 576 856 q 477 795 532 793 q 361 798 422 798 q 332 794 345 798 q 309 789 320 791 q 281 788 298 785 q 250 791 263 791 q 226 785 228 791 q 222 763 224 780 q 222 599 211 691 q 224 472 233 507 q 314 510 276 472 q 406 548 352 548 l 418 548 q 457 520 452 548 q 478 471 463 492 q 494 422 485 454 q 505 365 504 391 q 500 361 505 361 q 477 404 472 367 q 439 441 481 441 q 324 409 418 441 q 230 370 230 378 l 230 267 q 238 226 230 241 q 246 200 246 211 q 242 161 246 178 q 239 122 239 144 q 248 119 239 119 z "},"F":{"ha":711,"x_min":5,"x_max":683,"o":"m 413 913 q 485 920 457 913 q 555 928 530 928 q 598 935 589 928 q 609 947 604 941 q 624 959 614 954 q 652 985 637 968 q 662 1000 655 991 q 677 1009 669 1009 q 682 1000 682 1009 q 671 971 682 994 q 659 943 661 948 q 652 928 655 935 q 648 915 650 920 q 640 882 642 898 q 633 850 637 867 q 617 804 628 837 q 594 770 606 770 q 580 785 580 770 q 581 813 581 794 q 563 835 578 828 q 537 848 548 842 q 507 859 530 850 q 484 869 484 869 q 439 861 461 869 q 394 854 416 854 q 372 836 372 854 q 377 754 372 791 q 374 671 381 717 q 371 644 372 665 q 370 616 370 623 q 372 583 370 602 q 383 559 374 565 q 422 566 408 559 q 459 580 437 572 q 516 589 487 587 q 576 591 546 591 q 606 582 596 591 q 635 567 616 572 q 665 556 646 561 q 683 533 683 552 q 679 518 683 528 q 674 502 674 509 q 665 471 669 479 q 648 446 663 465 q 628 424 633 424 q 620 440 621 424 q 616 465 618 457 q 591 492 613 472 q 541 505 557 500 q 518 514 532 507 q 494 520 504 520 q 459 519 470 520 q 426 509 442 515 q 393 500 409 504 q 380 478 381 485 q 380 452 380 472 q 378 420 376 435 q 380 389 380 406 q 376 367 380 378 q 374 345 372 355 q 376 316 374 330 q 378 291 378 302 q 370 232 374 261 q 365 176 366 203 l 365 167 q 369 135 365 144 q 381 115 372 126 q 402 96 398 93 q 428 93 406 100 q 456 85 442 85 q 484 78 477 81 q 492 68 487 74 q 502 63 496 63 q 520 48 520 50 q 504 39 520 39 q 465 47 481 41 q 422 52 448 54 q 404 50 422 52 q 381 48 385 48 q 342 45 355 45 q 263 35 287 45 q 247 27 256 31 q 233 20 239 22 q 217 11 218 11 q 200 11 216 11 q 181 7 193 11 q 165 3 170 3 q 142 3 165 3 q 124 0 127 0 q 109 11 109 0 q 137 22 109 22 q 167 28 144 22 q 191 37 189 35 q 209 56 193 39 q 229 76 215 61 q 244 104 243 91 q 250 133 246 115 q 254 167 254 152 q 256 197 254 178 q 263 231 259 216 q 267 262 263 243 q 272 294 270 281 q 271 329 272 317 q 276 361 270 340 q 283 389 279 376 q 291 420 287 402 q 285 552 298 474 q 280 584 281 568 q 276 616 279 600 q 268 643 274 628 q 259 671 261 657 q 243 728 248 698 q 233 789 239 758 q 221 812 231 794 q 208 836 211 829 q 161 856 183 857 q 111 850 139 854 q 72 837 79 841 q 41 819 48 824 q 7 802 18 802 q 5 808 5 802 q 15 837 5 829 q 39 856 24 844 q 60 874 56 867 q 87 892 64 882 q 135 907 105 902 q 187 918 165 913 q 206 917 196 918 q 224 915 216 915 q 270 916 248 915 q 320 917 292 917 q 365 914 342 915 q 413 913 387 913 z "},"G":{"ha":812,"x_min":14,"x_max":803,"o":"m 159 437 q 176 311 155 361 q 199 262 184 281 q 231 220 214 243 q 251 172 248 193 q 285 130 255 152 q 343 93 318 102 q 412 83 368 83 q 473 93 437 81 q 534 115 509 104 q 553 123 541 117 q 572 130 566 130 q 577 176 574 152 q 583 222 581 200 q 581 285 583 250 q 575 345 579 320 q 564 367 570 363 q 483 389 529 385 q 435 374 460 389 q 415 361 425 368 q 394 354 405 354 q 372 368 372 354 q 392 394 372 378 q 423 415 412 411 q 437 418 429 415 q 450 422 444 420 q 494 442 465 430 q 547 454 524 454 l 614 448 q 664 454 642 448 q 687 457 675 454 q 711 461 699 461 q 735 462 720 461 q 757 469 751 463 q 771 481 762 472 q 790 491 781 491 q 803 471 803 491 q 787 436 803 454 q 762 413 772 418 q 744 406 753 406 q 726 402 734 406 q 707 393 716 398 q 692 387 698 387 q 692 354 692 370 q 692 322 692 337 q 690 240 692 300 q 705 170 688 180 q 722 154 722 161 q 684 120 720 142 q 637 89 648 98 q 620 81 631 83 q 603 74 609 78 q 569 57 585 66 q 538 41 553 48 q 508 21 522 30 q 466 13 494 13 q 408 17 437 13 q 351 26 379 20 q 304 33 323 31 q 264 48 285 35 q 200 95 227 71 q 144 146 174 119 q 62 226 100 180 q 47 252 52 239 q 37 279 42 264 q 21 307 27 294 q 14 339 14 320 q 19 390 14 365 q 24 441 24 415 q 22 502 25 461 q 16 535 18 519 q 16 572 14 552 q 26 618 16 593 q 44 657 37 643 q 90 726 66 696 q 114 756 103 741 q 138 789 125 772 q 166 818 146 800 q 201 841 186 836 q 238 859 218 846 q 275 876 258 872 q 320 887 305 880 q 370 905 342 898 q 423 920 397 913 q 466 933 442 926 q 490 935 477 935 q 516 939 503 935 q 541 943 531 943 q 568 929 559 941 q 594 913 577 917 q 614 900 614 907 q 635 856 629 889 q 640 804 640 822 q 638 774 640 793 q 635 746 637 755 q 623 726 627 732 q 559 663 607 684 q 535 656 553 659 q 507 654 516 654 l 488 654 q 458 666 471 654 q 435 687 446 677 q 403 700 418 698 q 390 732 389 702 q 403 747 390 741 q 427 753 416 753 q 447 741 444 752 q 460 722 450 730 q 480 710 463 718 q 505 702 498 702 q 546 723 526 700 q 568 766 566 746 q 555 817 568 791 q 522 844 542 833 q 503 856 511 848 q 488 869 496 863 q 438 882 471 882 q 377 854 405 878 q 321 821 355 831 q 272 780 292 809 q 240 724 252 750 q 210 661 224 687 q 196 630 201 644 q 184 596 190 616 q 159 437 161 513 z "},"H":{"ha":812,"x_min":-41,"x_max":811,"o":"m 795 924 l 768 924 q 752 916 758 915 q 741 917 747 917 q 702 887 726 909 q 678 859 685 870 q 669 821 671 848 q 655 731 663 778 q 646 637 646 684 l 646 568 q 652 530 646 550 q 657 498 657 509 q 650 437 656 467 q 644 380 644 408 l 646 259 q 694 178 646 189 q 747 165 724 168 q 804 161 770 161 q 809 146 811 161 q 747 134 808 132 q 713 126 730 134 q 684 113 696 119 q 629 85 650 98 q 585 50 608 72 q 535 8 570 37 q 463 -46 500 -20 q 391 -81 402 -81 q 365 -78 372 -81 q 365 -65 354 -68 q 384 -56 372 -61 q 402 -52 396 -52 q 441 -31 428 -39 q 468 -4 452 -22 q 492 30 484 15 q 523 115 513 61 q 534 220 534 168 l 534 259 l 528 340 l 528 467 q 535 502 528 492 q 507 505 543 511 q 446 491 481 504 q 390 465 418 478 q 335 441 361 452 q 283 409 281 415 q 281 335 286 402 q 274 263 278 300 q 271 189 271 226 l 271 163 q 272 115 271 150 q 279 74 274 79 q 304 43 286 58 q 322 22 322 28 q 300 9 322 9 q 289 16 291 7 q 276 28 287 24 q 261 28 271 28 q 248 28 252 28 q 235 33 239 28 q 230 37 231 37 q 187 32 210 39 q 142 26 165 26 q 121 21 135 24 q 102 17 107 18 q 82 6 93 13 q 71 0 71 0 q 59 15 59 0 q 87 55 59 41 q 126 89 115 68 q 139 106 132 100 q 154 132 146 113 q 159 157 159 148 q 163 189 159 167 q 166 253 167 226 q 165 319 165 279 q 165 353 165 335 q 165 387 165 370 q 159 416 165 415 q 126 416 154 416 q 107 438 111 426 q 78 469 104 450 q 49 491 65 476 q 33 526 33 505 l 33 548 q 48 568 33 568 q 66 537 61 568 q 115 505 71 505 l 142 505 q 159 517 159 505 l 159 528 q 155 559 159 545 q 149 591 150 574 q 144 604 146 598 q 142 621 142 609 q 139 638 142 637 q 135 650 135 639 q 133 682 132 665 q 130 718 134 700 q 115 776 126 739 q 93 829 98 837 q 37 842 87 821 q -14 864 13 854 q -41 907 -41 874 q -30 918 -41 918 q 2 897 -11 918 q 56 876 15 876 q 110 868 87 876 q 165 859 134 859 q 180 859 172 859 q 195 859 187 859 q 257 861 226 859 q 306 872 289 863 q 317 891 309 878 q 332 904 324 904 q 339 897 339 904 q 339 891 339 892 q 339 887 339 889 q 323 859 339 869 q 294 844 307 850 q 259 832 272 833 q 246 804 246 831 l 246 739 q 251 712 246 732 q 258 685 256 692 q 259 654 259 669 q 263 626 259 639 q 269 568 269 598 q 276 511 269 537 l 283 511 q 330 519 313 511 q 368 533 347 528 q 410 544 391 539 q 458 552 430 548 q 479 555 469 552 q 500 561 489 557 q 528 561 513 563 q 545 570 543 559 q 548 620 548 591 q 550 672 548 650 q 553 722 550 700 q 555 772 555 745 q 539 844 555 811 q 508 864 528 863 q 489 882 489 865 q 500 892 489 887 q 569 898 535 892 q 637 909 604 904 q 704 930 669 915 q 772 946 739 946 l 774 946 q 782 945 780 946 q 789 945 783 945 q 795 924 800 928 z "},"I":{"ha":531,"x_min":-24,"x_max":619,"o":"m 108 876 q 210 893 154 876 q 302 924 265 909 q 325 930 319 928 q 354 933 332 933 q 410 939 391 933 q 467 957 430 943 q 504 963 504 970 q 473 947 498 958 q 437 933 447 937 q 380 895 412 918 q 351 872 363 882 q 334 842 339 863 q 326 802 328 822 q 319 763 323 781 q 304 677 311 732 q 296 589 296 623 q 295 544 296 565 q 293 498 293 522 q 291 452 293 467 q 283 437 289 443 q 278 418 278 431 q 282 367 278 409 q 291 274 286 324 q 302 179 296 224 q 311 119 308 134 q 339 94 328 102 q 386 60 356 83 q 428 26 415 37 q 489 -15 460 0 q 530 -24 511 -26 q 580 -22 549 -22 q 602 -22 585 -22 q 619 -33 619 -22 q 609 -40 619 -41 q 593 -39 599 -39 q 507 -35 537 -39 q 432 -11 476 -31 q 409 -5 419 -5 q 385 0 399 -5 q 347 25 365 11 q 310 50 328 39 q 259 60 298 56 q 202 65 219 65 q 138 58 158 65 q 90 52 117 52 q 38 36 50 50 q 2 22 26 22 q -9 28 0 22 q -24 35 -18 33 q -24 37 -24 35 q -24 39 -24 39 q 27 50 9 46 q 73 74 45 54 q 111 100 91 89 q 152 126 130 111 l 172 370 l 165 465 l 187 733 l 186 780 q 185 809 186 791 q 178 833 184 828 q 156 842 167 842 q 128 844 144 841 q 70 848 95 850 q 39 880 45 846 q 108 876 65 876 z "},"J":{"ha":650,"x_min":-33,"x_max":691,"o":"m 261 1024 l 261 1015 q 277 988 261 1007 q 298 965 293 968 q 335 945 315 952 q 367 937 355 939 q 384 934 378 935 q 397 933 389 933 q 411 931 404 932 q 428 930 418 930 q 443 926 437 928 q 456 924 448 924 q 470 920 461 922 q 486 917 479 917 q 509 918 509 917 q 535 922 509 918 q 578 936 557 926 q 621 946 598 946 q 638 942 631 946 q 654 939 644 939 q 679 934 667 933 q 689 928 691 935 q 659 914 680 913 q 618 913 637 915 q 604 904 613 911 q 589 898 595 898 q 572 892 583 897 q 562 882 562 887 q 564 845 562 870 q 567 809 567 821 l 559 753 l 559 665 l 567 535 l 567 481 q 561 431 567 454 q 550 389 555 409 q 545 367 548 378 q 541 345 541 355 q 536 320 539 332 q 532 298 534 309 q 523 252 526 276 q 511 211 520 228 q 506 201 507 205 q 502 193 504 196 q 494 172 498 189 q 478 135 491 159 q 455 103 465 117 q 430 74 445 89 q 400 47 415 59 q 374 22 385 35 q 358 10 369 18 q 342 0 347 2 q 311 -22 326 -7 q 297 -34 300 -30 q 279 -45 293 -39 q 260 -54 274 -46 q 241 -61 246 -61 q 203 -61 224 -61 q 165 -59 182 -61 q 149 -58 157 -58 q 135 -58 141 -58 q 120 -54 128 -56 q 106 -52 111 -52 q 94 -47 100 -50 q 81 -45 87 -45 q 30 -30 52 -37 q -9 -5 7 -22 q -31 35 -31 5 q -32 66 -31 52 q -33 98 -33 81 q 4 191 -28 148 q 30 227 24 216 q 65 259 35 237 q 105 285 76 269 q 150 307 135 302 q 173 316 161 311 q 200 315 185 320 q 215 295 217 306 q 222 272 213 283 q 235 250 228 261 q 235 228 243 239 q 227 218 230 220 q 220 210 224 215 q 217 195 217 203 q 211 187 217 187 q 204 196 204 187 q 208 211 204 205 q 220 235 220 224 q 214 254 220 248 q 202 269 208 259 q 187 281 198 269 q 176 294 176 294 q 155 284 165 294 q 139 269 144 274 q 106 237 126 246 q 63 215 89 230 q 37 180 37 200 q 50 96 37 130 q 60 65 56 81 q 76 37 65 48 q 97 17 81 28 q 124 2 113 5 q 156 -6 135 0 q 191 -13 178 -13 q 227 -16 220 -13 q 261 -7 233 -18 q 274 0 273 0 q 289 8 281 5 q 307 28 296 11 q 341 79 322 50 q 356 106 347 93 q 374 132 365 119 q 388 157 383 150 q 393 196 393 165 q 402 228 393 213 q 417 256 411 243 q 429 285 426 272 q 437 320 431 298 q 443 357 443 337 q 445 377 443 368 q 446 396 446 385 q 446 417 446 408 q 446 437 446 426 q 449 455 446 443 q 452 474 452 467 q 452 516 452 496 q 452 557 452 535 q 439 654 452 646 q 426 700 426 661 l 424 711 l 431 761 q 425 796 431 768 q 418 831 418 824 q 408 862 413 841 q 404 898 404 884 q 354 917 382 909 q 330 926 341 920 q 302 935 319 932 q 261 963 281 937 q 247 983 256 968 q 239 1009 239 998 l 239 1013 q 263 1039 239 1039 q 269 1035 269 1039 q 265 1029 269 1029 q 261 1024 261 1028 z "},"K":{"ha":926,"x_min":-18,"x_max":987,"o":"m 258 867 q 267 856 258 857 q 272 831 271 854 q 274 804 273 809 q 280 700 280 750 q 282 671 280 685 q 283 646 283 657 q 291 601 283 621 q 298 553 298 581 q 299 506 298 526 q 294 450 300 485 q 313 468 302 456 q 332 489 324 479 q 381 552 357 515 q 420 623 404 589 q 475 716 439 661 q 511 826 511 770 q 480 856 511 850 q 450 856 469 856 q 432 869 432 856 q 450 885 432 885 l 498 885 q 522 881 509 885 q 543 878 535 878 q 573 885 559 878 q 602 900 587 892 q 655 923 625 911 q 713 937 686 935 q 747 939 735 937 q 767 941 758 939 q 787 943 776 943 q 814 930 798 943 q 830 904 830 918 q 817 890 830 890 q 802 897 808 890 q 785 904 796 904 q 717 885 750 904 q 686 870 691 872 q 665 846 682 869 q 626 795 646 819 q 589 745 606 772 q 540 659 563 702 q 489 576 517 615 q 473 546 480 561 q 456 519 465 532 q 473 479 465 498 q 493 443 481 459 q 513 405 504 424 q 534 368 522 385 q 576 296 556 330 q 625 230 597 263 q 650 198 635 213 q 680 170 665 183 q 708 142 693 154 q 735 113 722 130 q 760 79 750 93 q 791 54 769 65 q 831 34 804 43 q 880 26 858 26 q 924 35 902 26 q 947 74 947 45 q 933 95 947 83 q 913 111 919 107 q 886 123 902 117 q 871 141 871 130 q 880 152 871 152 q 915 143 899 152 q 948 124 932 134 q 987 59 987 100 q 975 30 987 37 q 950 13 963 22 q 935 0 939 2 q 917 -8 924 -5 q 900 -20 909 -11 q 872 -31 889 -30 q 844 -31 856 -31 q 795 -26 823 -31 q 745 -18 767 -20 q 702 -5 709 -11 q 641 46 661 28 q 600 92 618 65 q 565 142 582 119 q 543 176 552 159 q 524 213 534 193 q 504 249 513 230 q 484 287 494 269 q 463 322 473 306 q 441 355 454 339 q 413 385 428 368 q 389 418 398 402 q 341 380 367 404 q 300 332 311 350 q 298 234 298 281 q 309 139 298 187 q 313 105 313 117 q 326 81 313 93 q 349 72 332 76 q 378 58 367 68 q 402 -2 402 33 q 395 -5 402 -5 q 364 16 380 -5 q 330 43 349 37 q 277 46 308 48 q 224 45 246 45 q 173 36 198 43 q 126 26 149 30 q 82 11 100 20 q 35 2 63 2 q 12 4 24 2 q -1 18 -1 5 q 13 26 -1 24 q 35 28 26 28 q 71 39 48 28 q 86 47 80 45 q 102 58 93 50 q 132 76 121 66 q 142 110 136 93 q 154 144 149 127 q 170 219 161 182 q 184 294 178 256 q 193 389 193 347 q 189 446 193 416 q 185 505 185 476 q 182 565 184 535 q 180 626 180 595 q 166 704 180 667 q 144 780 152 741 q 140 808 141 791 q 128 826 139 826 l 89 826 q 52 826 63 826 q 26 839 41 826 q 0 854 19 842 q -18 874 -18 867 q -13 884 -18 884 q 12 874 0 884 q 50 865 24 865 q 95 869 71 865 q 141 880 119 874 q 176 892 157 884 q 213 907 195 900 q 248 923 230 915 q 283 937 265 932 q 328 939 300 943 q 356 917 356 935 q 341 907 356 907 q 311 913 334 907 q 279 895 300 913 q 258 867 258 876 z "},"L":{"ha":511,"x_min":-7,"x_max":849,"o":"m 338 897 q 289 899 304 900 q 260 872 273 898 q 234 776 239 833 q 232 720 229 737 q 237 674 236 702 q 234 624 237 641 q 227 574 231 608 q 223 509 221 539 q 223 446 224 479 q 222 384 221 413 q 223 326 223 354 q 213 196 221 298 q 223 91 204 93 q 253 98 234 89 q 302 104 271 107 l 332 100 q 421 71 368 94 q 508 37 475 48 q 591 -1 545 20 q 680 -28 636 -22 q 773 -24 725 -33 q 827 26 821 -15 q 819 47 827 43 q 812 68 812 52 q 823 71 812 78 q 845 41 842 63 q 847 -3 849 18 q 828 -41 840 -28 q 815 -59 817 -54 q 769 -98 797 -87 q 708 -114 758 -102 q 636 -120 658 -126 q 582 -100 612 -115 q 543 -81 553 -85 q 448 -44 510 -65 q 351 -13 386 -24 q 300 2 325 -3 q 243 13 275 7 q 143 2 188 18 q 95 -10 134 0 q 60 -3 56 -20 q 68 6 60 0 q 80 35 77 13 q 78 99 84 68 q 77 168 73 130 q 79 203 79 185 q 82 243 79 220 q 93 317 90 291 q 95 365 97 345 q 97 413 93 385 q 102 458 99 431 q 104 504 104 485 q 104 594 100 539 q 113 687 108 648 q 110 859 125 781 q 96 892 104 885 q 56 905 87 900 q 16 918 39 907 q -7 945 -7 928 q 4 952 -3 956 q 28 944 17 950 q 56 935 39 937 q 96 934 73 933 q 138 935 119 935 q 157 933 149 935 q 176 933 165 932 q 235 939 197 937 q 293 935 273 941 q 308 927 302 930 q 325 922 313 924 q 343 917 336 917 q 356 909 351 917 q 338 897 373 890 z "},"M":{"ha":1002,"x_min":-57,"x_max":1046,"o":"m 556 252 q 533 198 545 226 q 510 148 521 170 q 471 109 506 141 q 434 71 435 76 q 414 67 428 65 q 400 81 400 68 q 410 92 400 87 q 425 102 419 96 q 443 127 435 113 q 456 202 458 163 q 451 231 454 218 q 445 261 447 244 q 437 291 439 276 q 434 322 435 306 q 415 374 428 342 q 395 428 402 406 q 351 533 386 446 q 310 626 315 621 q 295 570 300 618 q 288 505 290 522 q 277 443 282 474 q 269 380 273 411 q 267 311 263 350 q 260 246 269 263 q 231 199 241 220 q 224 135 221 178 q 232 70 224 113 q 245 13 239 26 q 290 -20 262 -20 q 328 -35 317 -20 q 315 -48 323 -45 q 276 -35 313 -48 q 234 -20 239 -22 q 197 0 210 -9 q 165 20 184 9 q 122 32 138 31 q 78 41 106 33 q 29 47 58 46 q 1 71 1 48 q 11 76 1 79 q 30 72 21 72 q 90 78 60 68 q 104 100 97 79 q 113 115 106 106 q 126 134 121 124 q 141 171 139 155 q 151 215 143 187 q 163 255 156 235 q 176 296 171 274 q 181 343 180 317 q 187 393 182 370 q 194 437 191 415 q 202 481 197 459 q 215 524 208 498 q 222 570 222 550 q 219 624 221 595 q 221 676 217 654 q 227 720 221 696 q 232 770 232 743 q 205 839 230 791 q 171 904 180 887 q 126 958 149 939 q 102 966 123 959 q 69 978 82 972 q 19 976 52 980 q -3 960 4 976 q -11 928 -11 945 q 4 894 -7 898 q 43 892 15 890 l 45 892 q 50 895 50 892 q 60 902 50 898 q 62 898 62 902 q 52 872 62 878 q 37 868 52 872 q 21 865 21 865 l 17 865 q -12 880 6 863 q -39 905 -29 898 q -54 943 -57 920 q -39 965 -44 959 q -35 974 -35 970 q 37 1005 -27 981 q 121 1029 100 1029 l 189 1022 q 206 1011 199 1019 q 252 948 230 978 q 302 887 275 918 q 326 857 313 872 q 349 826 338 842 q 358 806 352 817 q 369 791 363 796 q 379 770 374 780 q 389 753 384 761 q 399 735 395 745 q 410 720 404 726 q 432 685 427 704 q 442 637 435 659 q 454 593 448 615 q 469 553 458 572 q 491 520 480 533 q 512 484 496 509 q 543 461 528 459 q 562 498 545 472 q 586 545 578 524 q 592 567 589 555 q 600 589 595 578 q 610 612 600 591 q 619 635 619 633 q 635 671 625 650 q 650 711 645 692 q 660 750 656 728 q 673 794 663 772 q 697 825 682 814 q 732 848 711 836 q 748 858 739 854 q 765 870 756 863 q 781 882 774 876 q 800 892 787 887 q 840 909 817 898 q 888 922 863 920 q 937 909 913 924 q 964 867 960 895 q 947 841 964 863 q 941 827 939 833 q 932 814 943 821 q 930 826 924 817 q 935 831 932 828 q 941 837 937 833 q 943 850 943 842 q 919 875 943 861 q 889 889 895 889 l 886 887 q 847 869 865 885 q 823 841 828 854 q 804 755 800 806 l 806 737 q 813 665 806 707 q 828 595 821 623 q 839 524 838 555 q 845 450 841 492 l 847 441 q 853 412 847 424 q 865 389 860 400 q 874 362 875 367 q 876 334 873 357 l 876 317 q 884 261 878 289 q 895 208 889 233 q 900 183 895 195 q 909 161 904 172 q 919 119 916 141 q 924 107 919 111 q 943 91 939 93 q 951 76 949 81 q 965 65 954 71 q 1000 56 972 59 q 1041 56 1028 54 q 1046 48 1046 52 q 1043 36 1046 45 q 1036 28 1040 28 q 1018 32 1028 28 q 1000 35 1008 35 q 972 28 991 35 q 957 26 965 24 q 941 28 949 28 q 886 16 919 26 q 843 -2 854 5 q 812 -17 827 -11 q 784 -31 797 -22 q 740 -56 762 -43 q 711 -72 719 -68 q 696 -61 701 -76 q 701 -46 691 -46 q 723 -45 715 -46 q 747 -27 737 -39 q 764 -5 758 -15 q 778 18 772 13 q 791 52 784 22 q 799 82 793 68 q 806 119 804 96 q 801 134 806 124 q 795 152 797 144 q 789 171 787 172 q 791 187 791 170 q 785 211 791 196 q 777 237 779 226 q 764 289 767 256 q 755 350 758 315 q 752 415 752 385 q 745 477 749 448 q 737 537 741 505 q 722 594 732 565 q 711 646 711 623 q 703 643 704 646 q 678 596 695 635 q 645 512 661 557 q 615 425 628 467 q 602 372 602 383 l 597 357 l 562 261 l 556 252 z "},"N":{"ha":694,"x_min":-5,"x_max":754,"o":"m 532 852 q 547 746 532 791 q 572 646 562 702 q 584 538 580 593 q 598 431 587 484 q 615 332 606 382 q 637 235 624 281 q 648 187 643 211 q 661 141 654 163 q 688 65 676 91 q 676 39 700 39 q 648 66 665 39 q 624 102 631 93 q 528 233 569 167 q 500 268 515 252 q 478 298 486 283 q 442 350 471 307 q 380 440 413 393 q 318 525 347 487 q 287 565 289 563 q 271 458 287 494 q 256 368 256 422 l 254 345 l 263 281 q 249 220 263 250 q 230 157 235 189 q 227 123 226 141 q 224 87 228 106 q 218 11 218 54 q 244 -20 218 -17 q 269 -50 271 -24 q 242 -44 263 -61 q 204 -17 220 -28 q 176 -3 185 -3 q 141 2 167 -2 q 56 3 117 5 q -5 20 -5 0 q 6 27 -5 31 q 33 24 18 24 l 56 24 q 127 75 121 24 q 142 180 134 126 q 156 250 150 215 q 187 489 170 347 q 157 733 204 631 q 119 793 146 752 q 68 833 91 833 q 40 827 50 833 q 30 833 30 821 q 45 862 30 857 q 81 867 61 867 q 164 837 121 867 q 230 787 208 808 q 320 679 263 753 q 406 559 378 604 q 418 540 411 548 q 431 526 426 532 q 473 450 448 498 q 522 387 498 402 q 512 492 522 471 q 500 550 502 513 q 478 712 494 600 q 439 863 461 824 q 364 922 402 924 q 326 935 326 920 q 364 953 326 952 q 418 954 402 954 q 432 951 428 954 q 446 948 435 948 l 478 948 q 534 963 502 948 q 583 989 567 978 q 633 1010 595 998 q 694 1022 672 1022 q 747 994 739 1022 q 741 965 754 965 q 720 984 719 965 q 707 1004 720 1004 q 677 992 691 1004 q 652 976 663 981 q 621 964 637 968 q 593 954 604 959 q 550 913 569 941 q 532 852 532 885 z "},"O":{"ha":675,"x_min":13,"x_max":646,"o":"m 646 600 m 200 150 m 13 570 m 289 897 q 345 924 315 909 q 383 943 376 939 l 383 943 l 383 943 q 406 926 393 941 q 431 895 418 911 q 456 867 452 869 q 473 848 463 856 q 494 833 484 841 q 539 796 509 822 l 539 794 q 613 708 580 752 q 646 600 646 665 q 644 541 646 572 q 642 478 642 509 q 631 374 635 415 l 629 361 q 613 288 622 322 q 580 220 604 254 q 527 161 552 183 q 479 122 502 139 q 446 95 461 107 q 420 66 431 83 q 414 53 416 61 q 408 37 411 45 q 387 2 391 2 q 360 18 376 2 q 333 45 345 33 q 326 52 333 45 q 269 99 304 74 q 200 150 233 124 q 162 177 180 163 q 130 202 144 191 q 78 260 91 231 q 54 334 64 289 l 52 347 q 46 360 48 352 q 43 376 44 368 q 20 467 28 426 q 13 570 13 507 q 59 695 13 637 q 152 798 106 753 l 152 800 q 170 819 170 819 q 205 851 191 839 q 257 880 220 863 q 289 897 259 882 m 396 137 m 400 137 m 400 137 m 504 313 m 502 367 m 505 443 m 515 593 m 443 752 q 302 831 370 824 q 299 831 300 831 q 298 831 298 831 q 264 819 281 831 q 231 794 246 806 q 224 787 224 787 q 189 766 211 778 q 159 748 170 755 q 134 716 137 732 q 132 676 132 700 l 132 672 q 133 622 132 657 q 139 553 135 587 q 148 487 140 502 q 154 455 154 474 q 154 418 154 437 q 152 375 152 396 q 157 334 152 354 q 200 274 168 298 q 263 231 231 250 q 276 222 274 224 q 286 216 281 218 q 296 211 291 213 q 337 185 315 196 q 363 159 345 180 q 370 150 365 155 q 396 137 381 137 l 400 137 l 400 137 q 430 158 411 137 q 465 208 448 180 q 504 313 504 274 l 504 313 q 502 361 504 347 l 502 367 q 501 401 500 385 q 504 435 502 416 l 505 443 l 515 593 q 515 594 515 593 q 515 598 515 596 q 493 677 515 637 q 443 752 472 718 z "},"P":{"ha":668,"x_min":-16,"x_max":691,"o":"m 280 811 q 267 748 280 781 q 255 721 262 732 q 250 687 248 709 q 254 595 252 643 q 263 496 256 547 q 256 477 263 485 q 248 465 248 469 q 305 479 262 465 q 361 500 349 494 q 410 525 395 513 q 445 567 425 537 q 474 610 460 589 q 500 659 489 631 q 509 687 506 671 q 517 718 511 704 q 526 747 519 735 q 534 776 534 760 q 517 801 534 787 q 493 822 500 814 q 470 838 478 831 q 445 850 462 844 q 408 854 427 854 q 373 853 391 852 q 338 854 354 854 q 326 851 330 854 q 315 848 321 848 q 280 811 283 841 m 4 1013 q 30 982 4 1004 q 65 958 56 961 q 106 941 87 943 q 154 932 121 939 q 202 922 187 926 q 271 902 237 911 q 347 900 304 892 q 397 907 380 904 q 450 905 414 907 q 547 887 513 902 q 584 867 565 878 q 623 848 602 857 q 686 799 691 813 q 675 758 682 785 q 657 702 663 724 q 628 648 650 680 q 604 621 617 631 q 580 595 591 611 q 560 562 569 580 q 541 530 551 545 q 483 483 521 502 q 406 457 445 465 q 385 452 395 454 q 363 448 374 450 q 343 440 352 444 q 324 435 334 437 q 313 433 319 433 q 302 431 308 433 q 292 429 296 430 q 282 426 288 428 q 261 419 273 422 q 241 415 250 416 q 245 362 241 389 q 248 313 248 335 q 249 286 248 306 q 252 261 250 267 q 252 234 252 250 q 252 208 252 218 q 252 162 252 174 q 263 119 252 150 q 291 79 267 87 q 352 70 304 74 q 402 56 400 65 q 350 44 402 48 q 288 39 298 41 q 189 7 239 28 q 152 -17 173 0 q 107 -38 126 -33 q 60 -54 87 -43 q 34 -64 52 -54 q 15 -63 15 -74 q 36 -29 15 -45 q 73 -7 58 -13 q 106 15 80 -2 q 136 33 132 31 q 139 49 141 39 q 138 71 138 59 q 143 98 138 72 q 149 132 149 124 q 159 196 152 152 q 162 230 161 213 q 167 263 163 246 q 172 298 169 274 q 174 335 174 322 l 156 618 l 163 707 l 163 768 q 152 824 163 798 q 138 846 145 841 q 125 865 132 852 q 88 897 113 876 q 43 918 63 918 l 12 915 q -7 944 2 913 q -16 989 -16 976 q -8 1033 -16 1007 q 7 1076 1 1059 q 28 1107 14 1089 q 62 1126 43 1124 q 77 1128 77 1133 q 54 1114 73 1117 q 28 1082 35 1111 q 23 1062 24 1072 q 19 1044 21 1052 q 11 1027 17 1039 q 4 1013 4 1015 z "},"Q":{"ha":805,"x_min":3,"x_max":1027,"o":"m 616 272 q 656 321 639 289 q 690 387 674 354 q 705 428 698 415 q 709 479 713 441 q 701 530 705 494 q 690 576 700 550 q 672 621 681 602 q 657 638 665 631 q 644 656 650 644 q 620 695 629 680 q 585 726 611 711 q 540 744 564 735 q 496 765 516 753 q 472 773 483 770 q 450 781 460 776 q 425 797 435 785 q 411 808 414 808 q 360 789 389 806 q 296 755 331 772 q 231 720 237 726 q 169 646 198 687 q 140 543 140 606 l 140 476 q 143 428 140 459 q 150 380 146 396 q 164 304 155 342 q 198 237 174 267 q 216 215 211 218 q 239 196 222 211 q 279 154 261 174 q 320 111 298 134 q 373 98 335 93 q 450 119 411 104 q 519 155 488 135 q 550 183 550 174 q 535 231 550 205 q 518 283 520 256 q 475 313 511 300 q 448 321 468 313 q 422 330 427 330 q 414 330 416 330 q 407 330 411 330 q 387 314 392 330 q 370 296 381 298 q 359 317 359 300 q 369 324 359 319 q 391 340 379 330 q 422 367 420 367 q 468 370 448 382 q 507 354 488 357 q 555 348 544 354 q 566 330 563 342 q 581 300 570 313 q 600 276 591 287 q 616 272 609 261 m 743 -109 q 698 -56 724 -81 q 659 -7 672 -30 q 626 49 640 20 q 596 111 611 78 q 563 90 583 107 q 531 65 543 72 q 496 44 515 52 q 460 26 477 37 q 436 15 448 20 q 409 9 424 9 q 387 20 387 20 q 253 33 330 20 q 146 74 176 46 q 103 107 125 91 q 68 146 81 124 q 20 243 31 208 q 3 350 9 279 l 3 448 q 5 474 3 461 q 9 504 7 487 q 11 531 9 509 q 14 559 13 552 q 37 592 16 572 q 68 628 57 611 q 92 665 79 648 q 118 702 105 682 q 144 735 135 728 q 176 765 153 743 q 251 810 196 785 q 340 846 305 836 q 386 860 361 852 q 433 876 411 869 q 481 900 457 885 q 533 915 505 915 q 563 886 544 915 q 591 848 581 857 q 616 812 605 826 q 648 781 627 798 q 676 749 659 768 q 703 715 692 730 q 724 671 715 698 q 743 633 733 644 l 761 553 q 779 496 764 545 q 794 433 794 448 l 794 409 q 783 370 794 400 q 768 334 772 340 q 747 301 761 319 q 726 272 733 283 q 704 241 715 259 q 681 213 692 224 q 654 185 675 208 q 633 157 633 163 q 646 141 633 157 q 663 120 659 124 q 687 81 674 104 q 712 42 698 59 q 741 7 726 26 q 802 -58 759 -15 q 885 -102 844 -102 q 921 -93 907 -102 q 962 -81 935 -83 q 979 -67 974 -72 q 983 -45 983 -63 l 983 -18 q 974 3 983 -9 l 961 3 q 948 9 951 9 q 922 -3 928 9 q 916 -30 922 -30 q 900 -3 900 -30 q 922 26 900 15 q 961 37 944 37 l 966 37 q 999 21 983 37 q 1024 -3 1015 5 q 1023 -17 1027 -11 q 1018 -31 1018 -24 q 1007 -82 1017 -48 q 992 -132 998 -117 q 957 -160 987 -139 q 916 -178 928 -182 q 880 -166 916 -178 q 839 -155 844 -155 q 799 -146 817 -150 q 764 -134 781 -142 l 743 -109 z "},"R":{"ha":805,"x_min":-27,"x_max":849,"o":"m 36 954 q 18 920 18 939 q 31 888 18 900 q 56 865 45 876 q 86 848 75 850 q 112 842 100 844 q 138 841 123 839 l 199 837 q 224 843 210 837 q 251 848 237 848 q 283 847 265 848 q 312 850 300 846 q 364 862 325 854 q 419 870 403 870 l 445 870 q 543 847 484 870 q 630 811 601 824 q 672 789 642 804 q 712 768 703 774 q 747 729 732 752 q 764 696 762 705 q 753 677 773 677 q 734 685 745 677 q 669 629 680 659 q 632 548 658 598 q 619 533 627 537 q 606 515 612 530 q 586 474 597 494 q 558 440 578 461 q 526 413 538 418 q 492 396 499 413 q 507 346 497 367 q 521 289 517 324 q 538 234 523 261 q 564 191 553 208 q 589 145 576 168 q 617 106 601 122 q 631 87 625 96 q 649 68 637 78 q 682 44 671 46 q 693 24 693 43 q 712 6 705 15 q 741 -2 719 -2 q 793 8 767 -2 q 819 43 819 18 q 813 63 819 50 q 799 76 806 76 q 774 81 774 76 q 797 93 779 93 q 805 93 801 93 q 814 93 808 93 q 842 68 830 93 q 846 46 843 63 q 849 24 849 30 q 806 -32 849 -9 q 730 -54 764 -54 l 715 -54 q 669 -47 701 -54 q 627 -39 637 -41 q 586 -19 593 -28 q 560 0 578 -11 q 505 65 517 24 q 475 124 493 107 q 444 144 441 150 q 430 183 447 139 q 416 222 423 203 q 404 263 410 241 q 396 307 399 283 q 388 350 393 330 q 350 371 376 378 q 312 382 323 365 q 337 397 313 387 q 369 413 361 408 q 393 431 388 424 q 425 450 399 439 q 449 468 432 454 q 473 489 465 481 q 487 519 486 505 q 488 559 488 533 q 499 584 488 567 q 510 615 510 602 l 510 628 q 507 638 510 635 q 505 646 505 641 q 521 685 505 663 q 538 726 538 707 l 538 732 q 497 772 538 752 q 434 793 456 793 l 373 793 q 338 777 343 793 q 328 739 334 761 q 315 701 323 720 q 300 667 307 682 q 284 487 284 580 q 286 431 284 459 q 288 380 288 402 q 288 352 288 368 q 288 324 288 335 q 281 288 284 306 q 279 254 279 271 q 327 148 279 154 q 375 126 375 142 q 349 115 375 109 l 293 120 q 230 108 260 120 q 171 87 201 96 q 119 66 151 81 q 69 52 87 52 q 35 56 51 52 q 8 63 19 61 q -7 78 3 63 q -9 94 -18 93 q 10 90 -3 94 q 36 85 23 85 q 68 86 51 85 q 95 104 86 87 q 109 119 99 113 q 130 132 119 124 q 163 178 147 141 q 175 223 175 200 q 175 272 175 246 q 170 345 175 306 q 173 411 165 383 q 187 471 180 441 q 193 539 193 502 l 176 802 q 148 804 162 804 q 119 804 134 804 q 102 798 108 804 q 92 793 97 793 q 52 810 80 793 q 18 836 23 828 q -9 866 8 842 q -27 904 -27 890 q -21 927 -27 920 q -14 954 -14 933 q 9 967 -16 961 q 45 974 34 974 q 62 959 62 974 q 36 954 62 954 z "},"S":{"ha":581,"x_min":5,"x_max":545,"o":"m 163 802 q 205 831 172 802 q 254 872 239 861 q 277 888 264 878 q 302 904 289 898 q 330 917 320 915 q 387 933 355 918 q 448 945 418 948 q 507 964 470 950 q 545 972 545 978 q 535 922 538 946 q 530 874 532 898 q 532 859 532 869 q 522 842 528 844 q 511 826 517 839 q 496 803 505 814 q 487 778 487 791 q 467 726 481 743 q 443 705 457 717 q 422 698 429 692 q 400 726 400 711 l 400 735 q 418 753 400 752 q 446 765 435 753 q 469 822 469 783 l 469 839 q 457 857 469 844 q 441 872 446 869 q 393 887 422 887 q 362 867 383 880 q 335 848 340 854 q 308 827 320 837 q 283 806 296 817 q 240 752 261 787 q 218 680 218 717 l 218 650 q 223 616 218 635 q 233 585 228 596 q 245 558 241 561 q 272 545 250 555 q 295 528 285 537 q 317 511 305 519 q 366 479 339 496 q 420 456 381 469 q 472 428 457 444 q 499 374 479 413 q 518 315 518 335 q 514 284 518 300 q 507 258 509 269 q 500 230 505 250 q 494 203 494 210 l 494 200 q 504 202 500 200 q 513 203 507 203 q 517 203 517 203 q 522 202 518 202 q 524 195 524 196 q 505 158 524 180 q 477 130 485 137 q 428 68 442 91 q 409 48 422 65 q 391 26 396 31 q 350 -9 372 7 l 345 -13 l 281 0 l 270 3 q 234 8 254 3 q 198 15 215 13 q 158 20 159 15 q 139 39 157 26 l 102 37 q 76 41 91 37 q 58 23 68 35 q 48 17 48 11 q 40 39 44 28 q 35 66 35 50 q 31 126 35 109 q 20 178 28 150 q 12 201 18 183 q 5 224 5 218 q 11 247 5 230 q 20 271 16 264 q 44 307 29 298 q 96 306 56 313 q 137 281 137 300 l 137 279 q 126 257 137 269 q 109 246 115 246 q 104 278 109 267 q 76 289 92 289 q 53 262 68 289 q 37 222 37 235 l 37 213 q 57 180 37 191 q 76 168 72 168 q 96 161 79 167 q 132 138 119 150 q 167 115 144 126 q 211 104 189 104 q 238 102 233 104 q 261 96 243 100 q 303 77 289 87 q 342 85 317 66 l 357 96 q 401 134 394 117 q 408 208 408 152 l 408 226 q 384 285 408 254 q 346 335 359 317 q 302 376 328 357 q 254 411 277 395 q 225 424 243 416 q 198 439 208 431 q 180 461 187 444 q 163 489 172 478 q 108 521 142 505 q 74 568 74 537 l 74 580 q 93 629 74 602 q 111 680 111 657 l 111 685 l 107 732 q 114 758 105 743 q 132 778 122 774 q 148 788 142 781 q 163 802 153 794 z "},"T":{"ha":624,"x_min":14,"x_max":653,"o":"m 338 861 q 348 863 346 861 q 361 865 349 865 q 373 865 366 865 q 387 865 379 865 q 435 869 409 869 q 481 876 460 870 q 524 886 501 882 q 564 900 547 890 q 603 915 590 911 q 624 925 614 917 q 640 933 633 933 q 641 933 640 933 q 642 933 642 933 q 645 916 653 933 q 637 898 637 898 q 631 887 633 892 q 627 876 629 882 q 619 852 623 867 q 614 829 614 837 q 602 791 605 817 q 600 743 600 765 q 596 696 600 726 q 577 667 592 667 l 575 667 q 566 682 566 667 q 567 692 566 687 q 568 702 568 696 l 568 720 q 559 753 568 739 q 536 776 551 768 q 503 787 524 783 q 492 789 499 787 q 483 791 485 791 q 437 797 460 800 q 392 793 414 793 q 394 741 392 766 q 396 689 396 715 q 397 635 396 669 q 396 585 397 602 q 393 559 392 574 q 394 533 394 545 q 390 484 394 517 q 389 430 389 459 q 387 380 389 400 q 382 329 381 355 q 379 279 382 302 q 374 229 375 259 q 374 178 374 198 q 374 126 374 144 q 387 85 375 107 q 416 51 392 68 q 440 30 440 33 q 425 18 442 18 l 422 18 q 398 25 412 18 q 377 31 385 31 q 340 28 348 31 q 315 11 329 20 q 290 -2 301 2 q 272 -4 279 -5 q 255 -7 264 -3 q 229 -22 244 -7 q 218 -30 224 -24 q 207 -41 212 -35 q 193 -47 199 -45 q 181 -56 186 -50 q 153 -70 172 -59 q 125 -81 134 -81 l 121 -81 q 107 -74 107 -81 q 122 -57 107 -59 q 146 -50 136 -56 q 152 -42 149 -45 q 161 -35 155 -39 q 172 -15 164 -30 q 183 3 176 -9 q 196 20 190 15 q 211 36 207 33 q 222 59 214 39 q 230 82 225 71 q 238 104 235 93 q 245 127 240 119 q 252 154 250 152 q 254 180 253 167 q 260 205 255 193 q 269 231 262 211 q 275 256 275 250 l 270 322 l 270 387 l 272 411 q 271 438 272 422 q 270 467 270 454 q 273 494 270 481 q 275 520 275 507 l 275 528 q 269 548 275 539 q 262 568 262 557 q 273 574 262 568 l 273 574 q 279 644 279 611 q 281 709 279 676 q 279 729 281 718 q 279 750 277 739 q 270 780 283 770 q 242 797 260 785 q 212 808 224 808 l 192 808 l 140 802 q 127 792 134 796 q 116 781 120 787 q 105 767 109 770 q 96 755 101 763 q 78 726 83 739 q 68 692 73 713 q 53 615 53 652 q 53 592 53 604 q 53 568 53 580 q 53 545 53 557 q 44 533 53 533 l 40 533 q 19 559 24 533 q 14 606 14 585 q 16 652 14 637 q 21 669 16 654 q 27 691 25 685 q 36 730 31 707 q 40 776 40 752 q 38 797 40 787 q 37 817 37 806 q 34 837 35 826 q 33 857 33 848 q 29 877 31 865 q 27 898 27 889 q 23 917 27 907 q 20 935 20 926 l 20 941 q 37 950 20 950 q 61 934 45 950 q 86 913 77 918 q 98 903 92 907 q 113 895 103 898 q 142 882 133 884 q 159 877 149 878 q 179 876 170 876 q 197 870 190 874 q 216 867 205 867 q 253 861 233 867 q 271 857 258 859 q 290 854 283 854 q 338 861 309 854 z "},"U":{"ha":753,"x_min":-26,"x_max":789,"o":"m 210 885 q 256 850 256 885 q 248 787 256 809 q 243 768 243 776 q 243 750 243 761 q 241 711 241 732 q 235 674 241 691 q 225 641 230 657 q 218 608 220 624 q 213 570 217 595 q 210 533 210 545 q 212 499 210 520 q 218 467 215 478 q 222 430 220 452 q 224 396 224 409 q 228 360 224 374 q 235 332 232 347 q 243 300 241 309 q 256 274 245 291 q 286 230 267 259 q 298 205 293 215 q 317 185 304 195 q 373 159 334 168 q 435 165 413 150 q 471 202 454 176 q 500 250 489 228 q 532 372 532 298 q 533 445 532 408 q 534 519 534 481 q 530 593 534 568 q 524 624 528 608 q 521 659 521 641 q 523 670 521 665 q 524 684 524 676 q 519 724 524 711 q 511 741 515 732 q 507 760 507 750 q 511 775 507 766 q 515 793 515 783 q 492 819 515 809 q 469 836 469 829 q 485 845 469 846 q 513 844 502 844 l 521 844 q 571 857 554 844 q 615 876 587 870 q 638 882 626 876 q 661 890 650 887 q 722 897 689 897 q 732 882 732 897 q 713 869 732 872 q 685 865 699 869 q 659 861 671 861 q 633 789 637 829 q 627 745 630 768 q 624 702 624 722 q 622 654 623 680 q 618 608 621 628 q 614 563 617 587 q 611 519 611 539 q 615 493 611 505 q 618 471 618 481 l 617 435 q 619 397 617 415 q 621 363 621 380 q 622 327 621 339 q 628 292 623 315 q 630 258 630 283 q 636 189 633 224 q 652 124 639 154 q 661 94 656 113 q 671 68 665 74 q 685 43 678 56 q 699 18 691 30 q 734 -20 711 0 q 758 -34 745 -31 q 783 -46 770 -37 q 776 -59 789 -52 q 752 -68 763 -66 q 735 -73 743 -68 q 719 -78 728 -78 q 686 -65 704 -78 q 648 -28 663 -50 q 623 13 633 -5 q 607 46 611 30 q 597 81 602 63 q 583 119 589 98 q 576 157 578 134 q 525 120 547 141 q 473 85 504 98 q 411 57 443 74 q 341 41 380 41 q 235 66 274 41 q 208 90 218 78 q 184 119 197 102 q 139 176 157 146 q 109 248 121 205 q 101 293 102 271 q 100 345 100 315 q 97 392 100 367 q 93 441 93 416 q 92 544 91 491 q 93 650 93 596 q 89 691 93 671 q 85 733 85 711 q 83 776 85 748 q 76 814 80 804 q 48 836 63 837 q 17 846 33 836 q -10 864 5 852 q -26 892 -26 876 q -9 900 -26 900 q 10 891 -2 900 q 30 878 22 882 q 75 867 50 867 q 122 867 100 867 q 165 876 150 867 q 210 885 180 885 z "},"V":{"ha":753,"x_min":-123,"x_max":810,"o":"m 804 776 q 788 767 793 768 q 774 763 782 765 q 710 730 739 748 q 673 704 682 715 q 650 665 664 692 q 616 576 634 629 q 597 532 608 552 q 578 491 586 511 q 544 399 560 443 q 515 306 528 355 q 484 205 506 274 q 462 109 462 137 l 462 104 q 499 63 462 76 q 524 45 505 58 q 543 28 543 33 q 538 20 543 20 q 528 26 530 20 q 505 35 525 31 q 460 35 482 37 q 411 32 437 33 q 363 30 384 30 q 317 26 343 30 q 277 18 292 22 q 236 6 267 17 q 204 -5 204 -5 q 195 0 191 -5 q 213 42 199 20 q 237 85 227 63 q 251 136 243 106 q 258 195 258 167 l 249 313 l 249 315 q 220 498 241 409 q 184 676 199 587 q 162 762 173 728 q 128 837 151 796 q 84 903 112 865 q 16 941 56 941 l -53 941 q -94 900 -94 941 q -58 863 -90 859 q -47 850 -42 863 q -72 845 -58 848 q -101 842 -86 842 q -111 844 -111 842 q -117 874 -111 861 q -123 915 -123 887 l -123 928 q -78 977 -123 956 q -7 998 -33 998 l 14 998 q 117 950 66 998 q 189 869 168 902 q 221 824 199 854 q 233 800 227 813 q 249 776 239 787 q 272 723 260 755 q 295 669 284 691 q 330 552 317 616 q 356 426 343 487 q 367 358 361 398 q 373 291 373 319 q 377 256 373 274 q 380 220 380 237 q 382 202 380 211 q 386 187 384 193 q 397 159 388 159 q 431 274 397 176 q 475 400 465 372 q 490 465 486 435 q 500 533 495 494 q 501 571 503 550 q 505 609 499 593 q 513 642 506 615 q 519 676 519 669 q 490 726 519 724 q 460 748 460 728 q 465 752 460 752 q 517 743 495 752 q 578 733 540 733 q 634 742 595 733 q 684 755 673 750 l 793 789 q 810 787 810 793 q 804 776 810 778 z "},"W":{"ha":968,"x_min":-9,"x_max":1038,"o":"m 232 193 q 225 235 229 216 q 217 278 221 254 q 209 321 212 296 q 201 363 206 347 q 191 406 195 383 q 182 446 187 428 q 163 530 169 489 q 145 611 158 565 q 132 700 132 657 q 131 742 132 732 q 123 780 130 752 q 111 813 117 794 q 95 842 104 831 q 76 868 84 857 q 52 890 67 880 q 36 898 41 897 q 21 905 30 900 q 1 910 12 911 q -9 920 -9 909 q 29 924 1 937 q 75 911 58 911 l 187 918 q 205 917 199 918 q 222 918 212 915 q 240 922 229 918 q 254 926 252 926 q 265 918 262 926 q 249 897 260 911 q 237 870 237 884 l 256 715 q 253 675 258 698 q 250 637 249 652 l 256 580 l 258 576 l 263 574 q 268 550 265 565 q 275 528 271 535 q 277 502 278 515 q 280 476 277 489 q 284 423 282 450 q 302 385 286 396 q 321 424 313 404 q 328 445 325 435 q 338 465 332 454 q 354 504 343 479 q 371 545 366 528 q 383 587 376 565 q 395 635 389 609 q 397 659 395 646 q 402 684 400 671 q 406 707 402 692 q 421 722 410 722 q 435 699 427 722 q 448 671 443 676 q 455 613 448 641 q 467 557 462 585 q 472 529 471 541 q 478 502 473 517 q 485 475 480 485 q 495 450 490 465 q 521 337 500 424 q 552 244 541 250 q 577 292 558 248 q 619 388 597 335 q 660 489 641 441 q 684 553 678 537 q 702 645 696 598 q 719 739 708 691 q 728 786 724 761 q 737 833 732 811 q 744 881 739 844 q 749 932 749 917 q 730 980 749 974 q 703 986 724 980 q 682 998 682 993 q 705 1013 682 1007 q 741 1019 728 1019 l 745 1019 q 782 1009 764 1019 q 815 994 800 1000 q 891 972 838 981 q 933 971 919 966 q 971 981 947 976 q 1008 993 985 983 q 1022 1005 1021 998 q 1030 1021 1023 1011 q 1029 999 1038 1022 q 1021 972 1021 976 q 1003 959 1017 965 q 982 952 989 954 q 937 939 952 941 q 895 920 921 937 q 873 883 880 909 q 863 833 865 856 q 851 784 858 808 q 847 735 845 760 q 854 733 852 733 q 862 739 856 733 q 869 737 867 745 q 850 692 867 722 q 828 644 833 661 q 809 595 821 626 q 795 545 797 565 q 787 483 793 522 q 772 433 782 444 q 756 417 764 422 q 745 395 749 411 q 739 365 741 380 q 732 339 737 350 q 712 293 723 315 q 691 248 701 271 q 668 202 680 226 q 648 155 656 178 q 642 128 643 142 q 635 102 641 113 q 624 81 632 94 q 612 59 615 68 q 585 17 604 46 q 551 -13 566 -13 q 543 -9 551 -13 q 542 54 543 33 q 524 106 541 74 q 511 156 515 120 q 498 215 506 193 q 477 261 488 239 q 458 309 467 283 q 435 355 443 339 q 423 379 432 363 q 414 402 414 396 q 402 385 402 396 q 397 368 402 374 q 386 358 391 363 q 378 352 380 354 q 374 340 374 347 q 373 324 374 334 q 351 269 363 315 q 325 170 339 222 q 297 73 311 117 q 271 30 283 30 q 261 62 267 30 q 250 109 254 94 q 245 128 247 117 q 241 150 243 139 q 232 193 232 182 z "},"X":{"ha":812,"x_min":-42,"x_max":917,"o":"m 784 900 q 812 883 795 898 q 832 852 830 869 q 817 837 832 837 q 801 845 806 837 q 784 856 795 854 q 741 853 762 857 q 708 842 721 848 q 675 829 680 829 q 654 802 671 828 q 613 747 634 772 q 574 691 591 722 q 521 594 545 641 q 465 498 497 548 q 521 372 500 415 q 595 259 541 330 q 624 222 610 239 q 650 185 637 205 q 672 119 663 159 q 703 61 680 78 q 743 34 715 48 q 795 18 771 20 q 841 24 817 15 q 869 66 865 33 q 857 94 869 78 q 840 115 845 109 q 811 131 828 120 q 797 154 795 141 q 808 165 797 167 q 845 150 828 163 q 878 126 862 137 q 913 45 917 93 q 896 11 910 18 q 867 -3 882 3 q 859 -10 862 -7 q 850 -17 856 -13 q 829 -25 838 -22 q 810 -39 821 -28 q 780 -47 797 -48 q 749 -46 764 -46 q 697 -10 726 -43 q 645 30 667 22 q 620 36 630 33 q 601 50 610 39 q 569 83 584 66 q 541 119 554 100 q 503 177 519 144 q 471 239 488 210 q 438 312 452 272 q 410 391 425 352 l 338 241 q 308 171 326 208 q 312 119 290 135 q 363 78 341 94 q 419 48 386 61 q 422 29 429 43 q 353 45 415 15 q 316 52 336 50 q 282 54 297 54 q 240 47 243 54 q 204 26 236 41 q 161 24 186 18 q 90 22 136 30 q 4 17 19 9 q -20 33 -12 24 q -12 46 -31 50 q 26 43 8 43 q 48 44 37 43 q 73 48 60 45 q 110 65 87 50 q 145 91 132 79 q 214 175 180 120 q 260 276 247 230 l 304 385 q 338 472 312 426 q 321 502 326 491 q 309 527 315 513 q 297 552 302 541 l 284 572 l 258 629 l 234 691 q 217 707 230 694 q 202 726 204 720 q 178 755 193 733 q 156 787 163 778 q 147 794 151 791 q 140 804 143 798 q 124 821 132 813 q 108 837 115 828 q 89 850 93 848 q 71 857 85 852 q 53 867 65 857 q 36 880 41 876 q 27 886 30 884 q 19 892 24 889 q 1 898 12 895 q -20 895 -7 900 q -40 902 -33 889 q -29 917 -42 907 q 9 919 -18 920 q 52 918 37 918 q 65 916 58 918 q 78 913 73 913 q 91 912 80 913 q 106 911 102 911 q 119 918 113 913 q 136 922 125 922 q 162 920 147 922 q 189 918 176 918 q 219 933 195 918 q 234 950 227 939 q 252 966 241 961 q 269 965 267 974 q 259 933 269 959 q 250 890 249 907 q 278 804 252 854 q 326 718 300 760 q 350 674 338 698 q 374 633 361 650 q 388 609 380 623 q 402 585 395 596 q 456 684 425 628 q 488 796 488 739 q 475 820 488 809 q 454 836 463 831 q 421 838 441 837 q 401 856 401 839 q 421 872 401 878 l 473 867 q 499 859 484 865 q 521 854 513 854 q 552 857 538 850 q 584 872 567 865 q 641 894 608 884 q 703 902 675 904 q 722 901 713 902 q 741 900 730 900 q 762 899 751 898 q 784 900 772 900 z "},"Y":{"ha":763,"x_min":-24,"x_max":813,"o":"m 280 902 q 300 878 295 902 q 257 864 302 867 q 217 824 212 861 q 217 819 217 822 q 217 814 217 817 q 235 752 217 802 q 258 692 252 702 l 263 677 q 279 631 267 661 q 300 589 291 602 q 327 551 308 574 q 367 528 347 528 l 371 528 q 424 605 387 528 q 471 704 460 682 q 509 782 478 722 q 551 902 539 841 l 551 915 q 506 944 551 943 q 467 958 461 946 q 496 978 469 978 q 525 971 506 978 q 571 965 543 965 q 609 967 589 965 q 654 968 628 968 q 676 963 667 968 q 696 958 686 958 q 722 963 709 958 q 747 968 734 968 l 789 968 q 813 954 813 968 q 799 942 813 945 q 778 937 785 939 q 722 907 750 926 q 678 867 693 889 q 657 831 667 848 q 635 798 647 814 q 621 756 625 780 q 608 715 617 732 q 588 677 597 694 q 569 643 580 659 q 546 610 557 626 q 523 576 534 595 q 483 502 500 543 q 443 428 465 461 q 438 378 441 402 q 435 330 435 354 q 438 270 435 300 q 443 213 441 241 q 438 137 443 195 q 460 79 433 79 q 492 79 473 76 q 526 81 511 81 q 533 77 532 81 q 530 68 534 72 q 497 51 519 58 q 465 35 476 45 q 449 22 454 30 q 435 9 443 15 q 403 -5 420 0 q 369 -15 385 -9 q 344 -24 356 -18 q 321 -35 332 -30 q 289 -51 306 -43 q 258 -66 273 -59 q 200 -94 237 -76 q 164 -115 189 -100 q 134 -130 139 -130 q 110 -137 124 -130 q 95 -130 95 -144 q 116 -109 95 -113 q 152 -94 138 -104 q 184 -76 169 -83 q 214 -58 200 -68 q 254 -6 230 -41 q 293 50 278 28 q 300 135 296 93 q 304 222 304 178 q 300 313 304 252 q 291 404 296 374 q 283 443 286 433 q 267 474 280 452 q 245 505 250 496 q 234 543 241 513 q 208 613 227 574 q 194 646 199 626 q 180 685 189 667 q 138 739 163 711 q 107 788 119 758 q 78 842 95 819 q 40 865 62 861 q -1 870 19 869 q -24 890 -24 874 q 0 904 -24 904 q 23 904 12 904 q 47 904 35 904 q 107 902 69 904 q 167 898 144 900 q 225 896 210 890 q 280 902 241 902 z "},"Z":{"ha":812,"x_min":0,"x_max":836,"o":"m 739 865 q 682 848 702 865 q 644 811 661 831 q 609 770 624 787 q 578 726 595 752 q 549 679 561 704 q 526 628 537 654 q 512 602 519 615 q 500 578 505 589 q 486 555 494 567 q 472 532 478 543 q 462 502 467 520 q 456 472 457 484 q 431 425 450 450 q 400 380 411 400 q 392 367 396 372 q 385 355 387 361 q 372 332 383 354 q 360 305 365 319 q 350 278 355 291 q 335 253 340 258 q 317 235 330 248 q 278 195 304 222 q 248 148 252 168 q 274 148 264 148 q 300 146 283 148 q 322 139 311 142 q 348 135 334 135 q 392 119 357 132 q 433 102 426 106 q 479 87 450 91 q 533 81 507 83 q 582 70 555 78 q 629 61 609 61 l 654 61 q 686 72 676 61 q 711 94 696 83 q 737 111 730 109 q 761 135 745 113 q 763 145 763 139 q 765 157 763 152 q 749 178 765 172 q 722 183 733 183 q 714 174 717 183 q 700 165 711 165 q 690 175 691 165 q 689 191 689 185 q 699 211 687 202 q 722 220 711 220 l 765 220 q 796 208 783 220 q 803 195 802 200 q 809 178 804 189 q 824 145 813 163 q 836 119 836 127 q 792 79 824 94 q 745 39 761 63 q 722 18 741 31 q 709 9 717 17 q 698 0 702 2 q 676 -20 692 -5 q 650 -35 659 -35 l 624 -35 q 607 -33 613 -35 q 593 -30 600 -30 q 533 -34 561 -30 q 472 -37 505 -37 q 423 -17 461 -37 q 374 11 385 3 q 345 20 357 17 q 319 28 332 22 q 263 48 281 43 q 205 65 235 56 q 141 71 174 74 q 80 53 109 65 q 22 41 50 41 q 0 54 0 41 q 11 68 0 65 q 33 76 22 72 q 61 106 43 78 q 86 136 68 120 q 115 165 104 152 q 127 179 122 172 q 139 196 132 185 q 150 213 144 208 q 163 230 155 218 q 188 257 174 246 q 215 289 202 269 q 232 326 224 300 q 248 368 241 352 q 263 408 254 383 q 281 448 272 433 q 302 484 296 471 q 313 499 306 489 q 326 515 320 509 q 343 552 332 520 q 359 595 354 583 q 367 614 363 604 q 376 633 370 624 q 398 669 391 656 q 409 684 402 676 q 420 702 415 692 q 431 718 426 709 q 443 737 435 726 q 463 771 446 743 q 481 809 479 800 q 463 817 481 817 q 450 818 457 817 q 437 819 443 819 q 412 819 426 821 q 387 817 398 817 q 338 806 359 811 q 292 798 317 800 q 251 781 267 794 q 222 755 235 768 q 193 729 200 733 q 170 694 185 726 q 141 668 163 682 q 100 654 119 654 q 83 661 83 654 q 100 674 83 669 q 117 687 106 676 q 131 706 132 704 q 135 732 130 707 q 157 777 141 753 q 172 821 172 800 l 172 831 q 166 857 172 844 q 165 876 159 870 q 202 883 172 887 q 248 878 231 880 q 268 875 259 876 q 292 874 276 874 q 317 872 307 874 q 340 870 328 870 q 380 862 367 867 q 426 863 393 857 q 470 872 443 865 q 513 880 496 880 q 553 874 533 880 q 591 876 572 869 q 624 890 598 880 q 659 900 650 900 q 708 895 669 900 q 748 878 748 889 q 739 865 748 865 z "},"[":{"ha":514,"x_min":0,"x_max":0,"o":""},"\\":{"ha":513,"x_min":0,"x_max":496,"o":"m 23 968 q 134 846 93 968 l 128 817 q 403 210 248 637 q 496 29 491 55 l 496 18 q 461 0 491 0 l 449 0 q 374 41 410 0 q 332 204 356 143 l 198 583 q 70 823 70 805 l 76 834 q 0 951 76 858 l 0 957 q 12 968 0 966 l 23 968 z "},"]":{"ha":514,"x_min":0,"x_max":0,"o":""},"^":{"ha":688,"x_min":0,"x_max":0,"o":""},"_":{"ha":435,"x_min":-1,"x_max":415,"o":"m 336 59 q 362 56 341 61 q 401 56 384 52 q 415 50 404 56 q 395 11 415 45 q 329 -2 389 -5 q 232 3 269 2 q 181 1 193 0 q 134 -2 169 2 q 91 -4 112 -5 q 49 -7 71 -2 q 2 -13 21 -13 q 2 0 -1 -7 q 17 21 8 11 q 34 41 26 31 q 50 52 41 52 q 63 52 56 52 q 77 52 71 52 q 92 51 84 52 q 110 50 100 50 q 165 48 146 50 q 250 47 208 46 q 336 59 291 48 z "},"`":{"ha":694,"x_min":216,"x_max":423,"o":"m 414 733 q 386 750 403 733 q 377 764 380 755 q 368 778 373 772 q 310 809 349 796 q 249 841 266 824 q 229 865 234 856 q 216 898 216 878 l 216 898 q 231 917 216 913 q 236 917 233 917 q 243 917 240 917 q 256 920 254 920 q 281 928 275 924 q 294 933 288 930 q 310 937 299 937 q 336 925 327 937 q 351 902 345 913 q 366 876 357 887 q 373 865 368 870 q 382 856 378 859 q 397 833 390 843 q 410 808 405 824 q 412 791 410 800 q 416 774 414 781 q 419 759 416 767 q 423 745 423 750 l 423 741 q 414 733 423 733 z "},"a":{"ha":437,"x_min":9,"x_max":416,"o":"m 374 565 l 353 478 q 353 415 348 457 q 361 355 359 372 q 376 302 366 319 q 392 281 383 287 q 407 276 397 278 q 416 267 416 274 q 385 254 412 248 l 376 256 q 328 283 346 258 q 312 306 316 292 q 301 328 309 320 q 237 226 268 278 q 129 185 207 174 l 123 187 q 75 204 100 189 q 39 231 50 218 q 14 322 9 258 q 24 376 18 359 q 52 415 29 393 q 127 459 77 443 q 169 475 153 467 q 209 494 184 484 q 245 517 227 504 q 272 555 262 530 q 281 602 287 591 q 244 629 270 613 q 200 651 224 639 q 151 667 177 663 l 148 669 q 88 641 113 672 q 78 600 64 606 q 90 578 92 595 q 72 561 88 568 q 48 576 59 568 q 40 606 37 583 q 62 648 42 626 q 98 680 83 671 q 134 704 120 691 q 186 711 148 717 l 194 711 q 251 688 220 705 q 305 659 283 671 q 337 647 316 652 q 364 635 359 643 q 374 574 379 609 l 374 565 m 277 409 q 259 446 281 443 l 253 446 q 208 406 222 450 q 183 363 194 361 l 181 363 q 170 375 172 363 q 163 389 168 387 l 159 389 q 103 348 109 395 q 104 341 103 345 q 105 335 105 337 q 119 313 116 317 q 138 296 122 309 q 157 279 151 286 q 165 270 163 276 q 174 263 168 264 q 225 328 199 300 q 254 359 237 339 q 275 398 272 380 l 277 409 z "},"b":{"ha":490,"x_min":-31,"x_max":469,"o":"m 228 469 q 222 415 224 441 q 220 361 219 389 q 229 318 220 350 q 243 279 237 287 q 308 241 261 241 q 378 302 378 241 q 367 367 378 337 q 359 379 361 372 q 352 393 356 385 q 334 411 349 398 q 286 449 311 431 q 228 469 260 467 m 324 517 q 296 585 324 559 q 273 609 280 604 q 253 615 265 609 q 235 621 241 621 q 217 604 213 621 q 220 539 220 581 q 221 519 220 528 q 222 505 222 511 q 247 493 227 494 q 278 491 267 491 q 306 496 298 491 q 324 517 324 509 m -1 770 q 35 700 -1 715 q 55 692 48 692 q 78 691 62 691 q 99 685 89 687 q 126 684 110 684 q 177 684 152 684 q 230 687 202 685 q 262 691 245 687 q 293 694 280 694 q 342 683 328 694 q 378 657 356 672 q 393 643 382 654 q 408 626 404 631 q 425 574 425 602 q 388 512 425 528 q 352 485 352 496 q 368 468 354 479 q 387 452 382 456 q 419 416 400 439 q 449 376 430 400 q 469 330 469 352 q 466 292 469 313 q 458 256 463 272 q 400 203 443 226 q 308 187 363 187 q 267 193 289 187 q 232 203 245 198 q 186 216 208 210 q 143 222 165 222 q 121 219 126 222 q 104 213 115 215 q 70 207 98 211 q 41 213 41 202 q 49 225 41 224 q 67 230 58 226 q 93 243 78 231 q 123 289 119 263 q 130 322 124 307 q 139 389 137 367 q 141 420 139 406 q 143 452 143 435 q 136 500 143 474 q 123 547 128 526 q 109 592 117 570 q 98 639 100 613 q 63 663 95 659 q 17 672 34 665 q -15 698 2 680 q -31 739 -31 717 q -26 783 -31 768 q -3 798 -20 798 q 2 794 2 798 q 0 783 2 789 q -1 770 -1 778 z "},"c":{"ha":396,"x_min":20,"x_max":378,"o":"m 241 637 q 282 639 263 637 q 320 657 302 641 q 340 682 326 661 q 359 702 354 702 q 367 696 367 702 q 357 660 367 680 q 347 624 348 641 q 347 565 339 587 q 348 555 347 563 q 350 547 350 547 q 345 539 350 539 q 330 547 337 539 q 317 559 322 555 q 278 574 302 574 q 244 564 261 574 q 211 553 228 553 q 178 541 191 548 q 148 500 161 524 q 126 457 135 476 q 119 420 120 446 q 119 378 119 395 q 122 337 119 359 q 124 316 122 326 q 127 298 126 306 q 131 280 127 283 q 140 267 135 276 q 160 241 150 246 q 189 226 170 235 q 218 211 202 216 q 248 196 233 205 q 261 186 252 193 q 276 180 271 180 q 330 202 307 180 q 350 219 335 208 q 372 230 365 230 q 378 222 378 230 q 369 206 378 216 q 357 195 359 196 q 332 172 350 187 q 302 153 315 161 q 263 144 289 144 q 235 149 248 144 q 216 154 222 154 q 178 151 198 154 q 140 150 157 148 q 94 174 119 150 q 79 192 85 182 q 65 211 72 202 q 45 226 56 218 q 30 244 35 233 q 20 304 20 272 l 20 357 q 30 409 20 391 q 40 428 35 416 q 50 448 44 439 q 71 485 59 465 q 98 520 83 505 q 152 587 126 548 q 170 600 154 589 q 203 626 182 608 q 241 637 218 641 z "},"d":{"ha":496,"x_min":-59,"x_max":474,"o":"m 157 656 q 158 600 156 628 q 159 545 159 572 q 160 507 159 526 q 161 471 161 487 q 159 395 161 431 q 159 317 157 359 q 162 293 159 306 q 167 269 165 279 q 202 264 189 264 q 247 264 230 264 q 288 292 263 263 q 306 315 295 304 q 324 339 317 326 q 349 398 341 367 q 360 431 354 413 q 367 465 367 448 q 362 506 367 481 q 354 543 357 530 q 336 568 349 553 q 315 595 323 583 q 265 640 298 616 q 204 663 232 663 q 157 656 169 663 m 205 715 q 286 692 241 711 q 321 674 309 682 q 376 627 357 648 q 419 567 395 606 q 433 529 428 550 q 445 489 437 507 q 462 452 450 474 q 474 416 474 430 q 448 370 474 402 q 412 320 422 337 q 393 297 402 309 q 376 274 384 286 q 344 243 359 252 q 306 224 328 235 q 274 217 291 218 q 247 203 258 215 q 237 193 241 198 q 228 182 233 187 q 197 172 213 168 q 167 182 182 176 q 134 188 149 185 q 96 191 119 191 q 46 191 73 191 q 0 178 20 191 q -14 161 -5 172 q -28 150 -22 150 q -31 157 -31 150 q -26 168 -31 159 q -22 180 -22 176 q -7 195 -14 191 q 14 202 2 200 q 39 210 26 203 q 59 219 45 211 q 75 233 73 228 q 82 266 80 248 q 83 300 83 283 q 83 355 83 328 q 82 409 82 382 q 68 478 82 443 q 61 513 61 496 l 65 553 q 62 576 65 565 q 60 600 60 587 q 46 627 58 606 q 30 650 35 648 q 12 652 24 650 q -3 656 0 654 q -44 694 -26 663 q -57 722 -52 707 q -58 742 -57 726 q -54 758 -59 758 q -41 742 -48 758 q -31 720 -33 726 q -26 710 -28 715 q -22 700 -24 705 q 12 682 -11 677 q 44 685 28 685 q 78 692 60 685 q 141 710 111 704 q 205 715 171 717 z "},"e":{"ha":459,"x_min":11,"x_max":439,"o":"m 355 611 q 299 606 328 604 q 244 608 270 608 q 231 609 237 608 q 220 611 226 611 q 205 606 214 611 q 194 602 196 602 q 183 576 189 598 q 170 517 170 541 q 193 476 170 476 q 220 489 196 476 q 259 502 244 502 q 322 481 296 502 q 343 464 330 476 q 357 441 357 452 q 352 412 357 424 q 342 389 346 400 q 317 359 333 359 q 303 368 300 359 q 318 376 309 376 q 328 393 328 376 q 287 422 328 422 q 261 418 275 422 q 205 415 242 418 q 190 414 196 415 q 178 413 183 413 q 165 394 172 406 q 159 372 159 382 q 162 343 159 359 q 166 320 166 328 q 165 274 165 306 q 177 263 165 264 q 194 261 189 261 q 236 266 214 261 q 272 271 257 271 q 308 265 289 272 q 345 258 328 258 q 407 289 376 258 q 412 328 414 296 q 424 359 409 359 q 435 342 431 359 q 439 319 439 324 q 430 269 439 286 q 407 235 422 252 q 380 202 393 222 q 346 182 368 182 q 314 184 330 182 q 281 187 298 187 q 246 187 262 187 q 213 187 229 187 q 195 187 203 187 q 178 187 186 187 q 92 198 133 187 q 73 204 87 200 q 54 210 59 208 q 38 209 46 210 q 22 208 29 208 q 11 215 11 208 q 37 231 11 230 q 68 243 62 231 q 79 319 79 272 q 74 350 79 334 q 66 387 66 376 q 72 413 66 398 q 79 443 77 428 q 82 473 79 456 q 85 505 85 491 q 81 572 85 552 q 76 611 77 595 q 52 633 74 628 q 28 636 41 637 q 18 646 16 635 q 30 654 18 648 q 50 659 42 659 q 69 654 61 659 q 92 650 77 650 q 103 650 98 650 q 115 650 109 650 q 155 654 133 650 q 194 665 178 659 q 233 672 222 669 q 274 680 246 676 q 316 683 292 680 q 350 698 340 687 q 369 725 355 707 q 398 743 383 743 q 407 737 407 743 q 402 720 407 735 q 398 704 398 705 q 383 672 385 677 q 376 654 379 665 q 372 639 374 644 q 355 611 365 618 z "},"f":{"ha":411,"x_min":-5,"x_max":393,"o":"m 28 628 q 43 637 28 637 q 94 635 68 637 q 144 639 119 633 q 188 651 165 643 q 233 665 211 659 q 283 673 252 671 q 332 682 315 676 q 359 715 349 687 q 387 743 370 743 q 393 730 393 743 q 388 708 393 718 q 383 689 383 698 q 380 668 382 682 q 376 648 378 654 q 372 629 374 641 q 367 611 369 616 q 345 585 361 585 q 324 587 334 585 q 304 589 315 589 q 262 588 283 589 q 222 581 241 587 q 194 570 210 576 q 176 550 178 565 q 169 515 170 532 q 165 479 167 498 q 164 460 165 474 q 163 443 163 446 q 184 415 163 415 q 232 436 211 415 q 261 457 254 457 q 269 452 263 457 q 264 425 269 439 q 258 398 259 411 q 256 363 254 383 q 248 337 258 342 q 229 355 233 339 q 211 370 224 370 q 187 371 198 370 q 165 370 176 372 q 149 339 149 363 q 149 307 149 315 q 149 267 149 286 q 150 226 150 248 q 152 185 150 196 q 172 163 154 174 q 205 141 205 163 q 181 124 205 130 q 149 119 156 119 q 123 104 136 113 q 102 87 111 94 q 54 58 85 68 q 32 41 43 52 q 5 30 20 30 q -5 45 -5 30 q 23 82 -5 50 q 56 141 52 115 q 60 175 56 161 q 68 208 65 189 q 72 241 71 224 q 78 276 74 259 q 81 352 81 294 q 81 433 81 409 q 82 512 81 457 q 91 581 83 567 q 54 602 80 598 q 28 628 28 606 z "},"g":{"ha":564,"x_min":0,"x_max":539,"o":"m 382 522 q 347 553 347 522 q 357 556 347 559 q 372 553 367 553 q 420 565 398 553 q 448 598 443 574 q 435 626 452 621 q 402 626 416 626 q 372 626 389 626 q 344 617 354 623 q 322 608 334 611 q 296 598 309 602 q 272 589 283 595 q 224 568 246 574 q 180 547 196 561 q 161 530 168 535 q 144 511 154 524 q 107 404 107 461 q 122 348 107 367 q 154 309 135 322 q 186 270 170 289 q 231 246 202 252 q 292 232 243 243 q 347 226 340 220 q 366 276 361 243 q 370 342 370 309 q 355 365 370 355 q 330 380 339 374 q 315 385 320 382 q 302 391 309 389 q 284 393 294 391 q 274 404 274 396 q 312 411 274 416 q 359 406 350 406 q 416 411 389 406 q 459 421 439 415 q 502 437 479 428 q 523 445 507 439 q 539 437 539 452 q 532 425 539 437 q 524 413 524 413 q 481 340 500 378 q 472 309 472 324 q 469 276 472 294 q 461 241 465 259 q 457 211 457 224 q 458 180 457 200 q 452 159 459 159 l 450 159 q 420 174 441 159 q 365 189 400 189 q 333 183 348 189 q 302 178 319 178 q 262 184 278 178 q 230 191 246 191 q 193 191 211 193 q 157 183 170 183 q 103 207 135 183 q 61 243 72 230 q 22 283 35 269 q 5 303 11 294 q 0 337 0 311 q 0 392 0 365 q 9 444 0 418 q 46 498 18 467 q 92 539 58 509 q 142 576 126 568 q 173 590 159 581 q 202 604 187 598 q 267 629 246 623 q 280 633 272 629 q 298 639 289 637 q 316 646 311 643 q 332 652 320 648 q 359 667 354 661 q 387 684 376 684 q 402 680 396 684 q 415 674 408 676 q 429 668 422 669 q 444 665 435 667 q 471 653 450 661 q 492 639 492 644 q 492 626 492 631 q 491 613 491 621 q 491 598 491 608 q 491 585 491 589 q 463 553 487 568 q 424 534 450 547 q 382 522 398 522 z "},"h":{"ha":496,"x_min":-42,"x_max":525,"o":"m 282 733 q 307 729 297 733 q 334 735 317 726 q 377 754 354 745 q 427 766 401 763 q 452 769 439 766 q 480 772 465 772 q 500 767 490 772 q 523 761 511 761 q 524 759 523 760 q 525 758 525 758 q 508 743 525 743 q 493 745 500 743 q 478 748 486 748 q 443 730 454 748 q 437 719 437 722 q 436 709 437 715 q 427 692 430 698 q 402 608 402 652 q 400 581 402 591 q 399 557 399 570 q 395 534 397 547 q 393 511 393 522 q 387 457 388 485 q 386 406 386 430 q 386 368 386 391 q 388 334 386 345 q 391 298 391 315 q 395 281 391 289 q 399 267 399 274 q 396 247 397 256 q 395 228 395 237 q 410 182 395 202 q 445 161 421 161 q 460 163 450 161 q 477 159 471 165 q 471 144 482 152 q 454 137 460 137 q 427 142 439 137 q 402 154 415 148 q 388 154 395 154 q 376 157 382 154 q 345 173 360 161 q 313 185 330 185 q 286 186 306 185 q 265 198 265 187 q 277 215 265 203 q 295 231 290 226 q 312 294 312 254 q 309 328 310 311 q 308 363 308 345 q 308 398 308 378 q 315 433 308 418 q 274 445 290 433 q 236 461 258 457 q 163 456 188 469 q 164 438 163 444 q 165 420 165 431 q 161 385 165 402 q 156 350 156 368 q 160 300 156 322 q 165 261 163 278 q 155 236 165 252 q 145 216 145 220 q 156 211 145 211 q 173 211 168 211 q 217 215 202 215 q 232 198 232 215 q 221 182 232 187 q 186 177 204 182 q 154 178 168 172 q 137 178 141 182 q 125 172 134 174 q 86 169 106 167 q 51 163 67 170 q 31 153 39 157 q 16 144 23 148 q -24 132 -11 132 q -42 139 -42 132 q -24 152 -42 144 q 9 178 -5 159 q 26 191 16 183 q 39 210 37 198 q 52 240 43 226 q 65 274 60 254 q 69 315 67 294 q 75 357 71 335 q 77 402 77 380 q 77 446 77 424 q 78 476 77 461 q 80 507 80 491 q 75 533 80 511 q 68 546 71 541 q 65 563 65 552 q 69 579 65 570 q 75 598 73 589 q 77 652 77 616 q 60 704 77 692 q 37 717 52 709 q 19 732 19 728 q 37 743 19 746 q 54 735 43 739 q 73 732 65 732 q 100 733 87 732 q 128 737 112 735 q 172 741 151 737 q 217 745 193 745 q 221 735 221 741 q 206 726 221 726 q 176 713 186 722 q 156 667 156 689 q 160 642 156 654 q 163 618 163 629 l 156 552 l 158 526 q 206 513 178 513 q 261 514 234 507 q 308 515 288 520 q 319 532 319 532 q 322 554 321 543 q 325 576 323 565 q 328 611 328 602 q 322 636 328 624 q 315 663 315 648 q 315 670 315 665 q 315 682 315 676 q 294 705 312 700 q 277 726 277 709 q 282 733 277 733 z "},"i":{"ha":316,"x_min":7,"x_max":285,"o":"m 94 296 q 94 331 94 313 q 98 367 94 350 q 99 400 100 378 q 98 437 98 422 q 95 471 98 454 q 92 505 92 489 q 91 522 92 511 q 90 539 90 532 q 89 557 88 547 q 90 576 90 567 q 87 611 86 593 q 88 646 88 629 q 82 661 86 659 q 72 671 79 663 q 37 680 58 680 q 18 678 29 680 q 7 687 7 676 q 20 694 7 692 q 40 698 33 696 q 98 700 58 700 q 140 692 116 700 q 189 685 164 685 l 240 687 q 258 685 245 687 q 271 680 271 684 q 254 674 271 674 q 231 674 237 674 q 214 668 223 672 q 199 665 205 665 q 181 627 181 656 q 181 583 181 598 q 184 546 181 565 q 186 505 186 526 q 186 465 186 485 q 186 424 186 444 q 189 385 186 402 q 194 348 192 367 q 196 329 194 337 q 197 311 197 320 q 197 279 197 294 q 197 250 197 264 q 220 193 197 211 q 251 178 235 182 q 279 163 268 174 q 234 160 285 152 q 175 170 182 168 q 148 178 170 170 q 103 187 125 185 q 33 180 73 187 q 16 178 16 174 q 33 189 18 185 q 55 195 50 191 q 88 228 85 213 q 94 296 94 258 z "},"j":{"ha":392,"x_min":-107,"x_max":359,"o":"m 281 616 q 289 605 281 615 q 296 589 296 595 q 289 555 296 578 q 281 519 283 541 q 278 478 280 500 q 276 439 276 457 q 286 340 276 380 q 291 309 291 324 q 279 279 291 300 q 263 252 267 259 q 248 223 256 237 q 235 196 241 210 q 178 83 204 132 q 160 57 169 71 q 139 39 152 43 q 82 11 109 28 q 32 -22 56 -5 q 8 -41 20 -28 q -20 -54 -3 -54 q -37 -45 -31 -54 q -52 -31 -42 -37 q -64 -20 -57 -26 q -77 -9 -72 -15 q -93 18 -85 -2 q -107 52 -102 37 q -102 56 -104 56 q -86 38 -94 56 q -64 20 -77 20 q 11 37 -26 20 q 73 66 47 54 q 99 88 95 78 q 113 120 102 98 q 126 154 119 137 q 141 187 134 170 q 154 219 146 203 q 167 254 161 235 q 175 292 171 274 q 178 337 178 309 q 180 380 178 357 q 182 426 182 402 q 184 469 182 446 q 187 515 187 492 q 182 540 187 526 q 176 565 176 553 q 169 588 172 574 q 165 615 165 602 q 153 618 159 615 q 141 623 146 621 q 113 629 124 628 q 84 636 106 631 q 63 648 63 641 q 76 657 63 657 q 134 656 113 657 q 157 651 144 654 q 184 648 169 648 q 233 651 205 648 q 278 663 260 654 q 316 682 283 665 q 352 700 349 700 q 359 692 359 700 q 320 656 359 676 q 281 616 281 635 z "},"k":{"ha":548,"x_min":24,"x_max":625,"o":"m 366 682 q 407 687 376 682 q 444 696 439 692 q 473 716 454 702 q 503 730 492 730 q 513 720 513 730 q 500 704 513 713 q 485 691 488 694 q 446 674 470 680 q 406 657 416 669 q 378 629 389 644 q 323 568 366 618 q 277 507 279 517 q 294 501 281 507 q 313 494 307 494 q 328 486 320 489 q 344 478 336 484 q 396 435 376 446 q 425 416 414 424 q 439 382 435 409 q 446 343 439 365 q 459 309 454 322 q 482 236 472 272 q 507 165 492 200 q 541 104 522 119 q 577 88 555 87 q 612 81 600 89 q 594 65 625 65 q 520 85 555 65 q 468 127 488 98 q 450 155 457 139 q 433 185 442 170 q 408 209 422 198 q 387 233 394 220 q 380 250 381 239 q 378 272 379 261 q 335 370 364 319 q 316 400 330 380 q 296 426 303 420 q 274 439 285 433 q 254 454 262 444 q 229 446 244 461 q 205 420 213 430 q 185 405 199 415 q 172 385 170 395 l 178 309 q 173 263 178 283 q 178 220 168 243 q 191 210 179 215 q 209 200 203 205 q 196 174 227 183 q 123 146 161 167 q 77 117 96 132 q 54 124 54 102 q 59 137 54 130 q 68 150 64 144 q 87 208 81 167 q 92 258 89 233 q 96 311 96 283 q 89 530 96 428 l 89 541 q 90 582 89 563 q 79 616 90 602 q 46 628 68 628 q 24 644 24 628 l 24 648 q 27 654 24 654 q 40 651 33 654 q 54 648 47 648 q 122 659 85 648 q 150 673 130 661 q 176 685 170 685 l 178 685 q 183 680 183 685 l 183 677 q 179 655 183 667 q 176 633 176 644 q 175 608 176 621 q 174 585 174 596 l 174 555 l 176 476 q 183 472 178 472 q 206 497 185 472 q 253 554 227 522 q 301 612 279 585 q 322 644 322 639 q 311 659 322 652 q 298 669 313 657 q 281 700 281 691 q 298 698 281 705 q 319 687 309 692 q 348 682 330 682 l 366 682 z "},"l":{"ha":385,"x_min":31,"x_max":376,"o":"m 35 682 q 52 694 42 685 q 74 704 62 704 l 76 704 q 150 690 111 704 q 227 677 189 676 l 262 680 q 269 677 269 680 q 262 674 269 674 q 233 657 235 674 q 227 628 231 646 q 220 600 222 609 q 215 568 216 583 q 213 535 213 552 q 210 501 213 522 q 207 469 207 479 q 204 432 203 452 q 205 400 205 413 l 189 244 q 205 219 186 228 q 235 203 224 210 q 264 193 244 198 q 300 187 285 187 l 313 187 q 342 193 333 187 q 352 207 351 198 q 370 213 353 215 q 363 193 376 211 q 351 176 351 176 q 330 168 342 168 q 307 165 318 167 q 262 150 285 161 q 216 144 252 144 q 177 154 209 150 q 130 163 144 157 q 105 168 120 165 q 85 172 90 170 q 41 180 66 180 q 37 182 37 180 q 42 187 37 185 q 55 189 48 189 q 68 195 61 189 q 75 201 70 196 q 85 211 79 205 q 98 256 98 224 q 100 261 98 261 q 101 263 100 261 q 105 267 103 264 q 108 288 109 274 q 111 313 107 302 q 115 341 113 326 q 120 368 117 355 q 131 418 125 393 q 137 479 137 444 q 136 542 137 502 q 130 602 135 581 q 125 631 125 615 q 122 659 124 646 q 111 680 118 676 q 89 689 96 689 l 83 689 q 64 685 76 689 q 37 676 41 676 q 31 676 31 676 q 35 682 31 682 z "},"m":{"ha":607,"x_min":-7,"x_max":599,"o":"m 478 702 l 477 682 q 479 647 477 672 q 486 616 482 623 q 486 589 488 604 q 490 563 484 574 q 495 541 492 552 q 500 519 498 530 q 509 471 503 494 q 521 426 515 448 q 526 392 525 409 q 530 359 526 376 q 541 294 532 322 q 562 241 545 267 q 576 218 566 228 q 590 209 581 215 q 599 202 599 203 q 585 188 599 191 q 564 185 571 185 q 539 186 553 185 q 517 187 525 187 q 497 185 505 187 q 478 178 490 183 q 444 165 456 170 q 422 159 439 163 q 404 161 404 155 q 413 169 404 163 q 425 176 421 174 q 444 193 432 182 q 449 205 447 198 q 454 218 450 213 q 467 243 467 237 l 467 250 q 464 276 467 263 q 458 302 460 289 q 454 315 456 307 q 452 330 452 322 q 448 341 450 335 q 445 354 445 348 q 431 405 444 365 q 414 450 419 444 q 409 438 412 444 q 406 428 406 431 q 376 367 388 387 q 356 326 368 347 q 340 283 349 311 q 329 247 334 267 q 319 215 325 228 q 313 205 317 210 q 306 196 308 200 q 280 160 300 185 q 247 135 260 135 q 241 142 241 135 q 253 167 241 159 q 265 196 265 174 l 265 203 q 249 274 265 226 q 224 340 232 322 q 218 356 221 348 q 214 374 216 365 q 199 405 204 387 q 188 439 193 422 q 179 455 184 446 q 175 471 175 463 q 170 452 171 471 q 169 431 169 433 q 161 395 165 420 q 154 357 158 374 q 147 324 151 340 q 145 287 141 306 q 149 271 145 271 q 163 263 153 271 q 175 250 168 259 q 186 241 182 241 q 206 220 206 233 q 193 213 206 213 q 181 216 188 213 q 171 220 175 218 q 130 224 151 224 q 92 228 110 224 q 64 224 80 228 q 43 218 49 220 q 14 209 32 215 q -7 208 -5 202 q 17 224 -1 218 q 31 230 26 228 q 45 237 36 231 q 75 291 62 250 q 82 325 80 307 q 90 361 84 342 q 100 433 97 393 q 112 505 106 472 q 120 539 115 522 q 128 574 125 555 q 127 592 128 583 q 130 613 127 602 q 132 631 130 623 q 136 650 134 639 q 140 686 136 657 q 156 715 145 715 q 175 676 161 715 q 193 626 189 637 q 201 604 197 615 q 212 581 206 593 q 236 541 221 563 q 256 500 251 519 q 261 474 258 485 q 271 452 265 463 q 297 383 286 415 q 298 378 297 378 q 300 374 299 378 q 323 419 313 391 q 340 459 334 448 q 350 506 345 484 q 369 552 354 528 q 391 594 380 572 q 414 637 402 616 q 425 656 419 646 q 437 676 430 667 q 453 693 439 680 q 471 707 467 707 q 478 702 475 707 z "},"n":{"ha":555,"x_min":1,"x_max":549,"o":"m 549 745 q 517 708 544 730 q 479 680 490 687 q 458 665 472 676 q 442 648 444 654 q 429 561 429 613 q 432 505 429 533 q 435 448 435 476 q 436 391 435 420 q 440 335 438 361 q 450 287 440 319 q 458 266 452 276 q 470 246 465 256 q 475 224 473 235 q 483 202 477 213 q 497 183 485 196 q 509 167 509 170 q 477 142 509 142 q 447 155 463 142 q 425 180 431 168 q 403 203 416 191 q 381 226 390 215 q 356 247 370 237 q 333 267 342 256 q 309 289 320 278 q 287 311 298 300 q 264 334 279 317 q 245 361 250 352 q 228 389 240 368 q 211 416 216 409 q 189 440 201 426 q 168 463 177 454 q 153 472 164 463 q 142 479 142 481 q 140 460 142 479 q 138 439 138 441 q 140 418 138 428 q 144 396 142 408 q 144 372 144 387 q 144 352 144 357 q 143 304 144 328 q 148 263 142 281 q 183 205 153 224 q 213 187 191 200 q 235 165 235 174 q 216 159 235 159 q 185 163 199 159 q 155 167 172 167 q 118 163 140 167 q 81 159 100 163 q 51 152 73 157 q 20 148 29 146 q 18 163 1 152 q 38 174 24 168 q 59 185 53 180 q 70 207 64 191 q 77 237 75 224 q 87 297 79 269 q 94 359 94 326 q 91 397 94 378 q 88 437 88 416 q 87 472 88 454 q 87 511 87 491 q 85 533 87 522 q 83 555 83 545 q 83 580 83 567 q 81 604 83 593 q 66 637 77 626 q 46 644 59 641 q 33 657 33 646 q 55 670 33 669 q 88 671 77 671 q 151 654 129 671 q 172 634 166 643 q 189 611 177 626 q 203 588 194 598 q 220 565 212 578 q 233 539 225 552 q 248 515 240 526 q 277 466 262 489 q 314 422 292 443 q 350 379 331 404 q 387 339 368 355 q 377 387 387 354 q 374 443 374 408 q 371 500 374 471 q 362 550 368 530 q 354 572 357 563 q 348 595 351 581 q 335 613 342 606 q 323 631 329 621 q 292 657 309 650 q 266 663 283 659 q 250 676 250 667 q 283 684 250 692 q 328 676 316 676 l 346 676 q 397 688 357 676 q 453 705 438 700 q 518 745 492 718 q 535 754 524 750 q 549 745 546 758 z "},"o":{"ha":424,"x_min":11,"x_max":406,"o":"m 107 545 q 107 519 107 530 q 107 498 107 509 q 105 474 104 487 q 107 450 107 461 q 106 401 107 431 q 109 354 105 370 q 112 331 111 342 q 117 309 113 320 q 137 281 118 292 q 166 261 146 276 q 180 250 170 258 q 196 243 191 243 q 220 263 203 243 q 239 279 224 269 q 255 300 246 287 q 274 319 264 313 q 290 339 287 330 q 300 365 292 348 q 306 395 305 382 q 307 431 307 408 q 308 448 307 437 q 309 467 309 459 q 308 483 309 474 q 307 502 307 491 q 302 533 307 526 q 289 555 298 541 q 271 576 279 567 q 257 598 262 585 q 198 628 241 628 q 163 617 174 628 q 142 596 153 606 q 119 573 131 587 q 107 545 107 559 m 200 172 q 180 182 196 172 q 161 196 165 193 q 120 215 148 205 q 78 233 96 224 q 44 261 59 243 q 20 297 28 281 q 13 352 13 313 q 12 410 13 380 q 16 469 11 441 q 18 495 18 481 q 24 522 18 509 q 34 543 29 533 q 44 563 39 552 q 68 598 56 580 q 98 629 81 616 q 114 644 105 635 q 131 657 122 652 q 149 669 140 665 q 168 682 157 674 q 205 705 189 694 q 224 721 213 711 q 246 730 235 730 q 271 713 257 730 q 292 691 285 696 q 313 669 303 680 q 335 648 323 659 q 378 606 351 631 q 406 550 406 581 l 406 485 q 402 456 406 469 q 398 430 398 443 q 383 380 393 406 q 365 334 372 347 q 353 311 355 317 q 338 294 350 306 q 320 279 330 287 q 303 264 311 271 q 285 249 292 258 q 270 233 277 241 q 255 216 261 224 q 241 198 248 208 q 221 181 233 191 q 200 172 209 172 z "},"p":{"ha":440,"x_min":5,"x_max":420,"o":"m 165 648 q 163 618 165 631 q 161 593 161 606 q 157 541 157 563 q 157 511 157 524 q 155 485 157 498 q 149 461 153 469 q 142 441 144 454 q 175 433 152 431 q 209 439 198 435 q 233 450 218 443 q 263 492 252 465 q 274 514 267 504 q 287 535 281 524 q 294 547 291 541 q 300 559 296 553 q 311 581 311 570 l 311 585 q 306 598 311 587 q 300 615 300 609 q 281 639 294 626 q 254 654 272 644 q 222 663 237 663 l 208 663 q 165 648 176 663 m 9 692 q 18 702 9 702 q 33 696 22 702 q 48 691 43 691 q 65 687 54 689 q 81 685 76 685 q 115 691 98 685 q 148 698 132 696 q 182 703 165 698 q 220 707 200 707 q 290 698 259 707 q 348 677 320 689 q 375 664 359 672 q 398 646 391 656 q 415 622 409 631 q 420 589 420 613 l 420 585 q 406 576 420 583 q 391 565 396 572 q 382 545 385 555 q 374 530 380 535 q 362 516 368 522 q 350 504 355 509 q 338 487 340 496 q 330 471 335 478 q 320 456 324 459 q 312 449 315 452 q 305 444 309 446 q 291 431 298 437 q 276 420 283 426 q 260 410 269 415 q 246 402 252 406 q 208 387 228 387 q 186 394 196 387 q 167 400 176 400 q 151 399 161 400 q 140 396 140 398 q 140 384 140 393 q 140 370 140 374 q 141 345 140 363 q 142 322 142 328 q 145 298 142 315 q 150 278 148 281 q 155 255 150 276 q 159 233 159 233 q 157 222 159 228 q 157 211 155 216 q 168 197 157 203 q 183 187 178 191 q 197 177 189 182 q 215 168 205 172 q 257 161 226 163 q 307 159 289 159 q 311 155 311 159 q 293 147 311 150 q 269 144 274 144 l 231 144 q 191 152 220 144 q 173 157 181 152 q 157 163 165 161 q 126 172 146 165 q 81 180 105 180 q 45 177 63 178 q 9 176 28 176 q 5 182 7 176 q 20 187 11 185 q 35 195 29 189 q 48 224 41 202 q 61 296 54 248 q 64 323 63 309 q 68 352 64 337 q 74 368 74 368 q 76 386 76 376 q 77 408 76 396 q 79 448 79 418 q 78 473 79 459 q 76 500 76 487 q 76 520 76 511 q 76 541 76 530 l 76 615 l 77 656 q 68 659 72 657 q 61 665 64 661 q 41 672 46 672 q 18 676 26 672 q 9 692 9 680 z "},"q":{"ha":496,"x_min":14,"x_max":587,"o":"m 349 413 q 346 431 349 420 q 342 450 342 441 q 338 468 340 457 q 334 489 336 479 q 307 550 327 519 q 290 577 298 563 q 275 608 283 591 q 244 643 260 637 q 225 646 233 643 q 211 632 216 641 q 194 621 205 624 q 173 615 177 615 q 155 606 168 615 q 129 576 140 595 q 123 551 123 561 q 123 528 123 541 q 119 491 123 511 q 111 454 114 471 q 107 402 107 435 q 124 345 107 370 q 153 300 140 319 q 165 278 159 289 q 181 256 172 267 q 231 231 199 231 q 283 248 253 231 q 326 287 314 264 q 333 316 331 298 q 340 348 334 334 q 346 379 342 359 q 349 413 349 398 m 422 222 q 451 193 431 211 q 488 170 471 176 l 503 165 q 541 157 527 154 q 559 168 553 157 q 581 167 564 178 q 565 148 587 161 q 541 134 544 134 q 514 132 529 127 q 485 142 499 137 q 454 144 473 142 q 429 146 435 146 q 400 150 412 144 q 372 163 389 155 q 337 188 366 170 q 292 218 309 205 q 272 210 288 216 q 249 198 260 203 q 227 187 238 193 q 206 170 216 180 q 184 159 196 159 q 151 185 168 159 q 125 217 140 202 q 100 248 111 231 q 62 326 73 287 q 51 357 57 340 q 40 391 44 374 q 29 420 37 406 q 18 452 22 435 q 15 479 16 456 q 14 507 14 502 q 33 574 18 548 q 75 618 44 591 q 101 647 90 635 q 133 676 113 659 q 151 685 142 682 q 170 696 161 689 q 207 715 192 715 q 229 705 214 715 q 242 701 238 700 q 257 702 245 702 q 301 682 277 696 q 335 652 316 671 q 364 616 355 633 q 409 533 375 581 q 420 512 414 522 q 431 492 425 502 q 448 444 448 469 q 436 387 448 415 q 414 340 425 359 q 395 301 403 320 q 375 264 387 281 q 422 222 396 248 z "},"r":{"ha":496,"x_min":-18,"x_max":526,"o":"m 252 659 l 219 656 q 210 634 213 639 q 202 621 208 629 q 193 601 198 615 q 189 581 187 587 l 197 532 q 197 515 197 522 q 197 500 197 507 q 195 484 197 489 q 195 471 193 479 q 215 469 205 463 q 235 476 224 474 q 267 495 256 476 q 283 533 278 515 q 288 559 286 545 q 296 587 291 574 q 309 611 296 593 q 321 631 321 629 q 310 645 321 635 q 294 656 298 654 q 252 659 274 661 m 108 515 q 104 556 108 535 q 100 600 100 578 q 87 644 98 629 q 43 659 76 659 q 32 672 32 665 q 52 680 32 680 q 87 686 68 682 q 124 692 106 691 q 180 696 152 694 q 235 702 208 698 q 261 701 248 702 q 291 700 274 700 q 345 698 311 702 q 385 682 372 687 q 406 672 397 676 q 422 657 420 669 q 418 640 422 646 q 412 626 413 633 q 398 563 400 585 q 395 532 398 547 q 358 489 389 515 q 309 457 326 463 q 317 426 313 441 q 326 396 321 411 q 363 330 337 361 q 382 298 374 313 q 397 260 385 287 q 417 230 410 233 q 431 220 428 222 q 445 208 433 218 q 481 195 454 195 q 497 203 491 195 q 513 213 504 211 q 526 198 522 213 q 508 183 526 195 q 498 173 504 180 q 491 167 493 167 q 463 159 480 161 q 435 156 448 159 q 410 154 422 152 q 391 159 406 154 q 372 167 376 165 q 342 191 356 172 q 333 207 337 198 q 324 226 330 216 q 306 263 315 244 q 276 340 283 296 q 270 376 273 357 q 265 413 267 395 q 252 430 265 431 q 220 426 243 430 q 193 416 197 422 q 193 355 195 383 q 191 283 189 307 q 245 250 193 243 q 265 233 260 250 q 252 226 265 226 q 233 225 241 224 q 213 226 224 226 q 154 224 172 226 q 124 214 139 220 q 96 203 109 208 q 12 189 45 191 q -18 205 -18 185 q -9 212 -18 211 q 4 215 0 213 q 32 222 13 215 q 50 233 37 224 q 67 250 63 243 q 76 271 73 261 q 85 292 80 281 q 93 316 89 300 q 98 342 96 332 q 102 369 98 354 q 108 395 106 383 q 109 423 108 406 q 109 452 109 441 q 108 515 108 474 z "},"s":{"ha":376,"x_min":3,"x_max":344,"o":"m 340 715 q 336 691 338 704 q 333 667 333 677 q 337 654 333 661 q 340 641 340 646 q 340 626 340 633 q 340 613 340 618 q 330 586 340 596 q 315 565 320 576 q 297 542 300 543 q 274 530 294 541 q 255 534 268 532 q 242 547 242 537 q 257 565 242 557 q 268 571 262 567 q 279 578 274 574 q 293 599 285 581 q 296 628 302 616 q 285 640 294 628 q 270 652 275 652 q 240 657 250 652 q 226 663 231 663 q 209 660 213 663 q 185 656 205 657 q 170 648 170 648 l 165 606 l 165 593 q 180 562 165 581 q 201 535 196 543 q 221 508 213 519 q 248 485 229 496 q 262 476 254 479 q 277 467 270 472 q 303 444 287 457 q 326 420 320 431 q 332 407 328 415 q 338 385 337 398 q 341 367 338 374 q 342 342 344 359 q 327 290 342 324 q 302 244 311 256 q 263 208 279 218 q 220 183 248 198 q 186 165 207 172 q 153 152 165 157 q 127 143 137 146 q 100 139 117 139 q 64 165 85 139 q 26 210 50 182 q 3 264 3 239 l 3 279 q 12 309 3 287 q 26 337 20 332 q 87 361 46 361 q 115 332 115 361 q 109 318 115 328 q 98 309 103 309 q 87 318 89 309 q 77 326 85 326 l 75 326 q 70 322 70 326 q 64 319 70 319 q 44 296 44 319 l 44 271 q 73 237 44 263 q 140 220 102 211 q 174 235 163 226 q 207 261 185 244 q 217 277 213 271 q 227 294 222 283 q 243 328 239 317 q 248 363 248 339 q 212 403 241 380 q 165 448 183 426 q 147 465 163 454 q 125 479 131 476 q 87 513 113 487 q 76 534 81 517 q 66 561 70 552 q 52 583 61 570 q 42 606 42 595 l 42 611 q 43 618 42 615 q 44 626 44 621 q 54 646 50 635 q 70 667 59 656 q 105 698 87 689 q 211 726 151 726 q 246 724 224 726 q 279 724 268 722 q 307 734 285 726 q 331 743 330 743 q 344 732 344 743 q 340 715 344 726 z "},"t":{"ha":470,"x_min":29,"x_max":448,"o":"m 290 340 q 290 313 290 332 q 292 287 290 294 q 294 261 294 281 q 298 235 294 250 q 306 217 298 224 q 320 200 315 211 q 331 183 323 185 q 357 178 342 178 q 384 186 366 178 q 411 195 401 195 q 425 183 425 195 q 415 170 425 178 q 401 157 405 161 q 349 146 390 146 q 308 151 329 146 q 264 155 287 155 q 257 155 259 155 q 252 154 255 154 q 212 157 225 154 q 157 157 199 159 q 131 161 133 157 q 148 179 135 178 q 177 185 161 180 q 191 204 189 187 q 197 233 194 220 q 203 264 201 244 q 207 294 205 283 q 208 328 207 311 q 212 361 209 345 q 212 393 212 378 q 214 426 211 409 q 215 458 216 441 q 214 492 214 476 q 213 508 214 500 q 212 526 212 517 q 211 559 212 552 q 209 592 209 570 q 209 628 209 613 q 189 632 199 633 q 170 631 179 631 q 142 628 151 631 q 103 598 118 618 q 87 576 94 587 q 75 555 81 565 q 60 535 62 537 q 52 524 57 532 q 44 517 47 517 q 29 532 31 517 q 47 567 40 553 q 62 609 57 581 q 65 633 62 621 q 68 659 68 646 q 67 688 68 671 q 77 705 66 705 q 92 697 83 704 q 113 689 101 691 q 179 682 133 682 q 195 683 189 682 q 209 685 201 685 q 242 687 233 685 q 270 692 264 692 q 300 696 285 692 q 331 695 315 696 q 363 700 348 694 q 396 709 387 704 q 414 715 405 715 q 427 699 425 715 q 431 671 429 684 q 440 616 433 650 q 446 591 442 609 q 448 563 448 581 q 444 532 446 552 q 435 511 442 511 q 423 529 424 511 q 422 557 422 547 q 414 580 422 570 q 404 598 407 595 q 371 627 392 609 q 329 644 349 644 q 307 641 315 644 q 299 615 301 637 q 298 587 298 593 q 295 567 296 576 q 294 548 294 557 q 292 507 294 519 q 291 465 290 487 q 292 424 292 443 q 291 381 292 402 q 290 340 290 359 z "},"u":{"ha":505,"x_min":16,"x_max":509,"o":"m 40 707 q 47 715 40 715 q 66 706 50 715 q 103 700 83 696 q 116 701 109 700 q 133 702 123 702 l 198 700 q 203 689 203 700 q 198 680 203 684 q 192 661 192 676 q 172 567 189 608 q 161 537 166 555 q 155 505 155 519 q 153 470 155 489 q 150 435 150 452 q 154 369 150 402 q 174 306 157 335 q 185 280 179 292 q 199 258 192 269 q 220 241 207 246 q 303 243 255 222 q 333 279 315 246 q 357 326 351 311 q 362 353 359 337 q 366 383 366 368 l 366 461 q 363 513 366 479 q 359 535 363 524 q 355 559 355 547 q 349 581 353 565 q 340 600 344 596 q 332 604 336 602 q 323 609 328 606 q 300 613 315 613 q 294 623 294 618 q 315 631 294 631 q 357 621 342 631 q 365 617 359 618 q 377 615 372 615 q 388 611 383 613 q 398 609 392 609 q 441 598 414 600 q 468 574 468 596 q 456 551 468 568 q 442 528 444 533 q 433 465 433 504 q 428 419 433 443 q 420 372 424 395 q 414 342 414 355 q 427 264 414 300 q 483 231 439 220 q 496 234 485 231 q 507 231 507 237 q 500 218 509 226 q 492 210 492 210 q 460 205 485 205 q 428 198 444 205 q 396 191 412 191 q 378 205 391 191 q 361 220 366 220 q 351 208 357 220 q 337 197 348 202 q 320 191 326 193 q 267 178 294 180 q 240 174 254 176 q 216 172 227 172 q 184 182 207 172 q 151 196 161 193 q 92 228 113 203 q 72 252 77 239 q 59 283 66 264 q 43 313 52 294 q 27 342 35 332 q 31 393 16 359 q 52 446 46 426 q 55 463 52 454 q 61 481 59 472 q 68 516 62 498 q 79 550 74 533 q 87 586 83 563 q 92 626 92 609 q 72 676 92 663 q 40 707 40 687 z "},"v":{"ha":505,"x_min":-81,"x_max":535,"o":"m 269 322 q 279 348 269 328 q 294 378 289 368 q 306 406 300 387 q 315 437 311 424 q 328 504 321 465 q 333 537 330 520 q 337 574 337 553 l 337 591 q 323 601 337 596 q 300 606 309 606 q 289 621 289 616 q 309 631 289 626 q 335 627 321 631 q 359 623 349 623 q 389 618 378 618 q 430 626 411 618 q 467 641 448 633 q 502 654 494 650 q 510 655 504 654 q 522 657 517 657 q 535 643 535 654 q 512 625 535 635 q 484 613 489 615 q 458 595 476 608 q 437 578 441 583 q 426 548 431 563 q 415 520 420 533 q 401 492 408 505 q 389 467 395 479 q 375 439 383 456 q 365 409 367 422 q 356 378 361 393 q 347 348 350 363 q 326 287 337 320 q 315 220 315 254 l 315 215 q 336 195 315 203 q 357 176 357 187 q 354 163 357 163 q 332 165 342 163 q 313 168 321 168 q 292 168 302 168 q 273 167 281 167 q 226 164 250 167 q 180 161 202 161 q 134 142 159 159 q 124 135 128 139 q 115 130 121 132 q 95 121 109 127 q 81 127 81 115 q 98 149 81 141 q 126 167 115 157 q 159 216 146 182 q 168 250 167 233 q 172 287 169 267 q 175 326 174 306 q 176 367 176 347 q 173 396 176 383 q 170 422 170 409 q 164 448 169 433 q 159 474 159 463 q 148 524 156 502 q 132 568 139 547 q 115 599 124 585 q 98 629 106 613 q 73 665 91 643 q 56 677 68 671 q 35 689 45 684 q 12 694 26 694 q -8 694 2 694 q -26 691 -18 694 q -35 665 -35 685 q -19 654 -35 654 q -3 639 -3 654 q -52 633 -22 637 q -81 656 -81 629 l -81 677 q -66 709 -81 696 q -37 726 -52 722 q -2 736 -16 730 q 35 743 13 743 q 98 717 68 743 q 117 694 109 705 q 134 672 124 684 q 163 623 152 639 q 178 596 170 609 q 195 572 185 583 q 222 520 205 550 q 246 465 239 491 q 259 398 252 443 q 261 379 261 391 q 263 361 261 367 q 267 324 267 342 q 269 322 267 315 z "},"w":{"ha":600,"x_min":3,"x_max":589,"o":"m 348 148 q 338 158 342 148 q 333 174 333 168 q 330 211 330 196 q 309 274 323 244 q 295 300 302 287 q 283 330 289 313 q 270 360 277 339 q 257 387 262 382 q 229 342 252 383 q 199 292 205 302 q 172 246 191 276 q 155 220 166 239 q 138 202 144 202 q 131 220 131 202 q 133 233 131 226 q 135 246 135 241 l 135 294 q 129 341 135 320 q 122 385 123 363 q 113 429 117 408 q 103 472 109 450 q 97 492 100 481 q 92 513 94 502 q 79 552 81 532 q 72 571 75 559 q 66 591 68 583 q 41 621 54 621 q 16 623 20 621 q 3 635 3 628 q 24 644 3 650 q 55 643 46 644 q 115 648 81 639 q 141 653 131 650 q 166 663 151 657 q 190 671 172 665 q 218 677 209 677 q 226 667 226 677 q 194 633 226 652 q 163 574 163 615 q 164 564 163 568 q 165 553 165 559 q 166 530 165 539 q 171 490 166 511 q 181 450 176 469 q 184 430 181 439 q 189 409 186 420 q 211 444 199 418 q 219 466 216 456 q 227 487 222 476 q 246 528 235 511 q 256 547 248 532 q 270 563 264 563 q 285 541 274 563 q 292 511 289 526 q 302 484 296 496 q 338 409 313 450 q 353 383 342 404 q 368 363 363 363 q 376 398 372 380 q 385 430 378 415 q 396 460 389 443 q 409 491 404 478 q 417 522 412 500 q 424 557 422 545 q 427 595 426 574 q 431 633 427 616 q 414 645 426 639 q 394 657 401 652 q 383 662 387 659 q 374 669 379 665 q 359 687 359 677 q 368 696 359 696 q 385 688 370 696 q 407 677 399 680 q 431 676 412 676 q 442 674 437 676 q 457 672 448 672 q 489 677 470 672 q 522 685 509 682 q 553 692 536 687 q 568 697 557 692 q 583 702 579 702 q 589 694 589 702 q 564 667 589 680 q 536 646 551 661 q 498 585 515 621 q 487 548 492 574 q 475 511 481 526 q 461 475 468 492 q 448 441 454 457 q 426 363 433 398 q 416 323 422 350 q 406 287 411 296 q 391 254 394 261 q 385 233 387 243 q 381 215 383 224 q 367 176 376 203 q 348 148 357 148 z "},"x":{"ha":581,"x_min":-7,"x_max":571,"o":"m 386 682 q 399 693 386 692 q 423 696 412 694 q 447 697 434 698 q 471 698 460 696 q 493 702 486 702 q 513 707 510 707 q 534 711 523 707 q 556 715 545 715 q 571 698 571 715 q 547 692 571 692 q 525 687 530 692 q 467 628 486 654 q 454 611 462 618 q 441 596 447 604 q 418 561 430 580 q 395 526 406 543 q 384 507 389 515 q 373 491 378 500 q 366 482 368 485 q 360 474 363 479 q 353 465 356 471 q 349 457 351 459 q 355 438 351 452 q 363 418 360 424 q 382 385 369 402 q 404 354 391 368 q 425 322 416 339 q 469 261 447 281 q 483 247 480 248 q 503 241 486 246 q 521 233 508 235 q 538 226 538 233 q 522 216 538 215 q 497 216 506 216 q 421 217 458 216 q 345 210 384 218 q 333 205 340 208 q 321 203 327 203 q 302 215 302 203 q 317 226 302 226 q 340 233 332 226 q 345 242 347 239 q 349 254 343 246 q 352 262 349 258 q 356 272 356 267 q 346 304 356 289 q 327 334 336 319 q 305 356 323 337 q 284 374 288 374 q 257 331 279 374 q 231 279 236 287 q 216 257 223 269 q 203 235 208 246 q 184 213 197 230 q 171 193 171 196 q 176 189 175 191 q 184 187 176 187 q 192 187 186 187 q 201 187 199 187 q 219 168 219 180 q 195 157 219 157 q 138 158 156 159 q 93 157 119 157 q 45 154 54 157 q 23 148 39 152 q 3 144 6 144 q -7 152 -7 144 q 8 170 -7 168 q 36 178 23 172 q 58 187 47 183 q 79 202 69 191 q 94 220 84 210 q 110 241 104 231 q 136 283 119 261 q 161 326 145 296 q 186 368 171 339 q 213 413 191 380 q 234 457 234 446 q 216 483 234 457 q 197 515 199 509 q 187 528 191 520 q 176 543 182 535 q 166 554 171 548 q 156 568 161 561 q 136 596 145 587 q 120 605 125 606 q 99 606 115 604 q 55 611 86 608 q 24 626 24 615 q 38 641 24 635 q 69 642 52 644 q 102 639 86 639 l 138 639 q 164 643 153 639 q 188 650 175 646 q 216 654 199 652 q 229 655 221 654 q 241 657 236 657 q 259 654 247 657 q 271 644 271 652 q 262 638 271 639 q 249 637 252 637 q 229 624 229 629 q 240 591 229 613 q 258 563 252 568 q 267 548 262 557 q 279 535 273 539 q 290 523 284 530 q 300 515 295 517 q 313 529 306 520 q 327 545 321 537 q 340 561 336 557 q 345 567 341 563 q 353 574 349 570 q 379 606 360 583 q 399 643 399 628 q 392 667 399 661 q 386 682 386 672 z "},"y":{"ha":581,"x_min":-191,"x_max":608,"o":"m 467 728 q 545 741 498 728 q 552 743 549 741 q 562 746 555 745 q 580 750 563 746 q 596 755 585 750 q 608 746 608 760 q 589 718 608 722 q 567 718 569 718 q 550 713 565 718 q 533 706 539 709 q 519 698 526 702 q 495 673 502 689 q 484 641 489 657 q 471 606 476 624 q 459 570 465 587 q 447 536 452 550 q 437 500 441 522 q 426 463 432 472 q 410 433 420 454 q 378 372 387 393 q 346 310 361 342 q 313 252 330 278 q 294 221 302 235 q 276 195 286 208 q 255 166 265 182 q 237 139 245 150 q 210 95 226 122 q 178 58 195 68 q 163 48 170 52 q 150 39 156 45 q 123 19 139 30 q 93 2 108 7 q 77 -4 85 0 q 63 -11 68 -7 q 45 -18 54 -15 q 30 -26 37 -20 q 0 -41 15 -31 q -31 -56 -15 -50 q -49 -60 -41 -58 q -68 -66 -57 -63 q -83 -73 -76 -68 q -102 -78 -91 -78 q -154 -47 -117 -66 q -191 -5 -191 -28 q -191 19 -191 0 q -178 37 -191 37 q -168 15 -168 37 q -163 2 -167 5 q -157 -7 -159 -2 q -119 -11 -137 -7 q -101 -15 -109 -11 q -83 -18 -92 -18 q -43 -9 -57 -18 q 35 24 2 13 q 62 34 52 30 q 89 48 73 39 q 130 83 119 68 q 142 107 136 94 q 157 132 149 120 q 171 155 165 142 q 185 180 178 168 q 213 228 204 208 q 226 255 215 231 q 237 281 237 279 q 227 292 237 287 q 217 311 217 296 q 210 352 213 337 q 200 393 204 367 q 191 431 197 418 q 177 465 185 443 q 165 502 169 487 q 157 543 161 528 q 152 562 156 548 q 149 581 149 576 q 124 585 139 585 q 87 581 102 581 q 58 602 58 581 q 76 616 58 616 q 89 612 80 615 q 102 609 98 609 q 133 613 119 609 q 161 623 146 616 q 226 624 187 628 q 256 617 243 618 q 288 624 269 616 q 298 629 293 626 q 311 635 304 631 q 323 642 313 635 q 334 648 334 648 q 345 639 341 648 q 342 624 349 629 q 321 606 334 613 q 302 600 308 600 q 289 598 296 600 q 274 590 278 595 q 265 583 271 585 q 272 540 269 561 q 281 492 276 519 q 287 445 286 467 q 300 406 289 424 q 311 418 300 406 q 322 435 321 431 q 333 448 328 443 q 342 465 337 454 q 359 497 350 481 q 378 530 369 513 q 387 546 382 537 q 395 565 393 555 q 397 575 397 570 q 398 587 397 580 q 402 594 398 591 q 408 604 406 598 q 410 611 410 608 q 415 621 411 615 q 419 628 417 624 q 425 637 420 631 q 437 692 437 665 q 402 704 437 704 q 381 706 393 704 q 369 720 369 707 q 410 730 369 732 q 467 728 450 728 z "},"z":{"ha":470,"x_min":18,"x_max":500,"o":"m 389 687 q 412 683 396 687 q 431 674 427 680 q 452 665 452 674 q 439 652 452 656 q 427 639 429 646 q 416 625 422 633 q 406 611 411 616 q 393 596 398 604 q 383 583 389 589 q 370 571 376 578 q 359 559 365 565 q 337 530 352 552 q 318 500 322 507 q 302 475 311 489 q 294 448 294 461 q 293 441 294 443 q 292 437 292 439 q 293 431 292 431 q 294 426 294 430 q 263 385 294 420 q 226 342 231 350 q 190 298 216 332 q 161 258 163 264 q 186 245 166 256 q 214 231 205 235 q 261 200 241 218 q 284 185 267 193 q 313 174 302 178 q 326 169 318 170 q 342 165 333 167 q 358 163 342 165 q 376 161 374 161 q 405 169 393 161 q 431 182 416 176 q 458 191 442 185 q 472 213 474 196 q 459 241 472 228 q 427 254 446 254 q 416 246 422 254 q 404 239 411 239 q 393 258 393 239 q 405 272 393 263 q 422 281 416 281 q 477 259 459 281 q 498 198 500 226 q 478 158 498 180 q 448 130 459 137 q 401 116 433 120 q 346 111 368 111 q 307 117 320 111 q 275 123 290 120 q 244 135 259 126 q 172 172 196 154 q 102 210 150 187 q 81 217 90 213 q 63 226 72 220 q 51 228 52 228 q 41 230 50 228 q 18 235 18 230 q 33 250 18 246 q 85 289 59 256 q 96 308 90 298 q 107 328 102 317 q 132 363 118 342 q 155 400 146 389 q 168 416 161 408 q 183 433 176 424 q 208 470 185 439 q 231 505 231 502 q 229 522 231 517 q 238 536 233 528 q 248 550 242 545 q 270 574 256 559 q 280 587 276 580 q 290 600 285 595 q 315 628 307 613 q 306 628 309 628 q 296 628 302 628 q 276 626 285 628 q 256 624 267 624 q 214 621 237 624 q 178 611 193 615 q 152 593 163 608 q 119 531 140 578 q 79 485 98 485 q 68 491 68 485 q 79 520 68 496 q 92 553 89 545 q 104 587 96 563 q 113 623 113 611 q 113 633 113 628 q 113 644 113 639 q 112 652 113 648 q 111 661 111 656 q 138 692 111 692 q 157 690 152 692 q 174 687 163 687 q 205 680 186 682 q 221 677 214 677 q 239 677 228 677 q 274 674 261 674 q 303 676 289 674 q 333 677 318 677 q 360 682 346 677 q 389 687 374 687 z "},"{":{"ha":688,"x_min":0,"x_max":0,"o":""},"|":{"ha":688,"x_min":0,"x_max":0,"o":""},"}":{"ha":688,"x_min":0,"x_max":0,"o":""},"~":{"ha":688,"x_min":60,"x_max":624,"o":"m 208 552 q 274 581 236 576 q 342 559 313 585 q 381 538 363 542 q 407 532 399 534 q 429 503 422 519 q 450 475 437 486 q 506 435 478 445 q 541 429 527 425 q 583 435 555 433 q 606 445 589 435 q 624 445 624 455 q 617 417 624 437 q 596 396 611 396 q 522 387 547 389 q 458 405 496 386 q 437 422 446 410 q 414 443 428 435 q 381 465 399 450 q 349 489 363 479 q 309 497 338 490 q 267 504 279 504 q 211 477 229 499 q 170 452 193 455 q 125 430 139 448 q 90 412 111 412 q 73 426 86 412 q 68 443 60 440 q 110 459 96 452 q 146 489 124 465 q 178 522 163 507 q 208 552 193 537 z "},"":{"ha":262,"x_min":20,"x_max":252,"o":"m 65 902 q 77 926 65 909 q 98 946 89 943 q 126 954 107 948 q 154 958 144 959 q 174 940 170 950 q 185 913 178 930 q 193 883 185 909 q 200 857 200 857 q 176 831 196 828 q 146 844 159 831 q 119 859 134 857 q 104 854 109 859 q 89 852 100 850 q 71 869 78 852 q 65 902 63 887 m 61 72 q 44 67 50 72 q 35 65 39 63 q 20 81 20 65 q 20 83 20 81 q 20 87 20 85 q 32 105 20 87 q 48 130 44 124 q 68 195 65 157 q 67 225 68 211 q 71 259 66 239 q 71 292 71 283 q 66 320 71 300 q 60 377 63 332 q 59 439 58 422 l 59 469 l 68 533 q 75 602 72 565 q 78 694 78 639 q 87 738 78 711 q 107 765 96 765 q 137 753 119 765 q 144 735 144 748 q 144 713 144 722 q 135 691 142 702 q 127 663 127 680 q 127 642 127 652 q 127 621 126 631 q 139 543 130 587 q 154 481 148 498 q 156 438 157 465 q 157 395 154 411 q 160 350 163 370 q 167 309 157 330 q 176 272 170 302 q 183 231 182 243 q 190 192 185 213 q 200 154 195 170 q 200 107 203 142 q 202 85 200 98 q 205 66 203 72 q 230 40 208 56 q 252 18 252 24 q 239 -5 252 -5 q 201 16 230 -5 q 161 45 172 37 q 113 59 148 52 q 87 65 89 63 q 73 68 81 65 q 61 72 65 72 z "},"":{"ha":772,"x_min":0,"x_max":0,"o":""},"":{"ha":688,"x_min":0,"x_max":0,"o":""},"":{"ha":688,"x_min":0,"x_max":0,"o":""},"":{"ha":856,"x_min":0,"x_max":0,"o":""},"":{"ha":688,"x_min":0,"x_max":0,"o":""},"":{"ha":688,"x_min":0,"x_max":0,"o":""},"":{"ha":694,"x_min":197,"x_max":481,"o":"m 205 882 q 220 898 210 897 q 240 903 229 899 q 281 895 257 906 l 288 890 q 297 866 294 884 q 299 840 301 849 q 279 821 292 830 q 260 812 272 814 q 248 814 253 812 q 237 819 242 817 q 223 820 233 819 q 214 821 214 821 q 202 846 207 827 q 203 878 197 865 l 205 882 m 387 836 q 390 872 380 852 q 416 897 400 891 q 448 897 429 901 q 476 859 471 891 q 467 819 481 827 l 463 817 q 438 818 456 814 q 416 815 420 821 q 387 836 395 815 z "},"":{"ha":1135,"x_min":0,"x_max":0,"o":""},"":{"ha":439,"x_min":0,"x_max":0,"o":""},"":{"ha":376,"x_min":27,"x_max":359,"o":"m 27 530 q 46 548 27 537 q 73 568 64 559 q 101 587 92 587 q 127 600 111 587 q 147 624 131 602 q 168 644 157 635 q 176 656 174 650 q 189 669 179 663 q 200 677 189 669 q 214 685 212 685 l 216 685 q 222 680 222 685 q 209 660 222 674 q 192 641 195 646 q 168 602 182 623 q 149 582 157 585 q 134 570 140 578 q 124 547 127 559 q 111 530 121 535 q 133 501 121 509 q 162 465 144 492 q 201 428 170 448 q 217 411 205 424 q 229 395 229 398 l 229 391 l 225 391 q 196 402 218 391 q 168 418 174 413 q 140 433 146 430 q 118 452 134 435 q 98 474 101 467 q 72 491 96 481 q 46 508 64 491 q 27 530 27 524 m 155 528 q 173 548 155 537 q 201 568 192 559 q 230 587 220 587 q 257 598 240 587 q 275 624 264 606 q 284 634 281 631 q 296 644 288 637 q 304 655 301 648 q 316 669 307 661 q 328 676 316 669 q 342 684 340 684 l 344 684 q 349 677 349 684 q 336 659 349 672 q 319 641 323 646 q 296 600 314 629 q 277 579 285 583 q 264 568 270 576 q 252 546 255 559 q 240 528 250 533 q 260 500 250 507 q 290 465 271 492 q 329 428 298 448 q 346 411 333 424 q 359 395 359 398 l 359 389 l 353 389 q 323 401 346 389 q 296 418 301 413 q 268 432 273 428 q 245 452 262 435 q 226 473 229 467 q 199 489 223 479 q 173 507 192 491 q 155 528 155 522 z "},"":{"ha":688,"x_min":0,"x_max":0,"o":""},"":{"ha":1135,"x_min":0,"x_max":0,"o":""},"":{"ha":454,"x_min":0,"x_max":0,"o":""},"":{"ha":457,"x_min":0,"x_max":0,"o":""},"":{"ha":688,"x_min":0,"x_max":0,"o":""},"":{"ha":688,"x_min":0,"x_max":0,"o":""},"":{"ha":688,"x_min":0,"x_max":0,"o":""},"":{"ha":694,"x_min":281,"x_max":487,"o":"m 289 736 q 281 744 281 736 l 281 748 q 284 763 281 755 q 289 777 287 770 q 294 811 289 796 q 305 837 298 827 q 320 861 311 846 q 328 869 322 863 q 339 881 333 876 q 352 905 345 890 q 395 941 367 941 q 424 931 406 941 q 448 926 429 929 q 459 922 456 922 q 474 920 463 920 q 487 903 487 916 l 487 901 q 481 884 487 896 q 476 868 476 872 q 454 844 471 861 q 426 825 443 833 q 395 812 409 818 q 337 781 355 800 q 327 768 332 776 q 317 755 322 761 q 304 743 311 749 q 289 736 296 736 z "},"":{"ha":800,"x_min":0,"x_max":0,"o":""},"":{"ha":694,"x_min":0,"x_max":0,"o":""},"":{"ha":345,"x_min":100,"x_max":241,"o":"m 157 412 q 113 440 131 412 q 105 479 100 456 q 127 529 107 494 q 194 545 150 557 q 241 509 241 536 q 241 478 241 494 q 231 451 241 462 q 210 435 220 434 q 189 421 199 436 q 157 412 179 412 z "},"":{"ha":694,"x_min":0,"x_max":0,"o":""},"":{"ha":688,"x_min":0,"x_max":0,"o":""},"":{"ha":487,"x_min":0,"x_max":0,"o":""},"":{"ha":361,"x_min":14,"x_max":344,"o":"m 344 530 q 325 508 344 524 q 300 491 305 491 q 271 474 273 481 q 253 452 268 467 q 231 433 237 435 q 203 418 225 430 q 175 402 196 413 q 148 391 153 391 l 142 391 l 142 395 q 154 411 142 398 q 172 428 166 424 q 210 465 201 448 q 238 501 227 492 q 260 530 250 509 q 246 547 250 535 q 237 570 242 559 q 221 582 229 578 q 203 602 212 585 q 191 620 197 611 q 179 641 184 629 q 162 660 174 646 q 151 680 151 674 q 155 685 151 685 l 157 685 q 170 677 157 685 q 184 669 182 669 q 194 656 190 663 q 203 644 197 650 q 224 624 216 631 q 233 611 229 618 q 244 600 237 604 q 269 587 260 587 q 298 568 277 587 q 325 548 305 559 q 344 530 344 537 m 216 528 q 197 507 216 522 q 172 489 177 491 q 143 473 146 479 q 125 452 140 467 q 103 432 109 435 q 75 418 98 428 q 46 401 68 413 q 20 389 25 389 l 14 389 l 14 395 q 26 411 14 398 q 44 428 38 424 q 65 443 55 435 q 81 465 75 450 q 110 500 98 492 q 133 528 121 507 q 118 546 121 533 q 109 568 114 559 q 93 579 101 576 q 75 600 85 583 q 63 620 70 611 q 52 641 57 629 q 34 659 45 646 q 22 677 22 672 q 27 684 22 684 l 29 684 q 41 676 29 684 q 57 669 53 669 q 66 655 62 661 q 75 644 70 648 q 85 634 81 637 q 96 624 90 631 q 105 610 101 616 q 116 598 109 604 q 141 587 133 587 q 170 568 149 587 q 197 548 177 559 q 216 528 216 537 z "},"":{"ha":1158,"x_min":0,"x_max":0,"o":""},"":{"ha":1332,"x_min":0,"x_max":0,"o":""},"":{"ha":1158,"x_min":0,"x_max":0,"o":""},"":{"ha":570,"x_min":3,"x_max":544,"o":"m 544 261 q 529 223 544 256 q 513 182 515 191 q 502 139 502 144 q 474 111 502 134 q 441 88 457 100 q 414 61 426 76 q 389 30 407 50 q 359 9 370 9 q 327 18 346 9 q 296 35 307 26 q 237 61 277 46 q 203 71 218 66 q 166 76 189 76 q 109 104 120 76 q 85 168 103 120 q 61 226 66 215 q 24 288 42 252 q 5 347 7 324 q 13 381 3 363 q 29 415 22 400 q 41 447 37 431 q 54 479 46 463 q 67 509 59 492 q 87 537 75 526 q 146 568 103 561 q 213 591 191 576 q 267 628 235 606 q 291 647 281 639 q 313 672 300 656 q 329 700 318 680 q 340 735 340 720 q 333 794 340 774 q 326 812 331 800 q 320 836 320 824 q 339 841 320 837 q 363 848 357 844 q 377 859 368 850 q 396 869 387 869 q 412 846 401 869 q 422 814 422 824 q 407 782 418 804 q 391 748 396 761 q 378 713 385 732 q 368 677 370 694 q 351 602 361 637 q 344 562 346 585 q 333 530 342 539 q 211 459 303 502 q 118 376 118 416 l 118 355 q 128 307 118 335 q 144 258 138 279 q 154 205 150 218 q 186 174 157 193 q 225 150 205 161 q 272 135 244 139 q 311 128 290 130 q 350 120 331 126 q 376 111 368 111 q 392 120 381 111 q 411 135 404 130 q 426 146 418 141 q 444 157 433 152 q 475 241 475 178 q 430 301 475 263 q 368 339 385 339 l 355 339 q 311 291 300 339 q 298 243 322 243 q 287 257 287 243 q 287 283 287 272 q 284 306 285 300 q 290 328 283 313 q 318 353 296 334 q 350 372 340 372 q 361 370 355 372 q 376 367 366 367 q 405 370 387 367 q 429 372 424 372 q 457 349 440 372 q 485 320 474 326 q 514 302 494 311 q 541 281 533 292 q 544 261 544 274 m 309 1013 q 370 1037 338 1037 q 412 1014 392 1037 q 431 970 431 991 q 417 946 431 958 q 396 930 404 935 q 372 914 376 930 q 350 898 368 898 q 327 906 338 898 q 309 920 316 915 q 283 958 283 935 q 309 1013 283 994 z "},"":{"ha":873,"x_min":-70,"x_max":960,"o":"m 349 1102 q 369 1131 349 1111 q 379 1145 374 1137 q 389 1163 384 1154 q 414 1188 399 1174 q 452 1202 430 1202 q 469 1183 463 1202 q 473 1170 473 1173 q 482 1159 473 1166 q 487 1149 484 1156 q 497 1139 491 1143 q 515 1122 505 1128 q 539 1111 517 1118 q 550 1103 545 1105 q 559 1097 554 1100 q 576 1078 574 1083 q 562 1061 582 1061 q 533 1064 545 1061 q 510 1072 521 1067 q 497 1073 505 1072 q 484 1078 490 1074 q 472 1080 478 1078 q 462 1085 465 1083 q 438 1092 456 1087 q 414 1098 419 1097 q 382 1098 393 1102 q 358 1095 371 1095 q 349 1102 349 1095 m 586 416 q 563 511 580 465 q 539 608 545 557 q 517 706 536 631 q 498 813 498 780 q 474 754 488 809 q 454 684 460 700 q 438 626 447 661 q 427 580 430 591 q 418 564 422 570 q 412 550 414 557 q 393 481 399 513 q 412 467 387 463 q 460 469 437 471 q 531 450 519 456 q 586 416 543 444 m 130 469 q 126 458 128 463 q 125 448 125 454 q 143 422 125 422 q 214 438 160 422 q 286 459 267 454 q 313 516 298 463 q 334 589 328 568 q 372 734 345 628 q 399 882 399 841 q 389 917 399 892 q 374 948 378 941 q 340 963 360 966 q 310 976 321 959 q 319 983 306 983 q 400 968 358 983 q 491 952 441 952 q 531 950 508 952 q 582 948 554 948 q 628 944 597 948 q 671 937 660 941 q 673 929 676 933 q 663 926 671 926 q 649 926 656 926 q 634 926 642 926 q 609 914 619 926 q 599 895 599 902 q 622 786 610 841 q 648 680 634 732 q 665 609 654 661 q 686 513 676 557 q 699 453 691 479 q 715 395 706 426 q 738 294 726 348 q 754 216 749 241 q 770 155 760 187 q 797 106 780 122 q 841 71 808 94 q 895 48 875 48 q 922 56 903 48 q 958 59 941 63 q 956 39 960 56 q 941 26 952 22 q 854 35 897 26 q 764 48 812 45 q 690 50 706 52 q 628 41 675 48 q 616 38 623 39 q 604 37 610 37 q 584 26 601 35 q 567 28 567 17 q 597 52 571 45 q 643 65 623 59 q 656 78 656 65 q 649 134 656 106 q 637 185 643 161 q 626 235 630 208 q 615 291 621 263 q 603 338 604 330 q 574 374 602 347 q 530 395 562 385 q 477 406 498 406 q 433 406 441 406 q 391 400 425 406 q 363 380 371 396 q 322 279 336 324 q 280 178 308 233 q 244 116 269 155 q 204 61 219 76 q 152 16 188 45 q 87 -13 115 -13 l 60 -13 q -24 8 21 -13 q -70 66 -70 30 q -47 111 -70 93 q 1 130 -25 130 q 24 116 14 130 q 36 96 34 102 q 17 100 24 96 q -1 104 9 104 q -46 65 -46 104 q -21 41 -46 43 q 16 39 4 39 q 98 79 62 39 q 162 174 134 119 q 214 288 191 230 q 254 383 236 347 q 208 376 224 380 q 161 380 191 372 q 126 398 143 383 q 110 435 110 413 q 125 474 110 452 q 130 469 130 474 z "},"":{"ha":855,"x_min":16,"x_max":992,"o":"m 361 1002 q 353 1009 353 1002 l 353 1013 q 356 1028 353 1021 q 361 1042 359 1035 q 366 1076 361 1061 q 377 1102 370 1093 q 392 1126 383 1111 q 399 1134 394 1128 q 411 1146 405 1141 q 424 1171 416 1156 q 467 1206 439 1206 q 496 1196 477 1206 q 520 1191 501 1194 q 531 1187 528 1187 q 546 1185 535 1185 q 559 1168 559 1181 l 559 1166 q 553 1149 559 1161 q 548 1133 548 1137 q 526 1109 543 1126 q 498 1090 515 1098 q 467 1078 481 1083 q 409 1046 427 1065 q 399 1034 404 1041 q 389 1021 394 1026 q 376 1008 383 1015 q 361 1002 368 1002 m 329 511 q 329 480 328 489 q 364 471 331 472 l 492 474 q 493 514 503 491 q 470 563 483 537 q 439 632 460 578 q 411 709 418 687 q 393 744 405 720 q 379 783 381 768 q 377 786 379 783 q 376 783 376 789 q 362 719 374 755 q 346 654 351 682 q 335 584 340 621 q 329 511 329 548 m 533 296 q 507 368 526 320 q 494 396 501 387 q 481 408 488 400 q 470 416 473 415 l 300 411 q 275 316 296 382 q 255 235 255 250 q 254 201 255 218 q 254 167 254 183 q 255 102 250 117 q 290 65 260 87 q 309 46 298 58 q 333 35 320 35 q 365 30 348 31 q 387 15 381 28 q 357 9 385 9 q 300 14 320 7 q 257 20 279 20 l 136 17 l 20 22 q 16 30 16 22 q 34 42 16 37 q 61 50 52 46 q 84 60 77 58 q 103 79 90 63 q 127 122 116 98 q 150 174 138 146 q 185 289 179 250 q 209 400 191 328 q 238 513 224 457 q 267 628 252 568 q 277 688 272 659 q 292 748 283 717 q 306 806 298 772 q 316 867 315 839 q 295 895 316 878 q 264 924 274 913 q 253 938 257 932 q 237 950 250 945 q 191 959 203 959 q 163 957 179 959 q 150 959 148 956 q 189 978 155 978 l 212 976 q 296 945 250 974 q 387 915 342 917 q 433 916 422 913 q 485 930 444 918 q 526 927 494 933 q 557 911 557 920 q 524 898 557 892 q 518 884 518 890 q 518 872 518 878 q 524 838 518 867 q 531 802 529 809 q 537 766 535 785 q 543 730 538 746 q 557 661 546 700 q 577 595 568 623 q 635 402 600 517 q 703 215 670 287 q 715 185 709 200 q 728 155 722 170 q 735 119 733 139 q 744 89 736 100 q 782 40 759 63 q 827 0 805 17 q 872 -41 855 -24 q 942 -61 888 -58 q 954 -58 946 -61 q 966 -33 957 -31 q 987 -52 992 -33 q 947 -89 979 -76 q 881 -93 914 -102 q 823 -66 846 -81 q 772 -43 800 -52 q 699 -25 744 -33 q 640 -13 653 -17 q 579 5 604 0 q 538 8 568 5 q 511 17 509 11 q 546 38 516 37 q 577 72 576 39 q 561 188 579 102 q 533 296 543 274 z "},"":{"ha":855,"x_min":-74,"x_max":956,"o":"m 580 415 q 558 509 574 463 q 535 606 541 555 q 513 704 532 629 q 494 811 494 778 q 470 753 484 808 q 450 682 456 698 q 433 622 441 657 q 422 578 426 587 q 414 562 418 568 q 408 548 410 555 q 396 514 402 535 q 389 479 391 492 q 408 465 383 461 q 456 465 433 469 q 526 448 515 454 q 580 415 537 443 m 445 1130 q 471 1154 452 1135 q 498 1173 489 1173 q 522 1157 509 1173 q 543 1133 534 1141 q 594 1088 587 1107 q 639 1041 600 1069 q 657 1034 656 1034 q 659 1021 658 1035 q 647 1012 661 1007 q 624 1022 633 1017 q 610 1033 617 1024 q 595 1048 604 1042 q 570 1066 582 1055 q 547 1082 557 1076 q 523 1096 539 1085 q 496 1107 507 1107 q 451 1081 469 1102 q 417 1057 433 1059 q 385 1040 395 1052 q 359 1028 374 1028 q 347 1036 357 1026 q 342 1048 337 1046 q 374 1061 365 1057 q 400 1083 383 1065 q 422 1107 411 1097 q 445 1130 433 1117 m 126 467 q 121 446 121 444 q 139 420 121 420 q 210 435 156 420 q 281 456 263 450 q 309 514 294 461 q 330 587 324 567 q 368 732 341 626 q 395 880 395 839 q 385 914 395 889 q 369 946 374 939 q 335 961 356 965 q 304 974 315 958 q 315 981 304 981 q 396 966 354 981 q 486 950 437 950 q 527 947 504 950 q 578 945 550 945 q 624 942 593 945 q 667 935 656 939 q 669 927 672 932 q 659 924 665 922 q 644 924 652 924 q 630 924 635 924 q 604 912 615 924 q 593 892 593 900 q 616 784 604 839 q 644 677 628 730 q 661 606 650 659 q 682 511 672 553 q 694 450 687 478 q 711 391 702 422 q 733 293 722 347 q 750 215 745 239 q 766 153 755 185 q 793 104 776 120 q 836 70 804 93 q 891 46 869 46 q 918 53 899 46 q 952 56 937 59 q 952 37 956 54 q 937 22 948 20 q 850 33 892 22 q 760 46 808 43 q 686 47 702 50 q 624 37 671 45 q 600 35 608 37 q 579 24 597 33 q 562 26 562 15 q 592 50 565 43 q 639 63 618 58 q 652 76 652 63 q 645 132 652 104 q 631 183 637 159 q 622 233 626 205 q 611 287 617 261 q 598 336 600 328 q 569 372 597 345 q 526 393 557 383 q 473 404 494 404 q 429 404 437 404 q 387 398 420 404 q 359 378 369 396 q 318 277 332 322 q 276 176 304 231 q 240 114 265 154 q 200 59 215 74 q 148 14 184 43 q 83 -15 111 -15 l 56 -15 q -28 6 17 -15 q -74 65 -74 28 q -52 109 -74 91 q -3 127 -29 127 q 18 114 7 127 q 32 94 28 100 q 13 98 20 94 q -5 102 5 102 q -52 63 -52 102 q -27 39 -52 41 q 9 37 -2 37 q 93 77 56 37 q 158 171 130 117 q 210 284 187 226 q 250 380 232 342 q 203 374 218 378 q 157 378 187 370 q 122 396 139 382 q 106 433 106 411 q 121 472 106 450 q 126 467 126 472 z "},"":{"ha":873,"x_min":-81,"x_max":948,"o":"m 354 1128 q 402 1148 374 1145 q 452 1133 430 1152 q 480 1118 467 1120 q 498 1113 493 1115 q 515 1092 509 1103 q 530 1072 520 1080 q 570 1042 550 1050 q 595 1038 585 1035 q 626 1042 606 1041 q 643 1050 630 1042 q 656 1050 656 1057 q 651 1029 656 1044 q 635 1015 646 1015 q 582 1008 600 1009 q 535 1021 563 1007 q 520 1033 526 1024 q 504 1048 513 1042 q 480 1064 493 1054 q 456 1082 467 1074 q 427 1088 448 1083 q 397 1093 406 1093 q 356 1073 369 1089 q 326 1055 342 1057 q 294 1039 304 1052 q 269 1026 283 1026 q 256 1036 265 1026 q 252 1048 246 1046 q 283 1060 273 1055 q 309 1082 293 1065 q 332 1106 321 1095 q 354 1128 342 1117 m 574 416 q 551 511 568 465 q 528 608 534 557 q 506 706 524 631 q 487 813 487 780 q 462 754 476 809 q 443 684 448 700 q 426 626 433 661 q 415 580 418 591 q 407 564 411 570 q 400 550 402 557 q 382 481 387 513 q 401 467 376 463 q 448 469 426 471 q 519 450 507 456 q 574 416 532 444 m 119 469 q 115 458 117 463 q 113 448 113 454 q 132 422 113 422 q 202 438 149 422 q 274 459 256 454 q 302 516 287 463 q 322 589 317 568 q 360 734 334 628 q 387 882 387 841 q 377 917 387 892 q 361 948 367 941 q 329 963 349 966 q 298 976 309 959 q 307 983 294 983 q 388 968 347 983 q 478 952 430 952 q 519 950 496 952 q 570 948 543 948 q 617 944 585 948 q 659 937 648 941 q 662 929 665 933 q 652 926 659 926 q 637 926 644 926 q 623 926 630 926 q 597 914 608 926 q 587 895 587 902 q 610 786 598 841 q 637 680 623 732 q 654 609 643 661 q 674 513 665 557 q 687 453 680 479 q 704 395 694 426 q 726 294 715 348 q 743 216 737 241 q 758 155 748 187 q 785 106 768 122 q 830 71 796 94 q 884 48 863 48 q 910 56 891 48 q 947 59 930 63 q 944 39 948 56 q 930 26 941 22 q 843 35 885 26 q 752 48 800 45 q 679 50 694 52 q 616 41 663 48 q 605 38 611 39 q 593 37 598 37 q 572 26 589 35 q 555 28 555 17 q 585 52 559 45 q 631 65 611 59 q 644 78 644 65 q 638 134 644 106 q 626 185 631 161 q 614 235 618 208 q 604 291 610 263 q 592 338 593 330 q 563 374 591 347 q 518 395 550 385 q 465 406 487 406 q 421 406 430 406 q 380 400 413 406 q 352 380 361 398 q 310 279 324 324 q 269 178 296 233 q 233 116 258 155 q 193 61 208 76 q 140 16 176 45 q 76 -13 104 -13 l 48 -13 q -36 8 9 -13 q -81 66 -81 30 q -59 111 -81 93 q -11 130 -37 130 q 11 116 0 130 q 24 96 22 102 q 5 100 13 96 q -13 104 -2 104 q -58 65 -58 104 q -33 41 -58 43 q 4 39 -7 39 q 86 79 50 39 q 151 174 122 119 q 202 288 180 230 q 243 383 224 347 q 196 376 213 380 q 150 380 180 372 q 115 398 132 383 q 98 435 98 413 q 113 474 98 452 q 119 469 119 474 z "},"":{"ha":787,"x_min":-1,"x_max":972,"o":"m 265 1102 q 280 1118 271 1117 q 300 1122 290 1118 q 341 1115 317 1126 l 349 1109 q 358 1086 354 1103 q 359 1059 361 1069 q 339 1041 353 1050 q 321 1031 332 1034 q 308 1034 313 1031 q 297 1039 302 1037 q 284 1040 293 1039 q 275 1041 275 1041 q 262 1066 267 1046 q 263 1098 258 1085 l 265 1102 m 310 511 q 310 480 308 489 q 345 471 311 472 l 473 474 q 473 514 484 491 q 450 563 463 537 q 420 632 441 578 q 391 709 399 687 q 374 744 386 720 q 359 783 361 768 q 358 786 359 783 q 356 783 356 789 q 343 719 354 755 q 328 654 332 682 q 316 584 323 621 q 310 511 310 548 m 513 296 q 488 368 506 320 q 475 396 482 387 q 450 416 463 411 l 280 411 q 257 316 278 382 q 236 235 236 250 q 235 201 236 218 q 234 167 234 183 q 236 102 230 117 q 271 65 241 87 q 290 46 278 58 q 313 35 302 35 q 346 30 328 31 q 367 15 363 28 q 355 9 367 9 q 338 9 343 9 q 280 14 300 7 q 237 20 260 20 l 117 17 l 2 22 q -1 30 -1 22 q 16 42 1 37 q 41 50 32 46 q 65 60 58 58 q 84 79 73 63 q 109 122 98 98 q 130 174 119 146 q 165 289 160 250 q 191 400 171 328 q 218 513 204 457 q 247 628 232 568 q 258 688 252 659 q 273 748 263 717 q 287 806 278 772 q 297 867 295 839 q 276 895 297 878 q 247 924 254 913 q 234 938 237 932 q 217 950 230 945 q 171 959 184 959 q 144 957 160 959 q 130 959 128 956 q 169 978 136 978 l 193 976 q 276 945 230 974 q 367 915 323 917 q 413 916 402 913 q 465 930 425 918 q 506 927 475 933 q 538 911 538 920 q 504 898 538 892 q 498 884 498 890 q 498 872 498 878 q 504 838 498 867 q 511 802 510 809 q 517 766 515 785 q 523 730 519 746 q 537 661 526 700 q 558 595 549 623 q 615 402 580 517 q 684 215 650 287 q 696 185 690 200 q 708 155 703 170 q 715 119 713 139 q 726 89 717 100 q 763 40 739 63 q 810 0 787 17 q 852 -41 836 -24 q 924 -61 869 -58 q 934 -58 928 -61 q 947 -33 937 -31 q 967 -52 972 -33 q 927 -89 960 -76 q 861 -93 895 -102 q 803 -66 827 -81 q 752 -43 780 -52 q 679 -25 724 -33 q 621 -13 634 -17 q 559 5 584 0 q 519 8 549 5 q 491 17 490 11 q 527 38 497 37 q 559 72 556 39 q 541 188 559 102 q 513 296 523 274 m 393 1055 q 396 1092 386 1072 q 422 1117 406 1111 q 454 1117 435 1120 q 482 1079 477 1111 q 473 1039 488 1046 l 469 1037 q 444 1037 462 1034 q 422 1035 427 1041 q 393 1055 401 1035 z "},"":{"ha":787,"x_min":0,"x_max":976,"o":"m 311 500 q 312 469 309 478 q 347 459 315 459 l 474 463 q 475 503 485 479 q 452 552 465 526 q 421 622 443 567 q 393 698 400 676 q 375 733 387 709 q 363 772 363 758 q 357 772 357 778 q 345 708 355 745 q 330 643 334 671 q 318 573 324 609 q 311 500 313 537 m 363 1019 q 327 1019 342 1028 q 311 994 311 1009 q 330 955 311 972 q 363 909 348 937 q 415 948 383 926 q 440 965 424 954 q 463 991 457 976 q 448 1039 472 1026 q 406 1017 420 1050 q 378 991 391 983 q 371 1003 370 993 q 363 1019 372 1013 m 431 1085 q 492 1052 484 1070 q 509 1000 500 1034 q 467 918 513 959 q 509 915 478 920 q 541 900 541 909 q 529 887 541 889 q 507 885 517 885 q 502 859 502 880 q 507 826 502 854 q 515 791 513 798 q 524 718 520 752 q 540 650 530 689 q 559 583 550 611 q 616 391 581 505 q 685 203 652 276 q 711 144 700 170 q 718 108 715 127 q 728 78 720 89 q 766 28 743 52 q 811 -11 789 5 q 854 -52 837 -35 q 926 -72 872 -68 q 937 -68 930 -72 q 948 -45 937 -41 q 970 -63 976 -45 q 929 -100 961 -87 q 865 -104 898 -113 q 805 -78 829 -93 q 753 -54 781 -63 q 681 -36 726 -45 q 624 -24 635 -28 q 593 -12 609 -18 q 561 -3 578 -5 q 522 -2 552 -3 q 492 5 491 0 q 529 27 498 26 q 561 61 559 28 q 544 177 561 91 q 515 286 526 263 q 491 357 500 334 q 476 385 481 378 q 452 406 463 402 l 281 400 q 259 304 279 370 q 239 224 239 239 q 236 190 237 208 q 235 155 235 172 q 238 91 231 106 q 272 54 244 76 q 292 35 279 46 q 315 24 304 24 q 347 19 330 20 q 368 3 365 17 q 357 0 368 0 q 340 0 347 0 q 283 5 304 0 q 241 9 263 9 l 119 5 l 3 11 q 0 18 0 11 q 18 31 0 26 q 45 39 35 35 q 67 49 61 46 q 85 66 74 52 q 110 111 100 87 q 132 163 120 135 q 168 278 161 239 q 193 389 174 317 q 221 502 208 446 q 248 616 235 557 q 261 677 256 648 q 274 737 267 705 q 288 794 279 761 q 298 856 296 828 q 277 884 298 867 q 248 913 256 902 q 236 927 241 920 q 220 939 231 933 q 174 948 187 948 q 147 946 163 948 q 132 948 132 945 q 148 961 134 956 q 172 966 161 966 l 196 965 q 240 952 216 963 q 291 930 264 941 q 283 939 286 935 q 274 1006 264 965 q 307 1061 281 1046 q 363 1072 324 1072 q 398 1080 383 1070 q 431 1085 413 1089 z "},"":{"ha":1207,"x_min":-59,"x_max":1215,"o":"m 621 385 q 620 476 626 430 q 618 568 613 522 q 619 661 621 591 q 623 763 617 732 q 594 709 612 760 q 569 644 576 659 q 543 591 557 623 q 522 552 528 559 q 511 537 517 543 q 502 526 506 532 q 485 493 494 513 q 471 463 476 474 q 481 448 463 446 q 517 444 498 450 q 578 421 569 428 q 621 385 587 415 m 975 750 q 953 768 965 750 q 932 791 941 785 q 861 808 889 811 q 808 802 833 804 q 755 794 782 800 q 748 733 752 763 q 745 674 745 704 q 742 609 741 641 q 743 548 743 578 q 777 535 743 535 q 826 535 811 535 q 859 538 843 535 q 891 541 874 541 q 914 535 899 541 q 937 528 930 530 q 953 512 947 522 q 965 496 960 502 q 987 457 987 469 l 987 418 q 974 393 987 408 q 954 372 960 378 q 921 364 943 365 q 900 378 900 363 q 919 388 900 383 q 937 415 937 393 q 919 436 937 431 q 889 450 900 441 q 874 465 874 465 q 831 450 852 465 q 791 430 810 435 q 761 419 774 422 q 735 400 747 415 q 734 399 735 400 q 734 398 734 398 q 738 368 734 387 q 743 337 741 348 q 740 250 743 292 q 737 183 737 208 q 739 119 734 146 q 786 128 762 122 q 836 134 811 134 q 954 115 900 134 q 999 101 976 106 q 1046 93 1023 96 q 1097 90 1069 87 q 1139 107 1124 93 q 1166 140 1150 119 q 1198 161 1182 161 q 1215 148 1215 161 q 1200 125 1215 142 q 1182 102 1185 107 q 1142 60 1165 78 q 1097 28 1119 43 q 1073 9 1086 18 q 1044 0 1059 0 q 994 3 1019 0 q 945 9 969 5 q 916 12 930 9 q 887 17 902 15 q 886 17 887 17 q 886 18 886 17 q 734 31 813 24 q 584 31 656 37 q 562 31 562 31 q 540 23 557 30 q 524 26 522 17 q 558 46 532 43 q 602 54 584 50 q 617 65 613 54 q 622 116 623 89 q 621 165 621 142 q 623 214 621 187 q 625 264 625 241 q 623 311 623 304 q 602 348 623 319 q 567 371 593 359 q 521 385 541 383 q 489 390 488 389 q 458 391 491 391 q 428 374 439 387 q 369 283 391 324 q 309 193 347 243 q 263 139 293 174 q 217 93 233 104 q 159 54 199 78 q 95 31 119 30 l 67 35 q -14 58 32 37 q -52 113 -59 78 q -23 155 -46 135 q 24 174 0 174 q 44 158 37 172 q 52 139 50 144 q 34 143 41 139 q 17 150 28 148 q -16 119 -9 152 q -6 93 -20 98 q 20 87 7 87 q 184 198 106 78 q 309 385 263 319 q 267 382 281 385 q 227 391 252 380 q 197 411 210 396 q 189 446 184 426 q 212 481 193 463 q 215 476 215 481 q 205 457 208 465 q 217 431 199 433 q 284 439 232 430 q 356 452 337 448 q 392 502 369 454 q 426 568 415 550 q 490 700 445 604 q 545 836 536 796 q 536 856 550 852 q 517 865 522 859 q 492 871 506 870 q 473 885 478 872 q 477 892 471 887 q 489 897 484 897 q 606 879 549 890 q 724 869 663 867 q 833 869 758 870 l 833 869 q 864 869 848 869 q 893 870 880 870 q 996 889 960 870 q 1034 913 1017 898 q 1052 933 1039 917 q 1071 939 1065 950 q 1064 907 1074 922 q 1048 882 1054 892 q 1044 867 1044 876 q 1044 852 1044 857 q 1034 828 1044 839 q 1015 811 1024 819 q 1000 794 1006 804 q 989 768 995 785 q 975 750 983 750 z "},"":{"ha":690,"x_min":0,"x_max":659,"o":"m 0 420 q 6 469 0 431 q 18 520 13 507 q 26 569 24 547 q 39 616 28 591 q 59 652 45 629 q 83 691 74 674 q 106 727 94 709 q 130 763 119 745 q 154 797 141 780 q 180 831 167 814 q 214 859 195 852 q 256 874 233 867 q 300 888 279 880 q 342 905 320 897 q 386 926 354 909 q 424 943 418 943 q 476 912 459 943 q 509 859 492 882 q 527 835 517 848 q 548 814 537 822 q 572 796 555 809 q 593 778 589 783 q 615 716 604 758 q 606 652 626 674 q 579 636 595 639 q 548 626 563 633 q 523 609 537 621 q 496 598 509 598 q 468 611 479 598 q 446 633 457 624 q 428 658 437 639 q 418 691 418 677 q 433 711 418 711 q 453 684 443 711 q 489 656 463 656 q 521 677 515 656 q 528 717 528 698 q 506 753 528 732 q 472 783 484 774 q 433 805 459 791 q 389 819 408 819 q 330 798 365 819 q 278 770 294 778 q 236 732 244 752 q 211 680 228 713 q 164 566 191 639 q 137 437 137 492 l 137 415 q 158 363 137 398 q 185 300 180 328 q 196 231 195 256 q 226 176 198 205 q 270 137 243 157 q 319 106 296 117 q 444 68 374 68 l 478 68 q 513 79 491 68 q 539 98 524 83 q 581 141 567 120 q 610 188 589 152 q 644 241 631 224 q 659 237 659 259 q 645 200 659 230 q 629 161 631 170 q 615 122 621 144 q 596 89 609 100 q 536 38 574 72 q 471 3 498 3 l 443 3 q 391 7 424 3 q 391 7 391 7 q 391 7 391 7 q 378 -20 387 -2 q 390 -32 387 -26 q 398 -46 393 -39 q 420 -71 406 -56 q 439 -96 424 -76 q 450 -124 454 -117 q 433 -146 448 -127 q 416 -174 424 -163 q 374 -185 404 -189 q 326 -181 357 -185 q 278 -168 294 -178 q 263 -119 243 -148 q 275 -120 267 -111 q 289 -134 283 -130 q 340 -152 313 -146 q 383 -135 367 -154 q 387 -102 398 -113 q 359 -82 370 -91 q 332 -66 348 -74 l 324 -63 q 317 -46 311 -56 q 326 -20 322 -31 q 340 3 330 -9 q 347 11 342 7 q 343 11 345 11 q 342 11 342 11 q 250 26 294 11 q 210 40 228 33 q 172 56 193 46 q 153 64 161 59 q 135 74 144 68 q 111 104 115 83 q 87 186 102 148 q 59 264 72 224 q 41 299 54 276 q 20 334 28 322 q 2 369 3 359 q 0 420 0 378 z "},"":{"ha":881,"x_min":-27,"x_max":873,"o":"m 425 966 q 397 983 414 966 q 388 997 391 989 q 378 1011 384 1006 q 321 1042 360 1029 q 260 1074 277 1057 q 239 1098 245 1089 q 227 1131 227 1111 l 227 1131 q 241 1150 227 1146 q 247 1150 243 1150 q 254 1150 251 1150 q 267 1154 265 1154 q 292 1161 286 1158 q 304 1167 299 1163 q 321 1171 310 1171 q 347 1158 338 1171 q 361 1135 356 1146 q 376 1109 368 1120 q 384 1098 378 1103 q 393 1089 389 1093 q 408 1067 401 1076 q 421 1041 416 1057 q 423 1024 421 1034 q 427 1007 425 1015 q 430 992 427 1000 q 434 978 434 983 l 434 974 q 425 966 434 966 m 541 776 q 508 783 530 776 q 475 794 486 791 q 362 804 417 806 q 251 798 307 802 q 243 706 243 753 q 243 615 243 659 q 242 576 243 596 q 245 537 241 555 q 269 513 249 513 q 320 528 279 513 q 373 548 361 543 q 423 569 395 555 q 477 583 451 583 q 516 572 499 583 q 551 550 532 561 q 573 522 566 541 q 582 471 582 494 q 555 452 582 465 q 517 439 528 439 q 499 448 499 439 q 516 464 499 454 q 538 485 532 474 q 513 494 532 494 q 441 485 480 494 q 375 471 403 476 q 342 460 355 465 q 315 450 330 456 q 286 435 304 444 q 256 426 267 426 q 255 365 256 396 q 254 304 254 334 q 251 244 254 272 q 247 185 247 216 q 247 148 247 172 q 269 124 247 124 q 299 130 284 124 q 330 139 313 135 q 367 144 349 141 q 406 148 386 148 q 475 137 439 148 q 538 120 510 126 q 600 106 571 113 q 667 94 629 100 q 738 86 701 89 q 795 109 774 83 q 813 153 812 132 q 812 202 814 174 q 807 222 812 205 q 810 239 802 239 q 830 220 815 239 q 849 198 845 202 q 865 174 858 183 q 873 142 873 165 q 841 96 873 124 q 797 59 810 68 q 750 27 789 54 q 699 0 710 0 q 649 5 675 0 q 601 15 623 9 q 556 20 578 17 q 512 28 534 24 q 423 39 467 33 q 334 54 378 45 q 237 60 310 58 q 141 59 163 63 q 93 55 114 56 q 51 48 73 54 q 17 26 31 43 q -16 9 3 9 q -24 20 -22 9 q -22 37 -27 30 q 20 63 -5 58 q 69 74 45 68 q 110 120 100 81 q 117 180 114 150 q 119 241 119 211 q 113 329 115 286 q 108 416 110 372 q 108 517 106 467 q 112 621 110 568 q 108 665 108 650 q 114 737 108 705 q 121 809 121 768 q 106 841 121 831 q 90 846 97 846 q 71 850 82 846 q 36 854 52 852 q 14 872 19 857 q 25 888 6 887 q 52 889 45 889 q 107 890 80 889 q 162 892 134 890 q 284 887 223 889 q 406 895 345 885 q 468 899 436 900 q 534 898 500 898 q 602 915 564 898 q 623 922 610 918 q 644 932 636 926 q 657 945 649 937 q 673 961 665 954 q 687 979 678 966 q 701 991 695 991 q 721 961 721 993 q 706 923 721 928 q 688 904 691 918 q 676 868 680 874 q 649 852 673 863 q 614 837 632 842 q 588 821 597 831 q 565 795 582 814 q 541 776 547 776 z "},"":{"ha":768,"x_min":-68,"x_max":733,"o":"m 265 1130 l 265 1133 q 271 1150 265 1139 q 279 1166 276 1161 q 311 1181 291 1185 q 335 1166 320 1179 q 375 1133 352 1150 q 398 1098 398 1115 q 389 1065 398 1070 q 367 1048 380 1059 q 328 1006 339 1024 q 320 991 322 996 q 313 980 319 985 q 294 956 296 963 q 288 940 289 945 q 279 928 287 935 q 254 915 267 915 l 248 915 q 241 924 241 915 l 241 930 q 252 958 241 933 q 267 989 263 983 q 275 1024 272 998 q 278 1067 278 1050 q 272 1104 278 1085 q 265 1130 265 1122 m 492 750 q 471 768 484 750 q 448 791 458 785 q 380 808 408 811 q 326 802 352 804 q 274 794 300 800 q 267 733 271 763 q 261 674 263 704 q 260 609 259 641 q 261 548 261 578 q 295 535 261 535 q 345 535 330 535 q 376 538 361 535 q 408 541 391 541 q 431 535 416 541 q 456 528 446 530 q 471 512 463 522 q 484 496 478 502 q 506 457 506 469 l 506 418 q 492 393 506 408 q 472 372 478 378 q 440 364 461 365 q 418 378 418 363 q 437 388 418 383 q 456 415 456 393 q 436 436 456 431 q 406 450 416 441 q 398 458 404 452 q 393 465 393 465 q 348 450 368 465 q 307 430 328 435 q 277 419 291 422 q 254 400 263 415 q 250 378 250 395 q 246 327 248 355 q 241 276 244 298 q 230 178 230 226 q 229 142 230 168 q 239 115 228 117 q 296 126 267 119 q 354 134 326 134 q 472 115 418 134 q 517 101 494 106 q 563 93 539 96 q 614 90 587 87 q 656 107 641 93 q 683 140 667 119 q 717 161 700 161 q 733 148 733 161 q 719 125 733 142 q 700 102 704 107 q 615 28 671 63 q 589 9 602 18 q 561 0 576 0 q 511 3 535 0 q 463 9 487 5 q 382 20 422 13 q 304 35 342 28 q 246 44 274 41 q 189 48 218 48 q 96 44 141 48 q 7 30 52 41 q -21 18 -7 24 q -54 13 -35 13 q -68 28 -68 13 q -44 47 -68 46 q -3 54 -20 48 q 39 74 11 58 q 71 113 66 91 q 76 173 74 141 q 81 237 78 205 q 102 350 87 281 q 117 472 117 415 q 116 557 117 515 q 115 644 115 600 q 115 688 115 667 q 113 730 115 709 q 104 781 109 753 q 78 824 100 808 q 58 848 58 839 q 83 859 58 859 l 182 856 q 238 859 210 854 q 294 865 267 865 q 321 867 307 865 q 350 869 335 869 q 380 869 365 869 q 411 870 396 870 q 515 889 474 870 q 552 913 526 895 q 570 933 557 917 q 587 939 583 950 q 583 907 593 922 q 567 882 572 892 q 563 852 563 874 q 552 828 563 839 q 533 811 543 819 q 519 794 524 804 q 506 768 513 785 q 492 750 500 750 z "},"":{"ha":763,"x_min":-27,"x_max":745,"o":"m 284 1070 q 308 1095 290 1076 q 336 1115 327 1113 q 360 1098 347 1115 q 380 1076 373 1082 q 431 1030 425 1048 q 477 983 437 1011 q 494 976 493 976 q 499 963 495 976 q 485 954 499 948 q 464 963 471 959 q 448 976 454 966 q 432 991 441 985 q 407 1006 419 996 q 384 1024 395 1017 q 361 1037 376 1026 q 336 1048 345 1048 q 290 1022 308 1044 q 254 998 271 1000 q 223 981 232 994 q 199 968 214 968 q 186 979 195 968 q 182 991 176 989 q 213 1003 203 998 q 237 1024 223 1007 q 260 1047 249 1037 q 284 1070 271 1057 m 223 111 q 274 131 251 111 q 325 150 297 150 l 341 150 q 379 143 355 150 q 412 132 403 137 q 445 119 434 119 q 484 115 456 120 q 519 105 508 109 q 551 94 530 102 q 596 78 584 81 q 640 74 608 74 q 687 98 662 74 q 712 144 712 122 q 705 188 712 167 q 715 210 697 210 q 734 180 723 210 q 745 141 745 150 q 725 99 745 117 q 693 59 705 81 q 668 15 686 43 q 632 -13 650 -13 q 526 -3 574 -13 q 432 20 477 7 q 343 47 382 33 q 239 61 304 61 q 167 56 191 61 q 104 45 143 52 q 78 36 92 41 q 51 28 64 31 q 34 23 41 24 q 21 22 26 22 q -4 11 12 18 q -25 26 -20 3 q -16 49 -27 48 q 19 50 -5 50 q 60 66 43 50 q 87 152 84 91 q 90 262 87 208 q 92 374 92 317 q 88 432 92 395 q 82 491 84 469 q 86 518 82 500 q 90 548 90 537 q 86 598 90 570 q 82 648 82 626 q 82 737 82 682 q 73 822 82 793 q 47 850 62 850 q 21 867 32 850 q 39 878 10 878 q 71 870 69 878 q 158 876 73 863 q 232 882 184 882 q 303 889 265 882 q 373 900 341 897 q 446 906 408 904 q 517 913 484 907 q 576 932 553 918 q 600 956 593 939 q 616 974 606 972 q 634 963 632 974 q 617 932 636 943 q 573 885 591 915 q 538 833 554 856 q 454 795 510 793 q 338 798 399 798 q 309 794 321 798 q 284 789 297 791 q 255 789 273 787 q 224 791 237 791 q 201 785 203 791 q 197 763 199 780 q 197 596 186 689 q 199 469 208 504 q 290 508 251 469 q 382 547 328 547 l 395 547 q 435 519 429 547 q 454 467 441 491 q 473 419 464 450 q 482 361 482 387 q 478 357 482 357 q 453 401 449 363 q 416 439 458 439 q 300 407 395 439 q 204 367 204 376 l 204 261 q 213 221 204 237 q 221 195 221 205 q 217 156 221 172 q 214 117 214 139 q 223 111 214 111 z "},"":{"ha":798,"x_min":-41,"x_max":761,"o":"m 418 974 q 423 1010 413 991 q 450 1035 433 1029 q 481 1035 459 1037 q 507 997 502 1029 q 498 958 513 965 l 496 956 q 469 955 487 950 q 450 954 452 959 q 418 974 428 954 m 520 750 q 498 768 511 750 q 476 791 486 785 q 408 808 435 811 q 354 802 380 804 q 302 794 328 800 q 295 733 298 763 q 289 674 291 704 q 288 609 287 641 q 289 548 289 578 q 323 535 289 535 q 372 535 357 535 q 404 538 389 535 q 435 541 418 541 q 459 535 444 541 q 484 528 474 530 q 498 512 491 522 q 511 496 506 502 q 534 457 534 469 l 534 418 q 520 393 534 408 q 500 372 506 378 q 468 364 489 365 q 446 378 446 363 q 465 388 446 383 q 484 415 484 393 q 464 436 484 431 q 433 450 444 441 q 426 458 431 452 q 420 465 420 465 q 376 450 396 465 q 335 430 355 435 q 305 419 319 422 q 281 400 291 415 q 278 378 278 395 q 274 327 276 355 q 269 276 272 298 q 258 178 258 226 q 257 142 258 168 q 267 115 256 117 q 324 126 294 119 q 382 134 354 134 q 500 115 446 134 q 545 101 522 106 q 591 93 567 96 q 642 90 615 87 q 684 107 669 93 q 711 140 694 119 q 745 161 728 161 q 761 148 761 161 q 746 125 761 142 q 728 102 732 107 q 643 28 699 63 q 617 9 630 18 q 589 0 604 0 q 539 3 563 0 q 491 9 515 5 q 410 20 450 13 q 332 35 370 28 q 274 44 302 41 q 217 48 246 48 q 124 44 169 48 q 35 30 79 41 q 5 18 18 24 q -26 13 -7 13 q -41 28 -41 13 q -18 47 -41 46 q 22 54 5 48 q 66 74 39 58 q 98 113 94 91 q 104 173 102 141 q 109 237 106 205 q 130 350 115 281 q 144 472 144 415 q 143 557 144 515 q 142 644 142 600 q 142 688 142 667 q 141 730 142 709 q 132 781 137 753 q 106 824 127 808 q 85 848 85 839 q 111 859 85 859 l 210 856 q 266 859 237 854 q 322 865 294 865 q 349 867 335 865 q 378 869 363 869 q 408 869 393 869 q 439 870 424 870 q 543 889 502 870 q 580 913 554 895 q 598 933 585 917 q 615 939 611 950 q 610 907 621 922 q 595 882 600 892 q 591 852 591 874 q 580 828 591 839 q 561 811 570 819 q 547 794 552 804 q 534 768 541 785 q 520 750 528 750 m 210 1021 q 224 1036 215 1035 q 245 1041 233 1037 q 263 1038 248 1041 q 283 1034 278 1035 l 291 1028 q 302 978 315 1007 q 293 967 300 972 q 283 959 286 961 q 263 950 272 950 q 251 953 258 950 q 239 958 245 956 q 227 958 235 958 q 218 959 218 959 q 206 984 210 965 q 208 1017 202 1004 l 210 1021 z "},"":{"ha":389,"x_min":0,"x_max":370,"o":"m 104 1015 q 111 1033 104 1026 q 124 1044 119 1039 q 134 1058 130 1050 q 144 1076 139 1067 q 169 1101 152 1087 q 208 1115 185 1115 q 224 1097 215 1115 q 237 1074 226 1083 q 242 1062 239 1069 q 250 1052 246 1055 q 269 1035 254 1044 q 280 1030 274 1031 q 292 1024 287 1028 q 304 1017 298 1021 q 315 1011 309 1013 q 332 993 328 1000 q 317 976 337 976 q 263 985 291 976 q 250 986 258 985 q 237 991 243 987 q 216 1000 224 994 q 192 1006 211 1002 q 167 1013 172 1011 q 136 1012 146 1015 q 113 1009 126 1009 q 104 1015 104 1009 m 370 905 q 342 887 370 895 q 309 867 315 880 q 300 822 300 850 q 300 772 300 794 q 297 721 300 733 q 287 680 294 709 q 279 637 278 644 q 279 591 279 629 l 279 548 l 274 263 l 274 74 q 309 30 274 28 q 361 0 345 31 q 322 -8 345 -26 q 267 13 300 9 q 172 22 218 15 q 75 34 150 26 q 0 61 0 43 q 17 74 0 74 q 60 72 50 74 q 96 87 71 71 q 101 157 96 120 q 106 226 106 195 q 107 295 106 252 q 115 367 109 339 q 126 578 126 465 q 126 796 126 691 q 120 836 126 813 q 102 859 113 859 q 67 852 91 859 q 43 869 43 844 q 113 888 43 890 q 208 890 183 885 q 290 903 239 897 q 363 920 340 909 q 370 905 370 928 z "},"":{"ha":538,"x_min":-9,"x_max":643,"o":"m 189 948 q 180 958 180 948 l 180 959 q 184 975 180 966 q 187 991 187 983 q 193 1022 191 1019 q 205 1049 199 1041 q 221 1072 212 1057 q 228 1082 222 1076 q 237 1093 234 1087 q 252 1118 247 1102 q 267 1142 258 1130 q 293 1154 277 1154 q 323 1143 300 1154 q 335 1139 328 1141 q 347 1137 341 1137 q 359 1133 358 1133 q 365 1131 361 1131 q 373 1131 369 1131 q 387 1115 387 1131 l 387 1113 q 374 1082 387 1095 q 354 1057 363 1065 q 293 1026 338 1041 q 235 993 249 1007 q 226 980 230 987 q 217 966 222 972 q 203 955 212 961 q 189 948 195 948 m 126 857 q 228 874 173 857 q 323 904 283 890 q 346 912 339 909 q 374 915 352 915 q 432 918 414 915 q 489 938 452 924 q 526 945 526 952 q 494 928 521 939 q 460 913 467 918 q 428 895 443 905 q 400 876 414 885 q 372 853 384 863 q 354 822 359 844 q 346 781 349 802 q 339 743 343 761 q 325 656 332 711 q 317 568 317 602 q 315 521 317 543 q 313 476 313 500 q 311 430 313 443 q 304 414 310 420 q 298 395 298 408 q 302 342 298 385 q 312 249 306 300 q 323 152 317 198 q 332 91 328 106 q 344 79 338 85 q 359 66 351 72 q 406 33 376 56 q 450 0 435 11 q 511 -43 478 -24 q 552 -52 534 -54 q 602 -50 571 -50 q 626 -50 610 -50 q 643 -61 643 -50 q 632 -67 643 -68 q 617 -66 621 -66 q 528 -63 559 -66 q 452 -39 496 -59 q 430 -33 439 -33 q 406 -26 421 -33 q 368 0 386 -13 q 330 24 351 13 q 278 33 319 28 q 221 39 237 39 q 155 32 176 39 q 106 26 134 26 q 56 10 69 24 q 19 -3 43 -3 q 8 1 15 -3 q -5 7 1 5 q -5 13 -9 9 q 46 23 28 20 q 91 48 63 26 q 129 74 110 63 q 171 100 149 85 l 191 347 l 186 443 l 208 713 l 206 760 q 204 789 206 770 q 197 813 202 808 q 175 822 187 822 q 146 824 163 822 q 88 828 113 829 q 56 859 63 826 q 91 857 77 856 q 126 857 106 857 z "},"":{"ha":538,"x_min":9,"x_max":391,"o":"m 118 1095 q 142 1119 123 1100 q 170 1137 161 1137 q 193 1121 181 1137 q 214 1100 205 1105 q 266 1053 259 1072 q 311 1006 272 1034 q 328 999 328 998 q 333 985 329 1000 q 319 977 333 972 q 298 987 305 981 q 282 1000 288 991 q 267 1015 275 1009 q 241 1031 253 1021 q 218 1046 229 1041 q 195 1061 211 1050 q 170 1072 179 1072 q 124 1046 142 1069 q 88 1022 105 1024 q 57 1005 66 1017 q 33 993 47 993 q 19 1002 29 993 q 14 1015 9 1011 q 47 1026 37 1022 q 72 1048 57 1029 q 94 1072 83 1061 q 118 1095 105 1082 m 18 905 q 26 920 18 928 q 98 903 47 909 q 181 890 148 897 q 275 888 203 885 q 346 869 346 890 q 322 852 346 844 q 288 859 298 859 q 268 836 273 859 q 262 796 262 813 q 263 578 262 691 q 275 367 264 465 q 280 295 277 339 q 283 226 283 252 q 288 157 283 195 q 292 87 292 120 q 327 72 316 71 q 372 74 338 74 q 391 61 391 74 q 315 34 391 43 q 216 22 239 26 q 122 13 166 15 q 66 -8 88 9 q 27 0 44 -26 q 79 30 44 31 q 115 74 115 28 l 115 263 l 109 548 l 109 591 q 109 637 109 629 q 102 680 109 644 q 90 721 92 709 q 88 772 88 733 q 87 822 88 794 q 79 867 87 850 q 45 887 72 880 q 18 905 18 895 z "},"":{"ha":487,"x_min":14,"x_max":468,"o":"m 252 1035 q 254 1072 244 1052 q 281 1098 264 1093 q 313 1098 290 1100 q 339 1060 334 1093 q 331 1021 344 1028 l 327 1019 q 300 1018 318 1013 q 281 1015 283 1022 q 252 1035 257 1017 m 157 218 q 157 280 157 246 q 164 342 157 315 q 165 405 168 363 q 162 469 162 446 q 158 530 162 500 q 153 593 153 561 q 151 622 153 604 q 149 654 149 641 q 150 686 148 669 q 149 718 151 704 q 146 781 144 748 q 148 844 149 814 q 140 870 146 867 q 120 887 134 874 q 62 905 94 905 q 33 902 52 905 q 14 915 14 898 q 36 929 14 926 q 70 937 57 933 q 164 943 114 943 q 233 929 194 943 q 311 915 272 915 l 396 917 q 427 914 407 917 q 448 905 448 911 q 418 895 448 898 q 379 892 389 892 q 352 886 368 892 q 329 876 336 880 q 299 810 298 861 q 300 733 300 760 q 303 665 300 698 q 307 595 307 631 q 308 521 307 557 q 309 448 309 485 q 313 376 309 408 q 320 311 318 345 q 323 277 320 292 q 327 244 327 261 q 326 189 327 216 q 326 135 326 161 q 362 33 326 66 q 413 6 385 13 q 458 -18 442 0 q 385 -21 468 -35 q 288 -3 301 -7 q 244 8 281 -2 q 174 22 207 18 q 57 7 109 22 q 31 7 31 2 q 57 26 31 18 q 74 30 68 28 q 92 37 81 31 q 148 96 138 59 q 157 218 157 154 m 81 1083 q 97 1099 86 1098 q 116 1103 107 1100 q 136 1101 121 1103 q 157 1095 151 1098 l 164 1090 q 176 1041 189 1070 q 165 1029 172 1035 q 157 1022 159 1024 q 136 1013 146 1013 q 123 1016 129 1013 q 113 1021 118 1019 q 99 1021 109 1021 q 90 1022 90 1022 q 78 1047 83 1028 q 79 1080 73 1067 l 81 1083 z "},"":{"ha":692,"x_min":-74,"x_max":661,"o":"m 289 433 q 267 434 278 433 q 246 439 256 435 q 243 441 245 441 q 234 317 237 380 q 230 187 230 254 q 230 155 230 163 q 232 124 230 146 q 250 119 233 115 q 291 122 273 119 q 332 130 309 126 q 393 161 369 132 q 429 216 411 187 q 459 279 446 244 q 473 332 465 298 q 487 387 481 365 q 494 405 489 398 q 502 422 498 411 q 530 518 515 467 q 528 626 545 570 q 518 644 524 637 q 506 663 511 652 q 484 702 494 684 q 463 743 474 720 q 439 779 450 765 q 404 806 428 793 q 351 825 372 821 q 291 829 330 829 q 281 752 281 789 q 278 709 281 732 q 274 671 274 687 q 265 595 274 646 q 252 517 256 545 q 250 498 252 505 q 255 498 252 498 q 260 498 258 498 q 272 499 265 498 q 283 500 278 500 q 302 499 293 500 q 322 498 311 498 q 356 498 335 492 q 370 481 376 504 q 365 464 370 478 q 359 437 359 450 q 352 417 357 406 q 332 428 347 428 q 289 433 315 433 m 144 500 q 144 506 144 502 q 144 513 144 509 q 147 570 144 539 q 150 624 150 600 q 152 641 150 633 q 156 657 154 648 q 156 694 156 680 q 161 730 156 709 q 166 765 161 737 q 170 800 170 793 q 165 837 172 817 q 110 832 152 837 q 54 828 68 828 q 9 830 32 828 q -29 848 -13 831 q -48 859 -33 852 q -68 878 -63 867 q -71 890 -74 890 q -30 880 -43 890 q 9 870 -16 870 q 111 885 65 870 q 191 902 157 900 q 233 909 213 902 q 274 920 252 917 q 317 927 294 922 q 367 932 339 932 q 408 929 385 932 q 443 917 430 926 q 491 882 469 900 q 533 843 511 861 q 576 802 555 824 q 609 754 598 768 q 635 698 621 741 q 656 616 652 644 q 661 530 661 589 q 618 428 661 502 q 562 332 574 354 q 545 308 552 319 q 532 286 537 296 q 518 261 524 274 q 506 237 511 248 q 476 192 489 210 q 441 152 463 174 q 398 116 425 135 q 356 87 372 96 q 312 70 330 74 q 269 61 294 66 q 248 60 258 59 q 232 61 239 61 q 219 56 226 59 q 202 52 212 54 q 183 50 193 50 q 167 50 174 50 q 133 45 150 46 q 102 41 117 45 q 71 33 85 35 q 41 26 56 31 q 12 17 28 20 q -20 13 -3 13 q -24 22 -24 15 q 0 37 -24 28 q 33 50 24 46 q 64 64 50 56 q 94 79 78 72 q 125 137 121 93 q 130 222 130 182 q 128 257 130 244 q 132 292 126 271 q 139 363 139 337 q 140 401 139 382 q 141 441 141 420 q 138 441 139 441 q 137 441 137 441 q 125 440 132 439 q 113 441 119 441 q 91 441 102 439 q 68 443 80 443 q 41 448 41 443 q 43 464 41 463 q 45 487 45 465 q 50 500 45 500 q 75 500 56 502 q 111 498 94 498 q 144 500 134 498 z "},"":{"ha":812,"x_min":-26,"x_max":848,"o":"m -26 970 q -1 992 -22 987 q 35 998 20 998 q 143 952 74 998 q 235 884 213 905 q 308 797 276 842 q 367 698 339 752 q 418 592 391 652 q 467 484 446 532 q 494 431 478 454 q 528 387 509 409 q 552 324 543 367 q 576 278 562 281 q 585 329 582 307 q 593 387 587 350 q 597 446 597 415 q 604 502 598 476 q 628 600 611 545 q 645 709 645 656 l 645 785 q 602 847 645 829 q 559 897 559 865 q 561 912 559 900 q 569 924 562 924 q 580 910 585 920 q 606 889 574 900 q 659 865 633 878 q 718 846 686 854 q 787 839 750 839 q 829 847 810 839 q 848 850 848 856 q 810 807 848 800 q 763 785 772 813 q 732 661 747 737 q 713 535 717 585 q 699 469 707 502 q 689 409 691 437 q 684 338 686 376 q 678 271 682 300 q 671 238 672 254 q 669 205 671 222 q 660 176 665 191 q 652 148 654 161 q 642 81 645 124 q 639 11 639 39 q 640 -65 639 -7 q 624 -122 641 -122 q 572 -56 608 -122 q 532 31 537 9 q 498 119 526 58 q 459 208 471 180 q 427 276 450 224 q 377 385 404 328 q 326 488 350 443 q 294 537 302 533 q 282 387 291 504 q 278 246 274 271 q 283 211 278 230 q 289 178 289 193 l 278 102 q 306 55 278 58 q 337 22 334 52 q 322 18 337 15 q 299 30 315 18 q 273 46 283 41 q 178 57 237 59 q 113 106 119 56 q 131 110 109 127 q 174 93 152 93 q 189 120 187 93 q 191 159 191 146 q 196 323 198 252 q 195 487 195 395 q 190 567 195 524 q 189 648 185 609 q 192 705 189 665 q 193 761 195 745 q 160 828 187 794 q 117 885 134 863 q 94 916 106 898 q 68 945 81 933 q 2 963 30 976 q -26 970 -26 950 m 332 1126 q 394 1142 357 1141 q 456 1120 430 1143 q 489 1102 473 1105 q 511 1093 506 1098 q 531 1070 524 1083 q 549 1050 537 1057 q 597 1015 562 1034 q 627 1007 613 1006 q 667 1009 641 1009 q 684 1009 672 1009 q 696 1002 696 1009 q 676 980 696 980 q 607 986 631 980 q 550 1009 583 993 q 532 1018 539 1013 q 513 1028 524 1022 q 485 1048 498 1037 q 456 1067 471 1059 q 419 1084 446 1070 q 380 1098 393 1098 q 325 1083 347 1098 q 281 1069 304 1069 q 243 1057 252 1069 q 215 1044 233 1044 q 199 1051 210 1044 q 195 1059 189 1057 q 235 1067 222 1065 q 271 1087 248 1070 q 332 1126 293 1102 z "},"":{"ha":831,"x_min":11,"x_max":792,"o":"m 463 961 q 446 967 454 961 q 435 980 439 974 q 424 993 427 985 q 414 1006 420 1000 q 357 1039 399 1021 q 298 1069 313 1054 q 275 1093 281 1085 q 269 1108 274 1097 q 264 1126 264 1120 l 264 1128 q 277 1145 264 1141 q 285 1145 281 1145 q 292 1146 289 1145 q 303 1150 296 1146 q 328 1156 322 1154 q 357 1165 346 1165 q 399 1130 383 1165 q 413 1105 406 1115 q 431 1085 427 1090 q 445 1061 439 1070 q 457 1035 452 1052 q 463 1004 463 1021 q 466 987 463 994 q 470 972 470 980 l 470 970 q 463 961 470 961 m 639 478 q 637 524 635 498 q 642 574 640 550 q 622 618 642 600 q 589 650 602 635 q 523 711 555 682 q 459 774 490 741 q 417 797 450 780 q 374 814 385 814 l 348 814 q 309 808 335 814 q 275 798 283 802 q 218 707 233 770 q 203 602 203 644 q 200 478 203 553 q 220 361 196 402 q 233 342 226 350 q 246 320 241 335 q 269 276 252 296 q 313 218 290 246 q 361 167 335 191 q 390 140 381 144 q 424 152 398 135 q 489 200 457 174 q 555 243 520 226 q 626 307 609 271 q 642 424 642 342 l 639 478 m 48 404 q 26 453 37 430 q 13 505 16 476 q 36 586 11 528 q 70 659 61 644 q 109 724 94 698 q 128 757 118 741 q 155 785 138 774 q 187 804 168 794 q 222 822 205 813 q 272 850 252 836 q 318 884 292 865 q 333 893 323 889 q 350 904 342 898 q 383 923 365 913 q 426 933 401 933 q 506 910 467 933 q 570 854 546 887 q 620 798 592 824 q 675 748 648 772 q 731 697 694 726 q 779 643 768 669 q 788 546 783 628 q 787 444 792 465 q 756 321 770 383 q 709 205 743 259 q 683 180 698 189 q 652 159 668 170 q 522 78 592 120 q 492 55 503 66 q 459 35 481 43 q 420 19 439 26 q 376 13 401 13 q 338 27 348 13 q 317 58 328 41 q 295 87 305 74 q 274 117 285 100 q 224 170 252 144 q 178 226 196 196 q 154 254 166 237 q 131 281 142 271 q 48 404 74 335 z "}}}
